<svg xmlns="http://www.w3.org/2000/svg" viewBox="0 0 1920 1080"><defs><style>.cls-1{opacity:0.48;}.cls-2,.cls-4{fill:#009245;}.cls-2{stroke:#006837;}.cls-2,.cls-3{stroke-miterlimit:10;stroke-width:10px;}.cls-3{fill:#e6e6e6;stroke:#39b54a;}.cls-5{fill:#006837;}.cls-6{fill:#39b54a;}</style></defs><title>energibar</title><g id="Lag_2" data-name="Lag 2"><path class="cls-2" d="M1346.31,519.25l-.2,43.11c-.1,22.75-21.42,41.15-47.61,41.09l-701.16-1.52c-26.19,0-47.34-18.54-47.24-41.3l.2-43.11c.1-22.75,21.41-41.15,47.6-41.09L1299.07,478C1325.26,478,1346.41,496.49,1346.31,519.25Z"/><path class="cls-3" d="M620.83,589.1,589.14,589c-7.89,0-14.27-5.59-14.23-12.45l.33-74.9c0-6.86,6.46-12.41,14.35-12.39l31.69.07c7.9,0,14.27,5.59,14.24,12.45l-.34,74.9C635.15,583.57,628.72,589.12,620.83,589.1Z"/><path class="cls-3" d="M695.46,589.26l-31.69-.07c-7.9,0-14.27-5.59-14.24-12.44l.34-74.91c0-6.86,6.46-12.4,14.35-12.39l31.69.07c7.89,0,14.27,5.59,14.23,12.45l-.33,74.91C709.77,583.73,703.35,589.28,695.46,589.26Z"/><path class="cls-3" d="M770.08,589.42l-31.69-.06c-7.89,0-14.26-5.6-14.23-12.45L724.5,502c0-6.86,6.45-12.4,14.35-12.38l31.68.06c7.9,0,14.27,5.59,14.24,12.45L784.43,577C784.4,583.9,778,589.44,770.08,589.42Z"/><path class="cls-3" d="M844.71,589.59,813,589.52c-7.89,0-14.27-5.59-14.24-12.45l.34-74.91c0-6.85,6.46-12.4,14.35-12.38l31.69.07c7.89,0,14.27,5.59,14.24,12.44l-.34,74.91C859,584.06,852.6,589.6,844.71,589.59Z"/><path class="cls-3" d="M920.29,589.75l-31.69-.07c-7.89,0-14.27-5.59-14.23-12.45l.33-74.9c0-6.86,6.46-12.41,14.35-12.39l31.69.07c7.9,0,14.27,5.59,14.24,12.45l-.34,74.9C934.61,584.22,928.18,589.77,920.29,589.75Z"/><path class="cls-3" d="M996.83,589.92l-31.69-.07c-7.89,0-14.27-5.59-14.24-12.45l.34-74.91c0-6.85,6.46-12.4,14.35-12.38l31.69.07c7.9,0,14.27,5.59,14.24,12.44l-.34,74.91C1011.15,584.39,1004.72,589.93,996.83,589.92Z"/><path class="cls-3" d="M1074.33,590.08l-31.69-.07c-7.9,0-14.27-5.59-14.24-12.44l.34-74.91c0-6.86,6.46-12.4,14.35-12.39l31.69.07c7.89,0,14.27,5.59,14.23,12.45l-.33,74.91C1088.64,584.55,1082.22,590.1,1074.33,590.08Z"/><path class="cls-3" d="M1151.82,590.25l-31.69-.07c-7.89,0-14.26-5.59-14.23-12.45l.34-74.9c0-6.86,6.45-12.4,14.35-12.39l31.68.07c7.9,0,14.27,5.59,14.24,12.45l-.34,74.9C1166.14,584.72,1159.72,590.27,1151.82,590.25Z"/><path class="cls-3" d="M1229.32,590.42l-31.69-.07c-7.89,0-14.27-5.59-14.24-12.45l.34-74.9c0-6.86,6.46-12.41,14.35-12.39l31.69.07c7.89,0,14.27,5.59,14.24,12.45l-.34,74.9C1243.64,584.89,1237.21,590.44,1229.32,590.42Z"/><path class="cls-3" d="M1308.73,590.59l-31.69-.07c-7.89,0-14.27-5.59-14.24-12.45l.34-74.9c0-6.86,6.46-12.4,14.35-12.39l31.69.07c7.89,0,14.27,5.59,14.24,12.45l-.34,74.9C1323.05,585.06,1316.62,590.61,1308.73,590.59Z"/><path class="cls-4" d="M615.41,572c.2,0,.39-.06.58-.07l.52,0,3.08-.29c.3-.8.68-1.59,1-2.39a12.73,12.73,0,0,1,.77-1.93,46.69,46.69,0,0,0,1.44-26c-.19-.86-.3-1.23-.53-2.18A99.42,99.42,0,0,1,620.11,509a6.52,6.52,0,0,1,.09-1.32c0-.14,0-.27,0-.41a18,18,0,0,1,.19-2.19c0-.26.05-.52.08-.79a8.79,8.79,0,0,1-1.7.13l-23,2a.39.39,0,0,1-.2.05h-.41l-6.21.55c-.44,1.06-.87,2.17-1.26,3.33l-.06.21c-.14.51-.32,1-.5,1.52-2.13,7.07-3,15.67.64,24.66.75,1.89,1.26,2.69,2,4.58,2.59,6.25,4.35,15.07,1.73,27.17a.28.28,0,0,1,0,.09q-.39,1.77-.9,3.63c-.14.71-.23,1.42-.33,2.13Z"/><path class="cls-5" d="M591.29,573.09l27.79-2.68a46.82,46.82,0,0,0,3-29.45c-.18-.83-.28-1.2-.5-2.11-1.78-7.67-3.19-18.74-1.68-33.88L590,507.67c-3.07,7.59-5.39,17.93-1.11,28.88.71,1.83,1.19,2.61,1.94,4.45,2.74,6.78,4.51,16.69.6,30.67"/><path class="cls-4" d="M592.25,572l25.83-2.58a47.13,47.13,0,0,0,2.76-28.5c-.17-.8-.27-1.15-.47-2-1.67-7.42-3-18.13-1.58-32.78L591,508.68c-2.85,7.34-5,17.35-1,27.95.67,1.77,1.11,2.52,1.81,4.3,2.55,6.56,4.2,16.15.57,29.68"/><path class="cls-5" d="M599.57,540.88l-.29-1.53c-.42-2.16,1.25-4.21,3.74-4.58l6.51-.95a4.53,4.53,0,0,1,5.26,3.24l.29,1.54c.42,2.16-1.26,4.21-3.74,4.57l-6.51,1A4.54,4.54,0,0,1,599.57,540.88Z"/><path class="cls-6" d="M600.94,527.27l-.73-3.79a2.89,2.89,0,0,1,2.67-3.25l1.25-.19a3.23,3.23,0,0,1,3.75,2.31l.73,3.79a2.89,2.89,0,0,1-2.67,3.25l-1.25.19A3.23,3.23,0,0,1,600.94,527.27Z"/><path class="cls-6" d="M606.48,555.82l-.73-3.78a2.9,2.9,0,0,1,2.67-3.26l1.26-.19a3.23,3.23,0,0,1,3.74,2.32l.73,3.78a2.89,2.89,0,0,1-2.66,3.26l-1.26.18A3.23,3.23,0,0,1,606.48,555.82Z"/><path class="cls-5" d="M591.66,567.9v0a.52.52,0,0,1,0,.21.81.81,0,0,0,0,.38.34.34,0,0,1-.11.25,1.6,1.6,0,0,0,0,.21l-.06.24a.4.4,0,0,1,0,.23h0v0l0,.06v.1a.13.13,0,0,1,0,.06v.08c-.15.79-.46,1.55-.57,2.34a.06.06,0,0,0,0,0,.22.22,0,0,1,0,.08c-.14.73-.23,1.47-.33,2.2a.38.38,0,0,1,.16,0,8.56,8.56,0,0,0,1.34-.12.48.48,0,0,1,.21,0l.09,0a.42.42,0,0,1,.26-.06l.61,0a.32.32,0,0,1,.14,0l.31,0a.33.33,0,0,1,.14,0h0l.13,0h.07a.56.56,0,0,1,.34,0h.1l.18,0a11.63,11.63,0,0,0,1.85-.2h.09a.44.44,0,0,1,.2,0h.3l.31,0a.41.41,0,0,1,.16,0l.24,0,.27,0,.28,0a4.13,4.13,0,0,0,.61-2.21c0-2.55-2.45-4.6-5.39-4.57a6.27,6.27,0,0,0-1.52.22,3,3,0,0,1-.08.32l0,.12A1.94,1.94,0,0,1,591.66,567.9Z"/><path class="cls-5" d="M588.92,507a4.54,4.54,0,0,1-.6,1.63,11,11,0,0,0-.64,2,31.75,31.75,0,0,0-1.22,4.08,8,8,0,0,0,1.21.06c4.44,0,8-3.21,7.94-7.07a6.45,6.45,0,0,0-.12-1.17c-2.2,0-4.39.23-6.57.44Z"/><path class="cls-5" d="M620,510.86a10.94,10.94,0,0,1,.11-2.62h0a17.48,17.48,0,0,1,.46-4,10.43,10.43,0,0,1-2.43.17H618a25.51,25.51,0,0,0-4.46.26.35.35,0,0,1-.14.06l-.41.07a5.56,5.56,0,0,0-.23,1.64c0,3.35,3.21,6,7.06,6A12.7,12.7,0,0,1,620,510.86Z"/><path class="cls-5" d="M616.88,571.81c.91-.08,1.81-.14,2.71-.19.38-1.06.89-2.09,1.31-3.13a14.44,14.44,0,0,1,1-2.43,7.25,7.25,0,0,0-2.25-.33c-3.55,0-6.4,2.57-6.36,5.66a6,6,0,0,0,.07.74c.58,0,1.16-.16,1.74-.2S616.28,571.86,616.88,571.81Z"/><path class="cls-4" d="M691,571.16a5.73,5.73,0,0,1,.58-.07l.52,0,3.08-.29c.29-.81.68-1.6,1-2.4a11.61,11.61,0,0,1,.76-1.92,46.63,46.63,0,0,0,1.45-26c-.2-.86-.3-1.23-.53-2.18a99.38,99.38,0,0,1-2.16-30.12,6.56,6.56,0,0,1,.09-1.33l0-.4a19.8,19.8,0,0,1,.2-2.19c0-.27,0-.53.08-.8a8.79,8.79,0,0,1-1.7.13l-23,2a.43.43,0,0,1-.21.05h-.4l-6.21.55c-.44,1.06-.87,2.17-1.26,3.33l-.06.21c-.14.51-.32,1-.5,1.52-2.13,7.07-3,15.67.63,24.66.76,1.89,1.26,2.69,2.05,4.58,2.59,6.25,4.35,15.07,1.73,27.18a.24.24,0,0,1,0,.08q-.37,1.77-.9,3.63c-.13.71-.22,1.42-.32,2.13Z"/><path class="cls-5" d="M666.87,572.22l27.79-2.67a46.87,46.87,0,0,0,3-29.46c-.18-.83-.28-1.19-.5-2.11-1.79-7.67-3.19-18.73-1.68-33.88l-29.85,2.7c-3.07,7.59-5.39,17.94-1.12,28.89.72,1.83,1.2,2.6,1.94,4.45,2.75,6.78,4.51,16.68.61,30.67"/><path class="cls-4" d="M667.83,571.11l25.83-2.58A47,47,0,0,0,696.41,540c-.17-.81-.26-1.16-.46-2-1.67-7.42-3-18.12-1.58-32.77l-27.75,2.59c-2.85,7.34-5,17.35-1,27.95.66,1.77,1.11,2.52,1.8,4.31,2.56,6.56,4.21,16.14.58,29.67"/><path class="cls-5" d="M675.15,540l-.3-1.53c-.41-2.16,1.26-4.21,3.75-4.57l6.5-1c2.49-.37,4.85,1.09,5.26,3.25l.3,1.53c.42,2.16-1.26,4.21-3.75,4.57l-6.5,1A4.53,4.53,0,0,1,675.15,540Z"/><path class="cls-6" d="M676.52,526.4l-.73-3.79a2.89,2.89,0,0,1,2.66-3.25l1.26-.19a3.24,3.24,0,0,1,3.75,2.31l.73,3.79a2.9,2.9,0,0,1-2.67,3.26l-1.26.18A3.22,3.22,0,0,1,676.52,526.4Z"/><path class="cls-6" d="M682.06,555l-.73-3.78a2.9,2.9,0,0,1,2.67-3.26l1.25-.18A3.23,3.23,0,0,1,689,550l.73,3.78a2.9,2.9,0,0,1-2.67,3.26l-1.25.19A3.24,3.24,0,0,1,682.06,555Z"/><path class="cls-5" d="M667.24,567h0a.39.39,0,0,1,0,.21.73.73,0,0,0,0,.39.36.36,0,0,1-.11.24l-.06.21a2,2,0,0,1,0,.24.5.5,0,0,1-.05.23v0h0a.14.14,0,0,1,0,.06v.1a.13.13,0,0,1,0,.06v.08c-.16.79-.47,1.55-.58,2.34v0a.19.19,0,0,1,0,.08c-.14.73-.23,1.47-.34,2.2a.86.86,0,0,1,.17,0,8.55,8.55,0,0,0,1.34-.11.5.5,0,0,1,.21,0l.09,0a.5.5,0,0,1,.26-.06,4.19,4.19,0,0,0,.61,0,.29.29,0,0,1,.14,0l.31,0a.36.36,0,0,1,.14,0h0a.24.24,0,0,1,.14,0h.07a.53.53,0,0,1,.33,0h.1a.58.58,0,0,1,.19,0,12.89,12.89,0,0,0,1.85-.19H672a.44.44,0,0,1,.2,0h.3a1.67,1.67,0,0,1,.31-.05.41.41,0,0,1,.16,0h.23l.28,0,.28,0a4.12,4.12,0,0,0,.61-2.2c0-2.56-2.45-4.61-5.39-4.57a6,6,0,0,0-1.53.21,1.32,1.32,0,0,1-.08.33.52.52,0,0,1,0,.11C667.29,566.81,667.27,566.92,667.24,567Z"/><path class="cls-5" d="M664.49,506.09a4.34,4.34,0,0,1-.59,1.63,11.54,11.54,0,0,0-.64,2,31.75,31.75,0,0,0-1.22,4.08,9.6,9.6,0,0,0,1.21.07c4.44,0,8-3.22,7.94-7.08a5.67,5.67,0,0,0-.13-1.17c-2.19,0-4.38.23-6.57.44Z"/><path class="cls-5" d="M695.62,510a11.48,11.48,0,0,1,.1-2.62h0a17.39,17.39,0,0,1,.46-3.94,11,11,0,0,1-2.44.16h-.14a25.46,25.46,0,0,0-4.45.27l-.14.05-.41.08a5.18,5.18,0,0,0-.23,1.63c0,3.35,3.2,6,7.06,6A12.7,12.7,0,0,1,695.62,510Z"/><path class="cls-5" d="M692.46,570.94c.9-.07,1.81-.14,2.71-.19.38-1,.88-2.09,1.31-3.13a14.4,14.4,0,0,1,.95-2.43,7.21,7.21,0,0,0-2.25-.33c-3.55,0-6.39,2.58-6.35,5.66a6,6,0,0,0,.07.74c.58,0,1.16-.16,1.74-.2Z"/><path class="cls-4" d="M765.61,570.3l.58-.07.52,0,3.08-.29c.3-.81.68-1.6,1-2.39a11.42,11.42,0,0,1,.77-1.93,46.73,46.73,0,0,0,1.44-26c-.19-.85-.3-1.23-.53-2.17a99.45,99.45,0,0,1-2.16-30.13,6.66,6.66,0,0,1,.09-1.33c0-.13,0-.26,0-.4a17.81,17.81,0,0,1,.19-2.19c0-.26,0-.53.08-.79a9.66,9.66,0,0,1-1.7.13l-23,2a.41.41,0,0,1-.21,0h-.4l-6.21.55c-.44,1.06-.87,2.17-1.26,3.33l-.06.22c-.14.51-.32,1-.5,1.51-2.13,7.08-3,15.68.63,24.67.76,1.88,1.26,2.68,2,4.58,2.59,6.24,4.35,15.07,1.73,27.17a.19.19,0,0,1,0,.08c-.25,1.18-.55,2.39-.89,3.64-.14.7-.23,1.41-.33,2.12Z"/><path class="cls-5" d="M741.49,571.36l27.79-2.67a46.85,46.85,0,0,0,3-29.46c-.18-.83-.28-1.19-.5-2.11-1.79-7.67-3.19-18.73-1.68-33.87l-29.85,2.69c-3.07,7.59-5.39,17.94-1.12,28.89.72,1.83,1.2,2.61,1.94,4.45,2.75,6.78,4.52,16.69.61,30.67"/><path class="cls-4" d="M742.45,570.25l25.83-2.57a47.13,47.13,0,0,0,2.76-28.5c-.17-.8-.27-1.16-.47-2-1.67-7.43-3-18.13-1.58-32.78L741.24,507c-2.85,7.34-5,17.35-1,27.94.66,1.77,1.11,2.53,1.81,4.31,2.55,6.56,4.2,16.15.57,29.67"/><path class="cls-5" d="M749.77,539.16l-.3-1.54c-.41-2.16,1.26-4.2,3.75-4.57l6.51-1c2.48-.36,4.84,1.09,5.25,3.25l.3,1.53c.42,2.16-1.26,4.21-3.74,4.58l-6.51,1A4.54,4.54,0,0,1,749.77,539.16Z"/><path class="cls-6" d="M751.14,525.54l-.73-3.78a2.89,2.89,0,0,1,2.66-3.26l1.26-.18a3.22,3.22,0,0,1,3.75,2.31l.73,3.78a2.9,2.9,0,0,1-2.67,3.26l-1.25.19A3.23,3.23,0,0,1,751.14,525.54Z"/><path class="cls-6" d="M756.68,554.1l-.73-3.79a2.89,2.89,0,0,1,2.67-3.25l1.25-.19a3.23,3.23,0,0,1,3.75,2.31l.73,3.79a2.88,2.88,0,0,1-2.67,3.25l-1.25.19A3.23,3.23,0,0,1,756.68,554.1Z"/><path class="cls-5" d="M741.86,566.18v0a.36.36,0,0,1,0,.2.74.74,0,0,0,0,.39.3.3,0,0,1-.11.24,1.74,1.74,0,0,0-.05.22l-.06.23a.46.46,0,0,1-.05.23v0h0a.19.19,0,0,1,0,.07v.1a.09.09,0,0,1,0,.05V568c-.15.79-.46,1.55-.57,2.35,0,0,0,0,0,0a.25.25,0,0,1,0,.08c-.14.73-.23,1.46-.34,2.2a.47.47,0,0,1,.17,0,8.56,8.56,0,0,0,1.34-.12h.21l.09,0a.5.5,0,0,1,.26-.06,4.19,4.19,0,0,0,.61,0l.14,0,.31,0,.14,0h0a.36.36,0,0,1,.14,0H744a.56.56,0,0,1,.34,0h.1a.48.48,0,0,1,.18,0,12.89,12.89,0,0,0,1.85-.19h.09a.44.44,0,0,1,.2,0h.3l.31,0a.41.41,0,0,1,.16,0h.23l.28,0,.28,0a4.12,4.12,0,0,0,.61-2.2c0-2.56-2.45-4.6-5.39-4.57a6.26,6.26,0,0,0-1.52.21,3.18,3.18,0,0,1-.08.33l0,.11A3.4,3.4,0,0,1,741.86,566.18Z"/><path class="cls-5" d="M739.11,505.23a4.34,4.34,0,0,1-.59,1.63,11.38,11.38,0,0,0-.64,2,31.14,31.14,0,0,0-1.22,4.07,9.6,9.6,0,0,0,1.21.07c4.44,0,8-3.22,7.94-7.08a5.65,5.65,0,0,0-.13-1.16c-2.19,0-4.38.22-6.57.44Z"/><path class="cls-5" d="M770.24,509.14a11.57,11.57,0,0,1,.1-2.63h0a17.46,17.46,0,0,1,.46-3.94,11,11,0,0,1-2.43.16h-.14a26.52,26.52,0,0,0-4.46.27.34.34,0,0,1-.14.05l-.41.08a5.23,5.23,0,0,0-.23,1.63c0,3.36,3.21,6,7.06,6A12.74,12.74,0,0,1,770.24,509.14Z"/><path class="cls-5" d="M767.08,570.08c.9-.07,1.81-.13,2.71-.18.38-1.06.88-2.09,1.31-3.14a16.08,16.08,0,0,1,.95-2.43,7.2,7.2,0,0,0-2.25-.32c-3.54,0-6.39,2.57-6.35,5.65a5.8,5.8,0,0,0,.07.74c.58,0,1.16-.16,1.74-.19Z"/><path class="cls-4" d="M840.24,570.28c.2,0,.39-.06.58-.07l.52,0,3.08-.29c.3-.8.68-1.59,1-2.39a11.72,11.72,0,0,1,.76-1.93,46.69,46.69,0,0,0,1.44-26c-.19-.86-.3-1.23-.52-2.18a99.37,99.37,0,0,1-2.17-30.13,6.53,6.53,0,0,1,.1-1.32l0-.41a18,18,0,0,1,.19-2.19c0-.26,0-.52.08-.79a8.79,8.79,0,0,1-1.7.13l-23,2a.46.46,0,0,1-.21.05H820l-6.21.55q-.66,1.59-1.26,3.33l-.06.21a15,15,0,0,1-.5,1.52c-2.13,7.07-3,15.67.64,24.66.75,1.89,1.26,2.69,2,4.58,2.59,6.25,4.36,15.07,1.74,27.17,0,0,0,.06,0,.09q-.39,1.77-.9,3.63c-.13.71-.23,1.42-.33,2.13Z"/><path class="cls-5" d="M816.12,571.34l27.79-2.68a46.82,46.82,0,0,0,3-29.45c-.18-.83-.28-1.2-.49-2.11-1.79-7.67-3.2-18.74-1.68-33.88l-29.86,2.7c-3.07,7.59-5.38,17.93-1.11,28.88.71,1.83,1.19,2.61,1.94,4.45,2.74,6.78,4.51,16.69.6,30.67"/><path class="cls-4" d="M817.08,570.23l25.83-2.58a47,47,0,0,0,2.76-28.5c-.17-.8-.27-1.15-.47-2-1.66-7.42-3-18.13-1.58-32.78l-27.75,2.6c-2.85,7.34-5,17.35-1,27.95.67,1.77,1.11,2.52,1.81,4.3,2.55,6.56,4.2,16.15.58,29.68"/><path class="cls-5" d="M824.4,539.13l-.29-1.53c-.42-2.16,1.26-4.21,3.74-4.58l6.51-.95a4.53,4.53,0,0,1,5.26,3.24l.29,1.54c.42,2.16-1.26,4.21-3.74,4.57l-6.51,1A4.54,4.54,0,0,1,824.4,539.13Z"/><path class="cls-6" d="M825.77,525.52l-.73-3.79a2.89,2.89,0,0,1,2.67-3.25l1.25-.19a3.23,3.23,0,0,1,3.75,2.31l.73,3.79a2.89,2.89,0,0,1-2.67,3.25l-1.25.19A3.23,3.23,0,0,1,825.77,525.52Z"/><path class="cls-6" d="M831.32,554.07l-.74-3.78a2.91,2.91,0,0,1,2.67-3.26l1.26-.19a3.23,3.23,0,0,1,3.74,2.32l.73,3.78a2.89,2.89,0,0,1-2.66,3.26l-1.26.18A3.22,3.22,0,0,1,831.32,554.07Z"/><path class="cls-5" d="M816.49,566.15v0a.39.39,0,0,1,0,.21,1,1,0,0,0,0,.38.34.34,0,0,1-.11.25c0,.07,0,.14-.05.21l-.06.24a.4.4,0,0,1-.05.23h0v0a.14.14,0,0,0,0,.06v.16s0,0,0,.08c-.15.79-.46,1.55-.57,2.34v0a.22.22,0,0,1,0,.08c-.14.73-.23,1.47-.33,2.2a.41.41,0,0,1,.16,0,8.56,8.56,0,0,0,1.34-.12.48.48,0,0,1,.21,0l.09,0a.42.42,0,0,1,.26-.06l.61,0a.32.32,0,0,1,.14,0l.31,0a.32.32,0,0,1,.14,0h0l.14,0h.07a.53.53,0,0,1,.33,0h.1l.18,0a11.38,11.38,0,0,0,1.85-.2h.1a.4.4,0,0,1,.19,0h.3l.31,0a.41.41,0,0,1,.16,0l.24,0,.28,0a2.4,2.4,0,0,1,.28,0,4.21,4.21,0,0,0,.6-2.21c0-2.55-2.45-4.6-5.39-4.56a5.81,5.81,0,0,0-1.52.21,1.67,1.67,0,0,1-.08.32l0,.12A1.3,1.3,0,0,1,816.49,566.15Z"/><path class="cls-5" d="M813.75,505.21a4.54,4.54,0,0,1-.6,1.63,12.82,12.82,0,0,0-.64,2,33.42,33.42,0,0,0-1.22,4.08,8,8,0,0,0,1.21.06c4.44,0,8-3.21,8-7.07a6.45,6.45,0,0,0-.13-1.17c-2.2,0-4.39.23-6.57.44Z"/><path class="cls-5" d="M844.87,509.11a10.94,10.94,0,0,1,.11-2.62h0a17.48,17.48,0,0,1,.46-4,10.43,10.43,0,0,1-2.43.17h-.14a24.58,24.58,0,0,0-4.46.27l-.14,0-.4.07a5.25,5.25,0,0,0-.24,1.64c0,3.35,3.21,6,7.07,6A12.68,12.68,0,0,1,844.87,509.11Z"/><path class="cls-5" d="M841.71,570.06c.91-.07,1.81-.14,2.71-.19.38-1.06.89-2.09,1.31-3.13a14.44,14.44,0,0,1,1-2.43,7.21,7.21,0,0,0-2.25-.33c-3.55,0-6.4,2.57-6.35,5.66a4.52,4.52,0,0,0,.06.74c.58,0,1.16-.16,1.74-.2S841.11,570.11,841.71,570.06Z"/><path class="cls-4" d="M916.8,571.06a5.73,5.73,0,0,1,.58-.07l.52,0,3.08-.29c.29-.81.68-1.6,1-2.39a10.64,10.64,0,0,1,.77-1.93,46.74,46.74,0,0,0,1.44-26c-.19-.86-.3-1.23-.53-2.17a99.48,99.48,0,0,1-2.16-30.13,6.56,6.56,0,0,1,.09-1.33l0-.4a19.8,19.8,0,0,1,.2-2.19c0-.27,0-.53.08-.8a9.67,9.67,0,0,1-1.7.14l-23,2a.56.56,0,0,1-.21,0h-.4l-6.21.55c-.44,1.06-.87,2.17-1.26,3.33l-.06.22c-.14.51-.32,1-.5,1.51-2.13,7.08-3,15.67.63,24.67.76,1.88,1.26,2.68,2,4.57,2.59,6.25,4.35,15.07,1.73,27.18a.19.19,0,0,1,0,.08c-.25,1.18-.55,2.39-.89,3.64-.14.7-.23,1.41-.33,2.12Z"/><path class="cls-5" d="M892.68,572.12l27.79-2.67a46.86,46.86,0,0,0,3-29.46c-.18-.83-.28-1.19-.5-2.11-1.79-7.67-3.19-18.73-1.68-33.87l-29.85,2.69c-3.07,7.59-5.39,17.94-1.12,28.89.72,1.83,1.2,2.61,1.94,4.45,2.75,6.78,4.52,16.68.61,30.67"/><path class="cls-4" d="M893.64,571l25.83-2.57a47.14,47.14,0,0,0,2.76-28.5c-.17-.81-.27-1.16-.47-2.05-1.67-7.42-3-18.12-1.58-32.77l-27.75,2.59c-2.85,7.35-5,17.35-1,27.95.66,1.77,1.11,2.52,1.81,4.31,2.55,6.56,4.2,16.14.57,29.67"/><path class="cls-5" d="M901,539.92l-.3-1.54c-.41-2.16,1.26-4.21,3.75-4.57l6.5-1c2.49-.37,4.85,1.09,5.26,3.25l.3,1.53c.42,2.16-1.26,4.21-3.75,4.58l-6.5.95A4.53,4.53,0,0,1,901,539.92Z"/><path class="cls-6" d="M902.33,526.3l-.73-3.78a2.89,2.89,0,0,1,2.66-3.26l1.26-.19a3.24,3.24,0,0,1,3.75,2.32l.73,3.78a2.9,2.9,0,0,1-2.67,3.26l-1.26.18A3.22,3.22,0,0,1,902.33,526.3Z"/><path class="cls-6" d="M907.87,554.86l-.73-3.79a2.9,2.9,0,0,1,2.67-3.26l1.25-.18a3.23,3.23,0,0,1,3.75,2.31l.73,3.79a2.9,2.9,0,0,1-2.67,3.25l-1.25.19A3.24,3.24,0,0,1,907.87,554.86Z"/><path class="cls-5" d="M893.05,566.94v0a.36.36,0,0,1,0,.2.74.74,0,0,0,0,.39.34.34,0,0,1-.11.24l-.06.22c0,.07,0,.15-.05.23a.46.46,0,0,1,0,.23v0h0a.14.14,0,0,1,0,.06v.1a.13.13,0,0,1,0,.06v.08c-.15.79-.46,1.55-.58,2.35v0a.28.28,0,0,1,0,.09c-.14.73-.23,1.46-.34,2.19l.17,0a7.5,7.5,0,0,0,1.34-.11.5.5,0,0,1,.21,0l.09,0a.5.5,0,0,1,.26-.06,4.19,4.19,0,0,0,.61,0,.58.58,0,0,1,.14,0l.31,0,.14,0h0a.24.24,0,0,1,.14,0h.07a.56.56,0,0,1,.34,0h.1a.48.48,0,0,1,.18,0,12.89,12.89,0,0,0,1.85-.19h.09a.66.66,0,0,1,.2,0h.3a1.67,1.67,0,0,1,.31,0,.41.41,0,0,1,.16,0H899l.28,0,.28,0a4.12,4.12,0,0,0,.61-2.2c0-2.56-2.45-4.61-5.39-4.57a6,6,0,0,0-1.53.21,1.32,1.32,0,0,1-.08.33.43.43,0,0,1,0,.11C893.1,566.71,893.08,566.82,893.05,566.94Z"/><path class="cls-5" d="M890.3,506a4.34,4.34,0,0,1-.59,1.63,11.38,11.38,0,0,0-.64,2,31.14,31.14,0,0,0-1.22,4.07,9.6,9.6,0,0,0,1.21.07c4.44,0,8-3.22,7.94-7.08a5.5,5.5,0,0,0-.13-1.16c-2.19,0-4.38.22-6.57.43Z"/><path class="cls-5" d="M921.43,509.9a11.57,11.57,0,0,1,.1-2.63h0a17.39,17.39,0,0,1,.46-3.94,11,11,0,0,1-2.43.16h-.14a26.52,26.52,0,0,0-4.46.27l-.14.05-.41.08a5.23,5.23,0,0,0-.23,1.63c0,3.35,3.2,6,7.06,6A12.74,12.74,0,0,1,921.43,509.9Z"/><path class="cls-5" d="M918.27,570.84c.9-.07,1.81-.14,2.71-.18.38-1.06.88-2.1,1.31-3.14a14.4,14.4,0,0,1,1-2.43,7.51,7.51,0,0,0-2.25-.33c-3.55,0-6.39,2.58-6.35,5.66a6,6,0,0,0,.07.74c.58,0,1.16-.16,1.74-.2S917.67,570.89,918.27,570.84Z"/><path class="cls-4" d="M990.5,572.71a5.73,5.73,0,0,1,.58-.07l.52,0,3.08-.29c.29-.81.68-1.6,1-2.4a11.72,11.72,0,0,1,.76-1.93,46.68,46.68,0,0,0,1.45-26c-.2-.86-.3-1.23-.53-2.18a99.38,99.38,0,0,1-2.16-30.12,6.56,6.56,0,0,1,.09-1.33l0-.4a17.65,17.65,0,0,1,.2-2.19c0-.27.05-.53.08-.8a8.85,8.85,0,0,1-1.7.13l-23,2a.46.46,0,0,1-.21.05h-.4l-6.21.55c-.44,1.06-.87,2.17-1.26,3.33l-.06.21c-.14.51-.32,1-.5,1.52-2.13,7.07-3,15.67.63,24.66.75,1.89,1.26,2.69,2.05,4.58,2.59,6.25,4.35,15.07,1.73,27.18a.24.24,0,0,1,0,.08q-.37,1.77-.9,3.63c-.13.71-.22,1.42-.32,2.13Z"/><path class="cls-5" d="M966.38,573.77l27.79-2.67a46.94,46.94,0,0,0,3-29.46c-.18-.83-.28-1.19-.5-2.11-1.79-7.67-3.19-18.74-1.68-33.88l-29.86,2.7c-3.07,7.59-5.38,17.93-1.11,28.88.72,1.83,1.2,2.61,1.94,4.45,2.75,6.78,4.51,16.69.61,30.67"/><path class="cls-4" d="M967.33,572.66l25.83-2.58a46.94,46.94,0,0,0,2.76-28.49c-.17-.81-.26-1.16-.46-2.05-1.67-7.42-3-18.12-1.58-32.77l-27.75,2.59c-2.85,7.34-5,17.35-1,27.95.66,1.77,1.11,2.52,1.8,4.3,2.56,6.57,4.21,16.15.58,29.68"/><path class="cls-5" d="M974.66,541.56l-.3-1.53c-.42-2.16,1.26-4.21,3.75-4.57l6.5-1a4.53,4.53,0,0,1,5.26,3.25l.3,1.53c.42,2.16-1.26,4.21-3.75,4.57l-6.5,1A4.53,4.53,0,0,1,974.66,541.56Z"/><path class="cls-6" d="M976,528l-.73-3.79a2.89,2.89,0,0,1,2.66-3.25l1.26-.19A3.23,3.23,0,0,1,983,523l.74,3.79a2.91,2.91,0,0,1-2.67,3.26l-1.26.18A3.22,3.22,0,0,1,976,528Z"/><path class="cls-6" d="M981.57,556.5l-.73-3.78a2.89,2.89,0,0,1,2.67-3.26l1.25-.18a3.22,3.22,0,0,1,3.75,2.31l.73,3.78a2.9,2.9,0,0,1-2.67,3.26l-1.25.19A3.23,3.23,0,0,1,981.57,556.5Z"/><path class="cls-5" d="M966.75,568.58v0a.39.39,0,0,1,0,.21.81.81,0,0,0,0,.38.32.32,0,0,1-.1.25l-.06.21a1.05,1.05,0,0,1-.06.24.39.39,0,0,1,0,.23h0v0a.14.14,0,0,1,0,.06v.1s0,0,0,.06a.22.22,0,0,1,0,.08c-.15.79-.46,1.55-.57,2.34v0s0,0,0,.08c-.14.73-.23,1.47-.34,2.2a.47.47,0,0,1,.17,0,10,10,0,0,0,1.34-.11.38.38,0,0,1,.21,0l.09,0a.4.4,0,0,1,.26-.06l.6,0a.37.37,0,0,1,.15,0l.3,0a.39.39,0,0,1,.15,0h0a.24.24,0,0,1,.14,0h.07a.61.61,0,0,1,.33,0h.1a.58.58,0,0,1,.19,0,12.89,12.89,0,0,0,1.85-.19h.09a.41.41,0,0,1,.19,0H972l.31,0a.41.41,0,0,1,.16,0h.23l.28,0,.28,0a4.13,4.13,0,0,0,.61-2.21c0-2.55-2.45-4.6-5.39-4.56a5.89,5.89,0,0,0-1.53.21,1.32,1.32,0,0,1-.08.33.52.52,0,0,1,0,.11C966.8,568.36,966.78,568.47,966.75,568.58Z"/><path class="cls-5" d="M964,507.64a4.34,4.34,0,0,1-.59,1.63,11.28,11.28,0,0,0-.64,2,33.48,33.48,0,0,0-1.23,4.08,9.87,9.87,0,0,0,1.22.07c4.44-.06,8-3.22,7.94-7.08a5.67,5.67,0,0,0-.13-1.17c-2.2,0-4.38.23-6.57.44Z"/><path class="cls-5" d="M995.12,511.54a12.08,12.08,0,0,1,.11-2.62h0a17.32,17.32,0,0,1,.46-3.94,11,11,0,0,1-2.44.16h-.14a25.46,25.46,0,0,0-4.45.27l-.14,0-.41.08a5.18,5.18,0,0,0-.23,1.63c0,3.35,3.2,6,7.06,6A14.76,14.76,0,0,1,995.12,511.54Z"/><path class="cls-5" d="M992,572.49c.9-.07,1.81-.14,2.71-.19.38-1.06.88-2.09,1.31-3.13a14.4,14.4,0,0,1,1-2.43,7.21,7.21,0,0,0-2.25-.33c-3.55,0-6.39,2.58-6.35,5.66a4.53,4.53,0,0,0,.07.74c.58,0,1.16-.16,1.74-.2Z"/><path class="cls-4" d="M1069,572.64a5.73,5.73,0,0,1,.58-.07l.52,0,3.08-.29c.29-.81.68-1.6,1-2.4a11.28,11.28,0,0,1,.76-1.92,46.73,46.73,0,0,0,1.45-26c-.2-.86-.3-1.23-.53-2.18a99.65,99.65,0,0,1-2.17-30.12,6.57,6.57,0,0,1,.1-1.33l0-.4a17.65,17.65,0,0,1,.2-2.19c0-.27,0-.53.08-.8a9,9,0,0,1-1.71.13l-23,2a.46.46,0,0,1-.21.05h-.4l-6.21.55c-.44,1.06-.87,2.17-1.27,3.33a1.6,1.6,0,0,1,0,.21c-.14.51-.32,1-.5,1.52-2.13,7.07-3,15.67.63,24.66.75,1.89,1.26,2.69,2.05,4.58,2.59,6.25,4.35,15.07,1.73,27.18a.24.24,0,0,1,0,.08c-.26,1.18-.55,2.39-.9,3.63-.13.71-.22,1.42-.32,2.13Z"/><path class="cls-5" d="M1044.84,573.7l27.78-2.67a46.86,46.86,0,0,0,3-29.46c-.18-.83-.28-1.19-.5-2.11-1.79-7.67-3.19-18.74-1.68-33.88l-29.86,2.7c-3.07,7.59-5.38,17.94-1.11,28.89.71,1.83,1.2,2.6,1.94,4.44,2.75,6.79,4.51,16.69.61,30.68"/><path class="cls-4" d="M1045.79,572.59l25.83-2.58a46.94,46.94,0,0,0,2.76-28.49c-.17-.81-.26-1.16-.46-2-1.67-7.42-3-18.12-1.58-32.77l-27.75,2.59c-2.85,7.34-5,17.35-1,27.95.66,1.77,1.11,2.52,1.8,4.31,2.56,6.56,4.2,16.14.58,29.67"/><path class="cls-5" d="M1053.12,541.49l-.3-1.53c-.42-2.16,1.26-4.21,3.75-4.57l6.5-1a4.53,4.53,0,0,1,5.26,3.25l.3,1.53c.42,2.16-1.26,4.21-3.75,4.57l-6.5,1A4.53,4.53,0,0,1,1053.12,541.49Z"/><path class="cls-6" d="M1054.49,527.88l-.74-3.79a2.9,2.9,0,0,1,2.67-3.25l1.26-.19a3.23,3.23,0,0,1,3.74,2.31l.74,3.79a2.91,2.91,0,0,1-2.67,3.26l-1.26.18A3.22,3.22,0,0,1,1054.49,527.88Z"/><path class="cls-6" d="M1060,556.43l-.73-3.78a2.89,2.89,0,0,1,2.66-3.26l1.26-.18a3.23,3.23,0,0,1,3.75,2.31l.73,3.78a2.9,2.9,0,0,1-2.67,3.26l-1.26.19A3.23,3.23,0,0,1,1060,556.43Z"/><path class="cls-5" d="M1045.21,568.51v0a.39.39,0,0,1,0,.21.81.81,0,0,0,0,.38.3.3,0,0,1-.11.25,1.6,1.6,0,0,1,0,.21,1.05,1.05,0,0,1-.06.24.39.39,0,0,1,0,.23v0h0l0,.06v.1s0,0,0,.06a.22.22,0,0,1,0,.08c-.15.79-.46,1.55-.57,2.34,0,0,0,0,0,0a.21.21,0,0,1,0,.08c-.14.73-.24,1.47-.34,2.2a.43.43,0,0,1,.17,0,8.55,8.55,0,0,0,1.34-.11.45.45,0,0,1,.2,0l.1,0a.46.46,0,0,1,.25-.06l.61,0a.35.35,0,0,1,.14,0l.31,0a.39.39,0,0,1,.15,0h0a.24.24,0,0,1,.14,0h.07a.61.61,0,0,1,.33,0h.1a.52.52,0,0,1,.18,0,12.89,12.89,0,0,0,1.86-.19h.09a.4.4,0,0,1,.19,0h.31l.31,0a.41.41,0,0,1,.16,0h.23l.28,0,.28,0a4.12,4.12,0,0,0,.61-2.2c0-2.56-2.45-4.61-5.4-4.57a5.81,5.81,0,0,0-1.52.21,1.32,1.32,0,0,1-.08.33s0,.07,0,.11S1045.24,568.4,1045.21,568.51Z"/><path class="cls-5" d="M1042.46,507.57a4.52,4.52,0,0,1-.59,1.63,11.28,11.28,0,0,0-.64,2,33.48,33.48,0,0,0-1.23,4.08,9.76,9.76,0,0,0,1.22.07c4.44-.06,8-3.22,7.94-7.08a6.45,6.45,0,0,0-.13-1.17c-2.2,0-4.38.23-6.57.44Z"/><path class="cls-5" d="M1073.58,511.47a11.48,11.48,0,0,1,.11-2.62h0a17.91,17.91,0,0,1,.47-3.94,11,11,0,0,1-2.44.16h-.14a25.46,25.46,0,0,0-4.45.27l-.14.05-.41.08a5.18,5.18,0,0,0-.23,1.63c0,3.35,3.2,6,7.06,6A14.76,14.76,0,0,1,1073.58,511.47Z"/><path class="cls-5" d="M1070.43,572.42c.9-.07,1.8-.14,2.71-.19.38-1.06.88-2.09,1.3-3.13a15.34,15.34,0,0,1,1-2.43,7.21,7.21,0,0,0-2.25-.33c-3.55,0-6.39,2.58-6.35,5.66a4.53,4.53,0,0,0,.07.74c.58,0,1.16-.16,1.74-.2Z"/></g></svg>
