<svg xmlns="http://www.w3.org/2000/svg" viewBox="0 0 1920 1080"><defs><style>.cls-1{opacity:0.48;}.cls-2{fill:#d2cea9;}.cls-3{fill:#65708c;}.cls-4{fill:#9f9b81;}.cls-5{fill:#e0e2e7;}.cls-11,.cls-6{fill:#fbb03b;}.cls-7{fill:#ccc;}.cls-8{fill:#e6e6e6;}.cls-9{fill:blue;}.cls-10{fill:#ed1c24;}.cls-11{stroke:#000;stroke-miterlimit:10;}.cls-12{fill:#006837;}.cls-13{fill:#3d444d;}.cls-14{font-size:100px;fill:#fff;font-family:Impact;}.cls-15{letter-spacing:0.03em;}</style></defs><title>gameover</title><g id="Lag_2" data-name="Lag 2"><rect class="cls-2" x="-0.5" y="2.5" width="1920" height="1080"/><rect class="cls-3" x="588" y="489" width="702" height="573"/><rect class="cls-4" y="386" width="93" height="93"/><rect class="cls-4" x="17" y="496" width="185" height="93"/><rect class="cls-4" y="175" width="139" height="93"/><rect class="cls-4" x="46" y="64" width="185" height="93"/><rect class="cls-4" x="171" y="175" width="185" height="93"/><rect class="cls-4" x="1683" y="355" width="185" height="93"/><rect class="cls-4" x="1807" y="472" width="113" height="93"/><circle class="cls-3" cx="939.5" cy="524.5" r="352.5"/><path class="cls-5" d="M753.19,835.75c0-122.15,119.72-260.7,241.87-260.7s241.88,140.44,241.88,262.58S1118.15,971.28,996,971.28,753.19,957.9,753.19,835.75Z"/><circle class="cls-6" cx="931.53" cy="530.35" r="95.53"/><circle class="cls-7" cx="917.89" cy="450.82" r="28.23"/><circle class="cls-7" cx="1003.53" cy="458.35" r="28.23"/><circle class="cls-7" cx="932.01" cy="422.59" r="28.23"/><circle class="cls-7" cx="959.3" cy="434.82" r="28.23"/><circle class="cls-7" cx="1020.47" cy="474.35" r="28.23"/><circle class="cls-7" cx="1031.77" cy="505.41" r="28.23"/><circle class="cls-7" cx="975.3" cy="454.59" r="28.23"/><circle class="cls-7" cx="1020.47" cy="495.06" r="28.23"/><circle class="cls-7" cx="998.83" cy="430.12" r="28.23"/><circle class="cls-7" cx="1063.77" cy="575.05" r="28.23"/><circle class="cls-7" cx="1048.71" cy="552.47" r="28.23"/><circle class="cls-7" cx="1039.3" cy="538.35" r="28.23"/><circle class="cls-7" cx="1031.77" cy="589.17" r="28.23"/><circle class="cls-7" cx="902.83" cy="422.59" r="28.23"/><circle class="cls-7" cx="889.65" cy="440.47" r="28.23"/><ellipse class="cls-8" cx="884.95" cy="502.59" rx="17.88" ry="7.53"/><ellipse class="cls-8" cx="949.89" cy="502.59" rx="17.88" ry="7.53"/><ellipse class="cls-9" cx="947.14" cy="503.37" rx="2.87" ry="5.74" transform="translate(-31.68 64.77) rotate(-3.85)"/><polyline class="cls-10" points="981.69 578.2 923 572 859.02 578.84 923.77 556.25"/><ellipse class="cls-9" cx="881.26" cy="502.43" rx="2.87" ry="5.74" transform="translate(-31.76 60.34) rotate(-3.85)"/><path class="cls-11" d="M904.36,518.56c-7.67,0-13.89,3.29-13.89,7.35s6.22,7.36,13.89,7.36"/><path class="cls-12" d="M1303.76,488.36a28,28,0,0,0,2.21-3.53"/><polygon class="cls-13" points="1167 666 823 666 851 637 1138 637 1167 666"/><polygon class="cls-13" points="1213 739 775 739 791 710 1198.08 710 1213 739"/><polygon class="cls-13" points="1235 815 754 815 759.45 786 1230.72 786 1235 815"/><polygon class="cls-13" points="1226 893 765 894 760.13 877.78 756 864 1235 865 1226 893"/><rect class="cls-4" x="383" y="934" width="1152" height="128"/><polygon points="723 934 698 934 698 268 720 248 723 934"/><polygon points="1155 934 1180 934 1180 268 1158 248 1155 934"/><polygon points="845 934 870 934 870 179 848 184 845 934"/><polygon points="1007 934 1030 934 1030 184 1004 178 1007 934"/><text class="cls-14" transform="translate(291 110.48)">Desværre Britta! De opdagede de<tspan class="cls-15" x="1343.36" y="0">t</tspan><tspan x="1376.81" y="0">.</tspan></text></g></svg>
