<svg xmlns="http://www.w3.org/2000/svg" viewBox="0 0 1920 1080"><defs><style>.cls-1{opacity:0.48;}.cls-2{fill:#009245;}.cls-3{fill:#006837;}.cls-4{fill:#39b54a;}</style></defs><title>pengeseddel</title><g id="Lag_2" data-name="Lag 2"><path class="cls-2" d="M1006.25,439.84a4.81,4.81,0,0,1,.53-.07l.47,0,2.8-.31c.27-.84.62-1.67.91-2.5a13.37,13.37,0,0,1,.69-2,55.91,55.91,0,0,0,1.25-27.2c-.18-.9-.28-1.29-.49-2.28a119.43,119.43,0,0,1-2-31.52,7.21,7.21,0,0,1,.08-1.39l0-.42a21.64,21.64,0,0,1,.17-2.29c0-.28.05-.56.07-.83a7.32,7.32,0,0,1-1.55.13l-20.89,2.15a.36.36,0,0,1-.19,0h-.36l-5.65.58c-.4,1.11-.78,2.28-1.14,3.49a1.42,1.42,0,0,1-.05.22c-.12.54-.28,1.06-.45,1.59a44,44,0,0,0,.63,25.81c.69,2,1.16,2.81,1.88,4.79,2.37,6.53,4,15.76,1.63,28.43a.28.28,0,0,1,0,.09c-.23,1.23-.5,2.5-.81,3.8-.12.74-.2,1.48-.29,2.22Z"/><path class="cls-3" d="M984.33,441l25.25-2.82a55.87,55.87,0,0,0,2.65-30.83c-.17-.86-.26-1.25-.46-2.21-1.65-8-2.95-19.6-1.61-35.44L983,372.51c-2.78,7.94-4.85,18.77-.95,30.23.66,1.91,1.1,2.73,1.78,4.65,2.51,7.1,4.14,17.46.62,32.1"/><path class="cls-2" d="M985.2,439.8l23.47-2.71a56.12,56.12,0,0,0,2.44-29.82c-.15-.84-.24-1.21-.43-2.14-1.53-7.77-2.74-19-1.51-34.3L984,373.57c-2.57,7.68-4.5,18.16-.86,29.24.61,1.86,1,2.64,1.65,4.51,2.34,6.86,3.86,16.89.59,31.05"/><rect class="cls-3" x="993.73" y="398.11" width="9.93" height="14.3" rx="4.96" transform="translate(1230.47 -647.31) rotate(80.33)"/><rect class="cls-4" x="991.18" y="386.9" width="9.93" height="7.07" rx="3.53" transform="translate(1213.74 -657.13) rotate(80.33)"/><rect class="cls-4" x="996.28" y="416.78" width="9.93" height="7.07" rx="3.53" transform="translate(1247.44 -637.3) rotate(80.33)"/><path class="cls-3" d="M984.65,435.54v0a.44.44,0,0,1,0,.22.9.9,0,0,0,0,.4.36.36,0,0,1-.1.25c0,.08,0,.15,0,.23s0,.16-.05.25a.43.43,0,0,1,0,.24h0v0a.14.14,0,0,1,0,.06v.11a.13.13,0,0,1,0,.06.22.22,0,0,1,0,.08c-.14.83-.42,1.62-.51,2.45a.08.08,0,0,0,0,0,.28.28,0,0,1,0,.09c-.12.76-.21,1.53-.3,2.3l.15,0a7.1,7.1,0,0,0,1.22-.12.41.41,0,0,1,.19,0l.08,0a.36.36,0,0,1,.24-.06,5.07,5.07,0,0,0,.55,0l.13,0,.28,0,.13,0h0a.21.21,0,0,1,.13,0h.06a.47.47,0,0,1,.31,0H987a.38.38,0,0,1,.16,0,10.82,10.82,0,0,0,1.69-.2H989a.35.35,0,0,1,.18,0h.27l.28-.05a.37.37,0,0,1,.15,0h.21l.25,0a1.17,1.17,0,0,1,.26,0,4.83,4.83,0,0,0-5.75-6.86,1.86,1.86,0,0,1-.07.34.5.5,0,0,0,0,.12C984.7,435.31,984.68,435.42,984.65,435.54Z"/><path class="cls-3" d="M982,371.77a5.36,5.36,0,0,1-.54,1.7,14.14,14.14,0,0,0-.58,2.12,37.69,37.69,0,0,0-1.1,4.27,8,8,0,0,0,1.1.07,7.32,7.32,0,0,0,7.21-7.41,8,8,0,0,0-.12-1.22c-2,0-4,.24-6,.46Z"/><path class="cls-3" d="M1010.32,375.83a13.32,13.32,0,0,1,.09-2.75h0a21.83,21.83,0,0,1,.41-4.13,8.65,8.65,0,0,1-2.21.17h-.13a20.35,20.35,0,0,0-4.05.29l-.12.05-.37.08a6.07,6.07,0,0,0-.21,1.71,6.36,6.36,0,0,0,6.43,6.27A16.28,16.28,0,0,1,1010.32,375.83Z"/><path class="cls-3" d="M1007.59,439.61c.82-.08,1.64-.15,2.46-.2.34-1.11.8-2.19,1.18-3.28a17.7,17.7,0,0,1,.87-2.54,5.84,5.84,0,0,0-7.81,5.58,6.83,6.83,0,0,0,.06.78c.53,0,1.06-.17,1.59-.21Z"/></g></svg>
