<svg xmlns="http://www.w3.org/2000/svg" viewBox="0 0 1920 1080"><defs><style>.cls-1{opacity:0.48;}.cls-2{fill:#e6e6e6;}.cls-2,.cls-3{stroke:#006837;stroke-miterlimit:10;stroke-width:10px;}.cls-3{fill:#006837;}</style></defs><title>settings</title><g id="Lag_2" data-name="Lag 2"><circle class="cls-2" cx="1145.5" cy="539.5" r="82.5"/><circle class="cls-3" cx="1145.5" cy="539.5" r="47.01"/><rect class="cls-3" x="1135.23" y="481.5" width="19.3" height="21.57" rx="3.15"/><rect class="cls-3" x="1168.23" y="495.82" width="19.3" height="21.57" rx="3.15" transform="translate(703.22 -684.5) rotate(45)"/><rect class="cls-3" x="1181.3" y="528.82" width="19.3" height="21.57" rx="3.15" transform="translate(651.34 1730.56) rotate(-90)"/><rect class="cls-3" x="1088.53" y="528.82" width="19.3" height="21.57" rx="3.15" transform="translate(558.57 1637.79) rotate(-90)"/><rect class="cls-3" x="1102.23" y="561.82" width="19.3" height="21.57" rx="3.15" transform="translate(730.56 -618.5) rotate(45)"/><rect class="cls-3" x="1135.85" y="575.52" width="19.3" height="21.57" rx="3.15"/><rect class="cls-3" x="1103.47" y="495.2" width="19.3" height="21.57" rx="3.15" transform="translate(-31.76 935.3) rotate(-45)"/><rect class="cls-3" x="1168.85" y="560.58" width="19.3" height="21.57" rx="3.15" transform="translate(-58.84 1000.67) rotate(-45)"/><circle class="cls-2" cx="1146.43" cy="537.94" r="23.04"/></g></svg>
