<svg xmlns="http://www.w3.org/2000/svg" xmlns:xlink="http://www.w3.org/1999/xlink" viewBox="0 0 1920 1080"><defs><style>.cls-1{opacity:0.48;}.cls-2{fill:url(#Ikke-navngivet_forløb);}.cls-3{fill:#b3b3b3;}.cls-4{fill:url(#Ikke-navngivet_forløb-2);}.cls-5{fill:url(#Ikke-navngivet_forløb-3);}.cls-6{fill:url(#Ikke-navngivet_forløb-4);}.cls-7{fill:url(#Ikke-navngivet_forløb-5);}.cls-8{fill:url(#Ikke-navngivet_forløb-6);}.cls-9{fill:url(#Ikke-navngivet_forløb-7);}.cls-10{fill:url(#Ikke-navngivet_forløb-8);}.cls-11{fill:url(#Ikke-navngivet_forløb-9);}.cls-12{fill:url(#Ikke-navngivet_forløb-10);}.cls-13{fill:url(#Ikke-navngivet_forløb-11);}.cls-14{fill:url(#Ikke-navngivet_forløb-12);}.cls-15{fill:url(#Ikke-navngivet_forløb-13);}.cls-16{fill:url(#Ikke-navngivet_forløb-14);}.cls-17{fill:url(#Ikke-navngivet_forløb-15);}.cls-18{fill:url(#Ikke-navngivet_forløb-16);}.cls-19{fill:url(#Ikke-navngivet_forløb-17);}.cls-20{fill:url(#Ikke-navngivet_forløb-18);}.cls-21{fill:url(#Ikke-navngivet_forløb-19);}.cls-22{fill:url(#Ikke-navngivet_forløb-20);}.cls-23{fill:url(#Ikke-navngivet_forløb-21);}.cls-24{fill:url(#Ikke-navngivet_forløb-22);}.cls-25{fill:url(#Ikke-navngivet_forløb-23);}.cls-26{fill:url(#Ikke-navngivet_forløb-24);}.cls-27{fill:url(#Ikke-navngivet_forløb-25);}.cls-28{fill:url(#Ikke-navngivet_forløb-26);}.cls-29{fill:url(#Ikke-navngivet_forløb-27);}.cls-30{fill:url(#Ikke-navngivet_forløb-28);}.cls-31{fill:url(#Ikke-navngivet_forløb-29);}.cls-32{fill:url(#Ikke-navngivet_forløb-30);}.cls-33{fill:url(#Ikke-navngivet_forløb-31);}.cls-34{fill:url(#Ikke-navngivet_forløb-32);}.cls-35{fill:url(#Ikke-navngivet_forløb-33);}.cls-36{fill:url(#Ikke-navngivet_forløb-34);}.cls-37{fill:url(#Ikke-navngivet_forløb-35);}.cls-38{fill:url(#Ikke-navngivet_forløb-36);}.cls-39{fill:url(#Ikke-navngivet_forløb-37);}.cls-40{fill:url(#Ikke-navngivet_forløb-38);}.cls-41{fill:url(#Ikke-navngivet_forløb-39);}.cls-42{fill:url(#Ikke-navngivet_forløb-40);}.cls-43{fill:url(#Ikke-navngivet_forløb-41);}.cls-44{fill:url(#Ikke-navngivet_forløb-42);}.cls-45{fill:url(#Ikke-navngivet_forløb-43);}.cls-46{fill:url(#Ikke-navngivet_forløb-44);}.cls-47{fill:url(#Ikke-navngivet_forløb-45);}.cls-48{fill:url(#Ikke-navngivet_forløb-46);}.cls-49{fill:url(#Ikke-navngivet_forløb-47);}.cls-50{fill:url(#Ikke-navngivet_forløb-48);}.cls-51{fill:url(#Ikke-navngivet_forløb-49);}.cls-52{fill:url(#Ikke-navngivet_forløb-50);}.cls-53{fill:url(#Ikke-navngivet_forløb-51);}.cls-54{fill:url(#Ikke-navngivet_forløb-52);}.cls-55{fill:url(#Ikke-navngivet_forløb-53);}.cls-56{fill:url(#Ikke-navngivet_forløb-54);}.cls-57{fill:url(#Ikke-navngivet_forløb-55);}.cls-58{fill:url(#Ikke-navngivet_forløb-56);}.cls-59{fill:url(#Ikke-navngivet_forløb-57);}.cls-60{fill:url(#Ikke-navngivet_forløb-58);}.cls-61{fill:url(#Ikke-navngivet_forløb-59);}.cls-62{fill:url(#Ikke-navngivet_forløb-60);}.cls-63{fill:url(#Ikke-navngivet_forløb-61);}.cls-64{fill:url(#Ikke-navngivet_forløb-62);}.cls-65{fill:url(#Ikke-navngivet_forløb-63);}.cls-66{fill:url(#Ikke-navngivet_forløb-64);}.cls-67{fill:url(#Ikke-navngivet_forløb-65);}.cls-68{fill:url(#Ikke-navngivet_forløb-66);}.cls-69{fill:url(#Ikke-navngivet_forløb-67);}.cls-70{fill:url(#Ikke-navngivet_forløb-68);}.cls-71{fill:url(#Ikke-navngivet_forløb-69);}.cls-72{fill:url(#Ikke-navngivet_forløb-70);}.cls-73{fill:url(#Ikke-navngivet_forløb-71);}.cls-74{fill:url(#Ikke-navngivet_forløb-72);}.cls-75{fill:url(#Ikke-navngivet_forløb-73);}.cls-76{fill:url(#Ikke-navngivet_forløb-74);}.cls-77{fill:url(#Ikke-navngivet_forløb-75);}.cls-78{fill:url(#Ikke-navngivet_forløb-76);}.cls-79{fill:url(#Ikke-navngivet_forløb-77);}.cls-80{fill:url(#Ikke-navngivet_forløb-78);}.cls-81{fill:url(#Ikke-navngivet_forløb-79);}.cls-82{fill:url(#Ikke-navngivet_forløb-80);}.cls-83{fill:url(#Ikke-navngivet_forløb-81);}.cls-84{fill:url(#Ikke-navngivet_forløb-82);}.cls-85{fill:url(#Ikke-navngivet_forløb-83);}.cls-86{fill:url(#Ikke-navngivet_forløb-84);}.cls-87{fill:none;stroke:#f2f2f2;stroke-miterlimit:10;stroke-width:2px;}</style><linearGradient id="Ikke-navngivet_forløb" x1="42.18" y1="472.46" x2="604.44" y2="4530.74" gradientUnits="userSpaceOnUse"><stop offset="0" stop-color="#fff"/><stop offset="1"/></linearGradient><linearGradient id="Ikke-navngivet_forløb-2" x1="857.76" y1="371.25" x2="1420.02" y2="4429.53" xlink:href="#Ikke-navngivet_forløb"/><linearGradient id="Ikke-navngivet_forløb-3" x1="721.35" y1="388.18" x2="1283.61" y2="4446.45" xlink:href="#Ikke-navngivet_forløb"/><linearGradient id="Ikke-navngivet_forløb-4" x1="584.93" y1="405.1" x2="1147.19" y2="4463.38" xlink:href="#Ikke-navngivet_forløb"/><linearGradient id="Ikke-navngivet_forløb-5" x1="448.52" y1="422.03" x2="1010.78" y2="4480.32" xlink:href="#Ikke-navngivet_forløb"/><linearGradient id="Ikke-navngivet_forløb-6" x1="313.07" y1="438.84" x2="875.33" y2="4497.12" xlink:href="#Ikke-navngivet_forløb"/><linearGradient id="Ikke-navngivet_forløb-7" x1="177.63" y1="455.65" x2="739.89" y2="4513.93" xlink:href="#Ikke-navngivet_forløb"/><linearGradient id="Ikke-navngivet_forløb-8" x1="1812.66" y1="252.75" x2="2374.92" y2="4311.03" xlink:href="#Ikke-navngivet_forløb"/><linearGradient id="Ikke-navngivet_forløb-9" x1="1676.25" y1="269.68" x2="2238.51" y2="4327.96" xlink:href="#Ikke-navngivet_forløb"/><linearGradient id="Ikke-navngivet_forløb-10" x1="1539.83" y1="286.61" x2="2102.09" y2="4344.88" xlink:href="#Ikke-navngivet_forløb"/><linearGradient id="Ikke-navngivet_forløb-11" x1="1403.42" y1="303.53" x2="1965.68" y2="4361.81" xlink:href="#Ikke-navngivet_forløb"/><linearGradient id="Ikke-navngivet_forløb-12" x1="1267.01" y1="320.46" x2="1829.27" y2="4378.75" xlink:href="#Ikke-navngivet_forløb"/><linearGradient id="Ikke-navngivet_forløb-13" x1="1130.59" y1="337.39" x2="1692.85" y2="4395.67" xlink:href="#Ikke-navngivet_forløb"/><linearGradient id="Ikke-navngivet_forløb-14" x1="994.18" y1="354.32" x2="1556.44" y2="4412.6" xlink:href="#Ikke-navngivet_forløb"/><linearGradient id="Ikke-navngivet_forløb-15" x1="42.18" y1="-69.79" x2="604.44" y2="3988.53" xlink:href="#Ikke-navngivet_forløb"/><linearGradient id="Ikke-navngivet_forløb-16" x1="857.76" y1="-171" x2="1420.03" y2="3887.31" xlink:href="#Ikke-navngivet_forløb"/><linearGradient id="Ikke-navngivet_forløb-17" x1="721.35" y1="-154.07" x2="1283.61" y2="3904.24" xlink:href="#Ikke-navngivet_forløb"/><linearGradient id="Ikke-navngivet_forløb-18" x1="584.93" y1="-137.14" x2="1147.2" y2="3921.17" xlink:href="#Ikke-navngivet_forløb"/><linearGradient id="Ikke-navngivet_forløb-19" x1="448.52" y1="-120.21" x2="1010.78" y2="3938.1" xlink:href="#Ikke-navngivet_forløb"/><linearGradient id="Ikke-navngivet_forløb-20" x1="313.07" y1="-103.4" x2="875.34" y2="3954.91" xlink:href="#Ikke-navngivet_forløb"/><linearGradient id="Ikke-navngivet_forløb-21" x1="177.63" y1="-86.59" x2="739.89" y2="3971.72" xlink:href="#Ikke-navngivet_forløb"/><linearGradient id="Ikke-navngivet_forløb-22" x1="1812.66" y1="-289.5" x2="2374.93" y2="3768.81" xlink:href="#Ikke-navngivet_forløb"/><linearGradient id="Ikke-navngivet_forløb-23" x1="1676.25" y1="-272.57" x2="2238.51" y2="3785.74" xlink:href="#Ikke-navngivet_forløb"/><linearGradient id="Ikke-navngivet_forløb-24" x1="1539.83" y1="-255.64" x2="2102.1" y2="3802.67" xlink:href="#Ikke-navngivet_forløb"/><linearGradient id="Ikke-navngivet_forløb-25" x1="1403.42" y1="-238.71" x2="1965.68" y2="3819.6" xlink:href="#Ikke-navngivet_forløb"/><linearGradient id="Ikke-navngivet_forløb-26" x1="1267.01" y1="-221.78" x2="1829.27" y2="3836.53" xlink:href="#Ikke-navngivet_forløb"/><linearGradient id="Ikke-navngivet_forløb-27" x1="1130.59" y1="-204.85" x2="1692.86" y2="3853.46" xlink:href="#Ikke-navngivet_forløb"/><linearGradient id="Ikke-navngivet_forløb-28" x1="994.18" y1="-187.93" x2="1556.44" y2="3870.39" xlink:href="#Ikke-navngivet_forløb"/><linearGradient id="Ikke-navngivet_forløb-29" x1="42.18" y1="65.77" x2="604.44" y2="4124.09" xlink:href="#Ikke-navngivet_forløb"/><linearGradient id="Ikke-navngivet_forløb-30" x1="857.76" y1="-35.44" x2="1420.03" y2="4022.88" xlink:href="#Ikke-navngivet_forløb"/><linearGradient id="Ikke-navngivet_forløb-31" x1="721.35" y1="-18.51" x2="1283.61" y2="4039.8" xlink:href="#Ikke-navngivet_forløb"/><linearGradient id="Ikke-navngivet_forløb-32" x1="584.93" y1="-1.58" x2="1147.2" y2="4056.73" xlink:href="#Ikke-navngivet_forløb"/><linearGradient id="Ikke-navngivet_forløb-33" x1="448.52" y1="15.35" x2="1010.78" y2="4073.67" xlink:href="#Ikke-navngivet_forløb"/><linearGradient id="Ikke-navngivet_forløb-34" x1="313.07" y1="32.16" x2="875.34" y2="4090.47" xlink:href="#Ikke-navngivet_forløb"/><linearGradient id="Ikke-navngivet_forløb-35" x1="177.63" y1="48.97" x2="739.89" y2="4107.28" xlink:href="#Ikke-navngivet_forløb"/><linearGradient id="Ikke-navngivet_forløb-36" x1="1812.66" y1="-153.94" x2="2374.93" y2="3904.38" xlink:href="#Ikke-navngivet_forløb"/><linearGradient id="Ikke-navngivet_forløb-37" x1="1676.25" y1="-137.01" x2="2238.51" y2="3921.3" xlink:href="#Ikke-navngivet_forløb"/><linearGradient id="Ikke-navngivet_forløb-38" x1="1539.83" y1="-120.08" x2="2102.1" y2="3938.23" xlink:href="#Ikke-navngivet_forløb"/><linearGradient id="Ikke-navngivet_forløb-39" x1="1403.42" y1="-103.15" x2="1965.68" y2="3955.16" xlink:href="#Ikke-navngivet_forløb"/><linearGradient id="Ikke-navngivet_forløb-40" x1="1267.01" y1="-86.22" x2="1829.27" y2="3972.09" xlink:href="#Ikke-navngivet_forløb"/><linearGradient id="Ikke-navngivet_forløb-41" x1="1130.59" y1="-69.29" x2="1692.86" y2="3989.02" xlink:href="#Ikke-navngivet_forløb"/><linearGradient id="Ikke-navngivet_forløb-42" x1="994.18" y1="-52.37" x2="1556.44" y2="4005.95" xlink:href="#Ikke-navngivet_forløb"/><linearGradient id="Ikke-navngivet_forløb-43" x1="42.18" y1="201.34" x2="604.44" y2="4259.63" xlink:href="#Ikke-navngivet_forløb"/><linearGradient id="Ikke-navngivet_forløb-44" x1="857.76" y1="100.13" x2="1420.02" y2="4158.42" xlink:href="#Ikke-navngivet_forløb"/><linearGradient id="Ikke-navngivet_forløb-45" x1="721.35" y1="117.05" x2="1283.61" y2="4175.35" xlink:href="#Ikke-navngivet_forløb"/><linearGradient id="Ikke-navngivet_forløb-46" x1="584.93" y1="133.98" x2="1147.2" y2="4192.28" xlink:href="#Ikke-navngivet_forløb"/><linearGradient id="Ikke-navngivet_forløb-47" x1="448.52" y1="150.91" x2="1010.78" y2="4209.21" xlink:href="#Ikke-navngivet_forløb"/><linearGradient id="Ikke-navngivet_forløb-48" x1="313.07" y1="167.72" x2="875.33" y2="4226.01" xlink:href="#Ikke-navngivet_forløb"/><linearGradient id="Ikke-navngivet_forløb-49" x1="177.63" y1="184.53" x2="739.89" y2="4242.82" xlink:href="#Ikke-navngivet_forløb"/><linearGradient id="Ikke-navngivet_forløb-50" x1="1812.66" y1="-18.37" x2="2374.92" y2="4039.92" xlink:href="#Ikke-navngivet_forløb"/><linearGradient id="Ikke-navngivet_forløb-51" x1="1676.25" y1="-1.45" x2="2238.51" y2="4056.85" xlink:href="#Ikke-navngivet_forløb"/><linearGradient id="Ikke-navngivet_forløb-52" x1="1539.83" y1="15.48" x2="2102.09" y2="4073.78" xlink:href="#Ikke-navngivet_forløb"/><linearGradient id="Ikke-navngivet_forløb-53" x1="1403.42" y1="32.41" x2="1965.68" y2="4090.71" xlink:href="#Ikke-navngivet_forløb"/><linearGradient id="Ikke-navngivet_forløb-54" x1="1267.01" y1="49.34" x2="1829.27" y2="4107.64" xlink:href="#Ikke-navngivet_forløb"/><linearGradient id="Ikke-navngivet_forløb-55" x1="1130.59" y1="66.27" x2="1692.85" y2="4124.56" xlink:href="#Ikke-navngivet_forløb"/><linearGradient id="Ikke-navngivet_forløb-56" x1="994.18" y1="83.2" x2="1556.44" y2="4141.49" xlink:href="#Ikke-navngivet_forløb"/><linearGradient id="Ikke-navngivet_forløb-57" x1="42.18" y1="336.9" x2="604.44" y2="4395.21" xlink:href="#Ikke-navngivet_forløb"/><linearGradient id="Ikke-navngivet_forløb-58" x1="857.76" y1="235.69" x2="1420.03" y2="4294" xlink:href="#Ikke-navngivet_forløb"/><linearGradient id="Ikke-navngivet_forløb-59" x1="721.35" y1="252.61" x2="1283.61" y2="4310.93" xlink:href="#Ikke-navngivet_forløb"/><linearGradient id="Ikke-navngivet_forløb-60" x1="584.93" y1="269.54" x2="1147.2" y2="4327.85" xlink:href="#Ikke-navngivet_forløb"/><linearGradient id="Ikke-navngivet_forløb-61" x1="448.52" y1="286.47" x2="1010.78" y2="4344.79" xlink:href="#Ikke-navngivet_forløb"/><linearGradient id="Ikke-navngivet_forløb-62" x1="313.07" y1="303.28" x2="875.34" y2="4361.59" xlink:href="#Ikke-navngivet_forløb"/><linearGradient id="Ikke-navngivet_forløb-63" x1="177.63" y1="320.09" x2="739.89" y2="4378.4" xlink:href="#Ikke-navngivet_forløb"/><linearGradient id="Ikke-navngivet_forløb-64" x1="1812.66" y1="117.18" x2="2374.93" y2="4175.5" xlink:href="#Ikke-navngivet_forløb"/><linearGradient id="Ikke-navngivet_forløb-65" x1="1676.25" y1="134.11" x2="2238.51" y2="4192.43" xlink:href="#Ikke-navngivet_forløb"/><linearGradient id="Ikke-navngivet_forløb-66" x1="1539.83" y1="151.04" x2="2102.1" y2="4209.35" xlink:href="#Ikke-navngivet_forløb"/><linearGradient id="Ikke-navngivet_forløb-67" x1="1403.42" y1="167.97" x2="1965.68" y2="4226.28" xlink:href="#Ikke-navngivet_forløb"/><linearGradient id="Ikke-navngivet_forløb-68" x1="1267.01" y1="184.9" x2="1829.27" y2="4243.22" xlink:href="#Ikke-navngivet_forløb"/><linearGradient id="Ikke-navngivet_forløb-69" x1="1130.59" y1="201.83" x2="1692.86" y2="4260.14" xlink:href="#Ikke-navngivet_forløb"/><linearGradient id="Ikke-navngivet_forløb-70" x1="994.18" y1="218.76" x2="1556.44" y2="4277.07" xlink:href="#Ikke-navngivet_forløb"/><linearGradient id="Ikke-navngivet_forløb-71" x1="42.18" y1="608.02" x2="604.44" y2="4666.33" xlink:href="#Ikke-navngivet_forløb"/><linearGradient id="Ikke-navngivet_forløb-72" x1="857.76" y1="506.81" x2="1420.03" y2="4565.12" xlink:href="#Ikke-navngivet_forløb"/><linearGradient id="Ikke-navngivet_forløb-73" x1="721.35" y1="523.74" x2="1283.61" y2="4582.05" xlink:href="#Ikke-navngivet_forløb"/><linearGradient id="Ikke-navngivet_forløb-74" x1="584.93" y1="540.66" x2="1147.2" y2="4598.98" xlink:href="#Ikke-navngivet_forløb"/><linearGradient id="Ikke-navngivet_forløb-75" x1="448.52" y1="557.59" x2="1010.78" y2="4615.91" xlink:href="#Ikke-navngivet_forløb"/><linearGradient id="Ikke-navngivet_forløb-76" x1="313.07" y1="574.4" x2="875.34" y2="4632.71" xlink:href="#Ikke-navngivet_forløb"/><linearGradient id="Ikke-navngivet_forløb-77" x1="177.63" y1="591.21" x2="739.89" y2="4649.52" xlink:href="#Ikke-navngivet_forløb"/><linearGradient id="Ikke-navngivet_forløb-78" x1="1812.66" y1="388.31" x2="2374.93" y2="4446.62" xlink:href="#Ikke-navngivet_forløb"/><linearGradient id="Ikke-navngivet_forløb-79" x1="1676.25" y1="405.24" x2="2238.51" y2="4463.55" xlink:href="#Ikke-navngivet_forløb"/><linearGradient id="Ikke-navngivet_forløb-80" x1="1539.83" y1="422.16" x2="2102.1" y2="4480.48" xlink:href="#Ikke-navngivet_forløb"/><linearGradient id="Ikke-navngivet_forløb-81" x1="1403.42" y1="439.09" x2="1965.68" y2="4497.4" xlink:href="#Ikke-navngivet_forløb"/><linearGradient id="Ikke-navngivet_forløb-82" x1="1267.01" y1="456.02" x2="1829.27" y2="4514.34" xlink:href="#Ikke-navngivet_forløb"/><linearGradient id="Ikke-navngivet_forløb-83" x1="1130.59" y1="472.95" x2="1692.86" y2="4531.26" xlink:href="#Ikke-navngivet_forløb"/><linearGradient id="Ikke-navngivet_forløb-84" x1="994.18" y1="489.88" x2="1556.44" y2="4548.19" xlink:href="#Ikke-navngivet_forløb"/></defs><title>spilbaggrund</title><g id="Lag_1" data-name="Lag 1" class="cls-1"><rect class="cls-2" x="5" y="547.24" width="109.08" height="101"/><path class="cls-3" d="M109.08,552.24v91H10v-91h99.08m10-10H0v111H119.08v-111Z"/><rect class="cls-4" x="834.61" y="547.24" width="109.08" height="101"/><path class="cls-3" d="M938.68,552.24v91H839.61v-91h99.07m10-10H829.61v111H948.68v-111Z"/><rect class="cls-5" x="695.85" y="547.24" width="109.08" height="101"/><path class="cls-3" d="M799.92,552.24v91H700.85v-91h99.07m10-10H690.85v111H809.92v-111Z"/><rect class="cls-6" x="557.09" y="547.24" width="109.08" height="101"/><path class="cls-3" d="M661.16,552.24v91H562.09v-91h99.07m10-10H552.09v111H671.16v-111Z"/><rect class="cls-7" x="418.33" y="547.24" width="109.08" height="101"/><path class="cls-3" d="M522.4,552.24v91H423.33v-91H522.4m10-10H413.33v111H532.4v-111Z"/><rect class="cls-8" x="280.55" y="547.24" width="109.08" height="101"/><path class="cls-3" d="M384.63,552.24v91H285.55v-91h99.08m10-10H275.55v111H394.63v-111Z"/><rect class="cls-9" x="142.78" y="547.24" width="109.08" height="101"/><path class="cls-3" d="M246.85,552.24v91H147.78v-91h99.07m10-10H137.78v111H256.85v-111Z"/><rect class="cls-10" x="1805.92" y="547.24" width="109.08" height="101"/><path class="cls-3" d="M1910,552.24v91h-99.08v-91H1910m10-10H1800.92v111H1920v-111Z"/><rect class="cls-11" x="1667.16" y="547.24" width="109.08" height="101"/><path class="cls-3" d="M1771.24,552.24v91h-99.08v-91h99.08m10-10H1662.16v111h119.08v-111Z"/><rect class="cls-12" x="1528.4" y="547.24" width="109.08" height="101"/><path class="cls-3" d="M1632.48,552.24v91H1533.4v-91h99.08m10-10H1523.4v111h119.08v-111Z"/><rect class="cls-13" x="1389.64" y="547.24" width="109.08" height="101"/><path class="cls-3" d="M1493.72,552.24v91h-99.08v-91h99.08m10-10H1384.64v111h119.08v-111Z"/><rect class="cls-14" x="1250.88" y="547.24" width="109.08" height="101"/><path class="cls-3" d="M1355,552.24v91h-99.08v-91H1355m10-10H1245.88v111H1365v-111Z"/><rect class="cls-15" x="1112.13" y="547.24" width="109.08" height="101"/><path class="cls-3" d="M1216.2,552.24v91h-99.08v-91h99.08m10-10H1107.12v111H1226.2v-111Z"/><rect class="cls-16" x="973.37" y="547.24" width="109.08" height="101"/><path class="cls-3" d="M1077.44,552.24v91H978.36v-91h99.08m10-10H968.36v111h119.08v-111Z"/><rect class="cls-17" x="5" y="5" width="109.08" height="101"/><path class="cls-3" d="M109.08,10v91H10V10h99.08m10-10H0V111H119.08V0Z"/><rect class="cls-18" x="834.61" y="5" width="109.08" height="101"/><path class="cls-3" d="M938.68,10v91H839.61V10h99.07m10-10H829.61V111H948.68V0Z"/><rect class="cls-19" x="695.85" y="5" width="109.08" height="101"/><path class="cls-3" d="M799.92,10v91H700.85V10h99.07m10-10H690.85V111H809.92V0Z"/><rect class="cls-20" x="557.09" y="5" width="109.08" height="101"/><path class="cls-3" d="M661.16,10v91H562.09V10h99.07m10-10H552.09V111H671.16V0Z"/><rect class="cls-21" x="418.33" y="5" width="109.08" height="101"/><path class="cls-3" d="M522.4,10v91H423.33V10H522.4m10-10H413.33V111H532.4V0Z"/><rect class="cls-22" x="280.55" y="5" width="109.08" height="101"/><path class="cls-3" d="M384.63,10v91H285.55V10h99.08m10-10H275.55V111H394.63V0Z"/><rect class="cls-23" x="142.78" y="5" width="109.08" height="101"/><path class="cls-3" d="M246.85,10v91H147.78V10h99.07m10-10H137.78V111H256.85V0Z"/><rect class="cls-24" x="1805.92" y="5" width="109.08" height="101"/><path class="cls-3" d="M1910,10v91h-99.08V10H1910m10-10H1800.92V111H1920V0Z"/><rect class="cls-25" x="1667.16" y="5" width="109.08" height="101"/><path class="cls-3" d="M1771.24,10v91h-99.08V10h99.08m10-10H1662.16V111h119.08V0Z"/><rect class="cls-26" x="1528.4" y="5" width="109.08" height="101"/><path class="cls-3" d="M1632.48,10v91H1533.4V10h99.08m10-10H1523.4V111h119.08V0Z"/><rect class="cls-27" x="1389.64" y="5" width="109.08" height="101"/><path class="cls-3" d="M1493.72,10v91h-99.08V10h99.08m10-10H1384.64V111h119.08V0Z"/><rect class="cls-28" x="1250.88" y="5" width="109.08" height="101"/><path class="cls-3" d="M1355,10v91h-99.08V10H1355m10-10H1245.88V111H1365V0Z"/><rect class="cls-29" x="1112.13" y="5" width="109.08" height="101"/><path class="cls-3" d="M1216.2,10v91h-99.08V10h99.08m10-10H1107.12V111H1226.2V0Z"/><rect class="cls-30" x="973.37" y="5" width="109.08" height="101"/><path class="cls-3" d="M1077.44,10v91H978.36V10h99.08m10-10H968.36V111h119.08V0Z"/><rect class="cls-31" x="5" y="140.56" width="109.08" height="101"/><path class="cls-3" d="M109.08,145.56v91H10v-91h99.08m10-10H0v111H119.08v-111Z"/><rect class="cls-32" x="834.61" y="140.56" width="109.08" height="101"/><path class="cls-3" d="M938.68,145.56v91H839.61v-91h99.07m10-10H829.61v111H948.68v-111Z"/><rect class="cls-33" x="695.85" y="140.56" width="109.08" height="101"/><path class="cls-3" d="M799.92,145.56v91H700.85v-91h99.07m10-10H690.85v111H809.92v-111Z"/><rect class="cls-34" x="557.09" y="140.56" width="109.08" height="101"/><path class="cls-3" d="M661.16,145.56v91H562.09v-91h99.07m10-10H552.09v111H671.16v-111Z"/><rect class="cls-35" x="418.33" y="140.56" width="109.08" height="101"/><path class="cls-3" d="M522.4,145.56v91H423.33v-91H522.4m10-10H413.33v111H532.4v-111Z"/><rect class="cls-36" x="280.55" y="140.56" width="109.08" height="101"/><path class="cls-3" d="M384.63,145.56v91H285.55v-91h99.08m10-10H275.55v111H394.63v-111Z"/><rect class="cls-37" x="142.78" y="140.56" width="109.08" height="101"/><path class="cls-3" d="M246.85,145.56v91H147.78v-91h99.07m10-10H137.78v111H256.85v-111Z"/><rect class="cls-38" x="1805.92" y="140.56" width="109.08" height="101"/><path class="cls-3" d="M1910,145.56v91h-99.08v-91H1910m10-10H1800.92v111H1920v-111Z"/><rect class="cls-39" x="1667.16" y="140.56" width="109.08" height="101"/><path class="cls-3" d="M1771.24,145.56v91h-99.08v-91h99.08m10-10H1662.16v111h119.08v-111Z"/><rect class="cls-40" x="1528.4" y="140.56" width="109.08" height="101"/><path class="cls-3" d="M1632.48,145.56v91H1533.4v-91h99.08m10-10H1523.4v111h119.08v-111Z"/><rect class="cls-41" x="1389.64" y="140.56" width="109.08" height="101"/><path class="cls-3" d="M1493.72,145.56v91h-99.08v-91h99.08m10-10H1384.64v111h119.08v-111Z"/><rect class="cls-42" x="1250.88" y="140.56" width="109.08" height="101"/><path class="cls-3" d="M1355,145.56v91h-99.08v-91H1355m10-10H1245.88v111H1365v-111Z"/><rect class="cls-43" x="1112.13" y="140.56" width="109.08" height="101"/><path class="cls-3" d="M1216.2,145.56v91h-99.08v-91h99.08m10-10H1107.12v111H1226.2v-111Z"/><rect class="cls-44" x="973.37" y="140.56" width="109.08" height="101"/><path class="cls-3" d="M1077.44,145.56v91H978.36v-91h99.08m10-10H968.36v111h119.08v-111Z"/><rect class="cls-45" x="5" y="276.12" width="109.08" height="101"/><path class="cls-3" d="M109.08,281.12v91H10v-91h99.08m10-10H0v111H119.08v-111Z"/><rect class="cls-46" x="834.61" y="276.12" width="109.08" height="101"/><path class="cls-3" d="M938.68,281.12v91H839.61v-91h99.07m10-10H829.61v111H948.68v-111Z"/><rect class="cls-47" x="695.85" y="276.12" width="109.08" height="101"/><path class="cls-3" d="M799.92,281.12v91H700.85v-91h99.07m10-10H690.85v111H809.92v-111Z"/><rect class="cls-48" x="557.09" y="276.12" width="109.08" height="101"/><path class="cls-3" d="M661.16,281.12v91H562.09v-91h99.07m10-10H552.09v111H671.16v-111Z"/><rect class="cls-49" x="418.33" y="276.12" width="109.08" height="101"/><path class="cls-3" d="M522.4,281.12v91H423.33v-91H522.4m10-10H413.33v111H532.4v-111Z"/><rect class="cls-50" x="280.55" y="276.12" width="109.08" height="101"/><path class="cls-3" d="M384.63,281.12v91H285.55v-91h99.08m10-10H275.55v111H394.63v-111Z"/><rect class="cls-51" x="142.78" y="276.12" width="109.08" height="101"/><path class="cls-3" d="M246.85,281.12v91H147.78v-91h99.07m10-10H137.78v111H256.85v-111Z"/><rect class="cls-52" x="1805.92" y="276.12" width="109.08" height="101"/><path class="cls-3" d="M1910,281.12v91h-99.08v-91H1910m10-10H1800.92v111H1920v-111Z"/><rect class="cls-53" x="1667.16" y="276.12" width="109.08" height="101"/><path class="cls-3" d="M1771.24,281.12v91h-99.08v-91h99.08m10-10H1662.16v111h119.08v-111Z"/><rect class="cls-54" x="1528.4" y="276.12" width="109.08" height="101"/><path class="cls-3" d="M1632.48,281.12v91H1533.4v-91h99.08m10-10H1523.4v111h119.08v-111Z"/><rect class="cls-55" x="1389.64" y="276.12" width="109.08" height="101"/><path class="cls-3" d="M1493.72,281.12v91h-99.08v-91h99.08m10-10H1384.64v111h119.08v-111Z"/><rect class="cls-56" x="1250.88" y="276.12" width="109.08" height="101"/><path class="cls-3" d="M1355,281.12v91h-99.08v-91H1355m10-10H1245.88v111H1365v-111Z"/><rect class="cls-57" x="1112.13" y="276.12" width="109.08" height="101"/><path class="cls-3" d="M1216.2,281.12v91h-99.08v-91h99.08m10-10H1107.12v111H1226.2v-111Z"/><rect class="cls-58" x="973.37" y="276.12" width="109.08" height="101"/><path class="cls-3" d="M1077.44,281.12v91H978.36v-91h99.08m10-10H968.36v111h119.08v-111Z"/><rect class="cls-59" x="5" y="411.68" width="109.08" height="101"/><path class="cls-3" d="M109.08,416.68v91H10v-91h99.08m10-10H0v111H119.08v-111Z"/><rect class="cls-60" x="834.61" y="411.68" width="109.08" height="101"/><path class="cls-3" d="M938.68,416.68v91H839.61v-91h99.07m10-10H829.61v111H948.68v-111Z"/><rect class="cls-61" x="695.85" y="411.68" width="109.08" height="101"/><path class="cls-3" d="M799.92,416.68v91H700.85v-91h99.07m10-10H690.85v111H809.92v-111Z"/><rect class="cls-62" x="557.09" y="411.68" width="109.08" height="101"/><path class="cls-3" d="M661.16,416.68v91H562.09v-91h99.07m10-10H552.09v111H671.16v-111Z"/><rect class="cls-63" x="418.33" y="411.68" width="109.08" height="101"/><path class="cls-3" d="M522.4,416.68v91H423.33v-91H522.4m10-10H413.33v111H532.4v-111Z"/><rect class="cls-64" x="280.55" y="411.68" width="109.08" height="101"/><path class="cls-3" d="M384.63,416.68v91H285.55v-91h99.08m10-10H275.55v111H394.63v-111Z"/><rect class="cls-65" x="142.78" y="411.68" width="109.08" height="101"/><path class="cls-3" d="M246.85,416.68v91H147.78v-91h99.07m10-10H137.78v111H256.85v-111Z"/><rect class="cls-66" x="1805.92" y="411.68" width="109.08" height="101"/><path class="cls-3" d="M1910,416.68v91h-99.08v-91H1910m10-10H1800.92v111H1920v-111Z"/><rect class="cls-67" x="1667.16" y="411.68" width="109.08" height="101"/><path class="cls-3" d="M1771.24,416.68v91h-99.08v-91h99.08m10-10H1662.16v111h119.08v-111Z"/><rect class="cls-68" x="1528.4" y="411.68" width="109.08" height="101"/><path class="cls-3" d="M1632.48,416.68v91H1533.4v-91h99.08m10-10H1523.4v111h119.08v-111Z"/><rect class="cls-69" x="1389.64" y="411.68" width="109.08" height="101"/><path class="cls-3" d="M1493.72,416.68v91h-99.08v-91h99.08m10-10H1384.64v111h119.08v-111Z"/><rect class="cls-70" x="1250.88" y="411.68" width="109.08" height="101"/><path class="cls-3" d="M1355,416.68v91h-99.08v-91H1355m10-10H1245.88v111H1365v-111Z"/><rect class="cls-71" x="1112.13" y="411.68" width="109.08" height="101"/><path class="cls-3" d="M1216.2,416.68v91h-99.08v-91h99.08m10-10H1107.12v111H1226.2v-111Z"/><rect class="cls-72" x="973.37" y="411.68" width="109.08" height="101"/><path class="cls-3" d="M1077.44,416.68v91H978.36v-91h99.08m10-10H968.36v111h119.08v-111Z"/><rect class="cls-73" x="5" y="682.8" width="109.08" height="101"/><path class="cls-3" d="M109.08,687.8v91H10v-91h99.08m10-10H0v111H119.08v-111Z"/><rect class="cls-74" x="834.61" y="682.8" width="109.08" height="101"/><path class="cls-3" d="M938.68,687.8v91H839.61v-91h99.07m10-10H829.61v111H948.68v-111Z"/><rect class="cls-75" x="695.85" y="682.8" width="109.08" height="101"/><path class="cls-3" d="M799.92,687.8v91H700.85v-91h99.07m10-10H690.85v111H809.92v-111Z"/><rect class="cls-76" x="557.09" y="682.8" width="109.08" height="101"/><path class="cls-3" d="M661.16,687.8v91H562.09v-91h99.07m10-10H552.09v111H671.16v-111Z"/><rect class="cls-77" x="418.33" y="682.8" width="109.08" height="101"/><path class="cls-3" d="M522.4,687.8v91H423.33v-91H522.4m10-10H413.33v111H532.4v-111Z"/><rect class="cls-78" x="280.55" y="682.8" width="109.08" height="101"/><path class="cls-3" d="M384.63,687.8v91H285.55v-91h99.08m10-10H275.55v111H394.63v-111Z"/><rect class="cls-79" x="142.78" y="682.8" width="109.08" height="101"/><path class="cls-3" d="M246.85,687.8v91H147.78v-91h99.07m10-10H137.78v111H256.85v-111Z"/><rect class="cls-80" x="1805.92" y="682.8" width="109.08" height="101"/><path class="cls-3" d="M1910,687.8v91h-99.08v-91H1910m10-10H1800.92v111H1920v-111Z"/><rect class="cls-81" x="1667.16" y="682.8" width="109.08" height="101"/><path class="cls-3" d="M1771.24,687.8v91h-99.08v-91h99.08m10-10H1662.16v111h119.08v-111Z"/><rect class="cls-82" x="1528.4" y="682.8" width="109.08" height="101"/><path class="cls-3" d="M1632.48,687.8v91H1533.4v-91h99.08m10-10H1523.4v111h119.08v-111Z"/><rect class="cls-83" x="1389.64" y="682.8" width="109.08" height="101"/><path class="cls-3" d="M1493.72,687.8v91h-99.08v-91h99.08m10-10H1384.64v111h119.08v-111Z"/><rect class="cls-84" x="1250.88" y="682.8" width="109.08" height="101"/><path class="cls-3" d="M1355,687.8v91h-99.08v-91H1355m10-10H1245.88v111H1365v-111Z"/><rect class="cls-85" x="1112.13" y="682.8" width="109.08" height="101"/><path class="cls-3" d="M1216.2,687.8v91h-99.08v-91h99.08m10-10H1107.12v111H1226.2v-111Z"/><rect class="cls-86" x="973.37" y="682.8" width="109.08" height="101"/><path class="cls-3" d="M1077.44,687.8v91H978.36v-91h99.08m10-10H968.36v111h119.08v-111Z"/></g><g id="Lag_2" data-name="Lag 2"><line class="cls-87" x1="199.91" y1="529.01" x2="200.76" y2="529.01"/></g></svg>
