<svg xmlns="http://www.w3.org/2000/svg" viewBox="0 0 1920 1080"><defs><style>.cls-1{opacity:0.48;}.cls-2{fill:#fff;stroke:#b3b3b3;}.cls-2,.cls-3,.cls-4{stroke-miterlimit:10;stroke-width:10px;}.cls-3{fill:#006837;}.cls-3,.cls-4{stroke:#006837;}.cls-4{fill:#e6e6e6;}</style></defs><title>titelskaerm_settings</title><g id="Lag_2" data-name="Lag 2"><circle class="cls-2" cx="594" cy="592" r="88"/><circle class="cls-3" cx="594" cy="592" r="50.14"/><rect class="cls-3" x="583.04" y="530.14" width="20.59" height="23.01" rx="3.15"/><rect class="cls-3" x="618.24" y="545.41" width="20.59" height="23.01" rx="3.15" transform="translate(577.89 -281.32) rotate(45)"/><rect class="cls-3" x="632.19" y="580.61" width="20.59" height="23.01" rx="3.15" transform="translate(50.37 1234.6) rotate(-90)"/><rect class="cls-3" x="533.23" y="580.61" width="20.59" height="23.01" rx="3.15" transform="translate(-48.59 1135.64) rotate(-90)"/><rect class="cls-3" x="547.84" y="615.81" width="20.59" height="23.01" rx="3.15" transform="translate(607.05 -210.92) rotate(45)"/><rect class="cls-3" x="583.71" y="630.42" width="20.59" height="23.01" rx="3.15"/><rect class="cls-3" x="549.17" y="544.75" width="20.59" height="23.01" rx="3.15" transform="translate(-229.47 558.52) rotate(-45)"/><rect class="cls-3" x="618.91" y="614.48" width="20.59" height="23.01" rx="3.15" transform="translate(-258.35 628.26) rotate(-45)"/><circle class="cls-4" cx="595" cy="590.34" r="24.57"/><circle class="cls-2" cx="594" cy="592" r="88"/><circle class="cls-3" cx="594" cy="592" r="50.14"/><rect class="cls-3" x="583.04" y="530.14" width="20.59" height="23.01" rx="3.15"/><rect class="cls-3" x="618.24" y="545.41" width="20.59" height="23.01" rx="3.15" transform="translate(577.89 -281.32) rotate(45)"/><rect class="cls-3" x="632.19" y="580.61" width="20.59" height="23.01" rx="3.15" transform="translate(50.37 1234.6) rotate(-90)"/><rect class="cls-3" x="533.23" y="580.61" width="20.59" height="23.01" rx="3.15" transform="translate(-48.59 1135.64) rotate(-90)"/><rect class="cls-3" x="547.84" y="615.81" width="20.59" height="23.01" rx="3.15" transform="translate(607.05 -210.92) rotate(45)"/><rect class="cls-3" x="583.71" y="630.42" width="20.59" height="23.01" rx="3.15"/><rect class="cls-3" x="549.17" y="544.75" width="20.59" height="23.01" rx="3.15" transform="translate(-229.47 558.52) rotate(-45)"/><rect class="cls-3" x="618.91" y="614.48" width="20.59" height="23.01" rx="3.15" transform="translate(-258.35 628.26) rotate(-45)"/><circle class="cls-4" cx="595" cy="590.34" r="24.57"/></g></svg>
