<svg xmlns="http://www.w3.org/2000/svg" xmlns:xlink="http://www.w3.org/1999/xlink" viewBox="0 0 1920 1080"><defs><style>.cls-1{opacity:0.48;}.cls-2{stroke:#b3b3b3;fill:url(#Ikke-navngivet_forløb);}.cls-2,.cls-3,.cls-4{stroke-miterlimit:10;stroke-width:10px;}.cls-3{fill:#009245;stroke:#006837;}.cls-4{fill:#e6e6e6;stroke:#39b54a;}</style><linearGradient id="Ikke-navngivet_forløb" x1="791.12" y1="-274.77" x2="3262.85" y2="17565.76" gradientUnits="userSpaceOnUse"><stop offset="0" stop-color="#fff"/><stop offset="1"/></linearGradient></defs><title>toolbox</title><g id="Lag_3" data-name="Lag 3"><rect class="cls-2" x="5" y="813.37" width="1910" height="261.63" rx="61.34"/><path class="cls-3" d="M1343.12,923.79l-.19,42.35c-.1,22.35-21,40.42-46.77,40.36L607.4,1005c-25.73,0-46.5-18.22-46.4-40.57l.19-42.35c.1-22.35,21-40.42,46.77-40.37l688.76,1.5C1322.45,883.27,1343.22,901.44,1343.12,923.79Z"/><path class="cls-4" d="M630.48,992.41l-31.13-.07c-7.76,0-14-5.49-14-12.23l.34-73.58c0-6.74,6.34-12.18,14.09-12.17l31.13.07c7.75,0,14,5.49,14,12.23l-.34,73.58C644.54,987,638.23,992.42,630.48,992.41Z"/><path class="cls-4" d="M703.78,992.57l-31.13-.07c-7.75,0-14-5.49-14-12.23l.33-73.58c0-6.74,6.34-12.19,14.1-12.17l31.13.07c7.75,0,14,5.49,14,12.23l-.33,73.58C717.85,987.13,711.54,992.58,703.78,992.57Z"/><path class="cls-4" d="M777.09,992.72,746,992.66c-7.75,0-14-5.49-14-12.23l.33-73.58c0-6.74,6.34-12.19,14.09-12.17l31.13.07c7.76,0,14,5.49,14,12.23l-.34,73.58C791.15,987.29,784.84,992.74,777.09,992.72Z"/><path class="cls-4" d="M850.39,992.88l-31.12-.06c-7.76,0-14-5.5-14-12.23l.33-73.58c0-6.74,6.35-12.19,14.1-12.17l31.13.07c7.75,0,14,5.49,14,12.22l-.33,73.59C864.46,987.45,858.15,992.9,850.39,992.88Z"/><path class="cls-4" d="M924.64,993,893.51,993c-7.75,0-14-5.49-14-12.23l.33-73.58c0-6.74,6.34-12.19,14.1-12.17l31.12.07c7.76,0,14,5.49,14,12.23l-.34,73.58C938.7,987.61,932.39,993.06,924.64,993Z"/><path class="cls-4" d="M999.82,993.21l-31.12-.07c-7.76,0-14-5.49-14-12.23l.33-73.58c0-6.74,6.35-12.18,14.1-12.17l31.13.07c7.75,0,14,5.49,14,12.23l-.33,73.58C1013.89,987.78,1007.58,993.22,999.82,993.21Z"/><path class="cls-4" d="M1076,993.37l-31.13-.07c-7.75,0-14-5.49-14-12.22l.33-73.59c0-6.73,6.34-12.18,14.1-12.16l31.12.07c7.76,0,14,5.49,14,12.22l-.33,73.58C1090,987.94,1083.7,993.39,1076,993.37Z"/><path class="cls-4" d="M1152.07,993.54l-31.12-.07c-7.76,0-14-5.49-14-12.23l.33-73.58c0-6.74,6.35-12.18,14.1-12.17l31.13.07c7.75,0,14,5.49,14,12.23l-.33,73.58C1166.14,988.11,1159.83,993.55,1152.07,993.54Z"/><path class="cls-4" d="M1228.2,993.7l-31.13-.07c-7.75,0-14-5.49-14-12.22l.33-73.59c0-6.73,6.34-12.18,14.1-12.16l31.12.06c7.76,0,14,5.5,14,12.23l-.33,73.58C1242.26,988.27,1236,993.72,1228.2,993.7Z"/><path class="cls-4" d="M1306.2,993.87l-31.12-.07c-7.76,0-14-5.49-14-12.22l.33-73.59c0-6.73,6.35-12.18,14.1-12.16l31.13.06c7.75,0,14,5.5,14,12.23l-.33,73.58C1320.27,988.44,1314,993.89,1306.2,993.87Z"/></g></svg>
