<svg xmlns="http://www.w3.org/2000/svg" viewBox="0 0 1920 1080"><defs><style>.cls-1{opacity:0.48;}.cls-2{fill:#e6e6e6;stroke:#006837;stroke-miterlimit:10;stroke-width:10px;}.cls-3{fill:#009245;}.cls-4{fill:#006837;}</style></defs><title>ur</title><g id="Lag_2" data-name="Lag 2"><rect class="cls-2" x="736.18" y="515" width="303.04" height="124" rx="20.26"/><circle class="cls-2" cx="1092.8" cy="574.2" r="102.8"/><circle class="cls-3" cx="1178.39" cy="570.52" r="7.37"/><circle class="cls-3" cx="1155.46" cy="631.95" r="7.37"/><circle class="cls-3" cx="1093.21" cy="658.16" r="7.37"/><circle class="cls-3" cx="1030.14" cy="631.95" r="7.37"/><circle class="cls-3" cx="1006.38" cy="570.52" r="7.37"/><circle class="cls-3" cx="1030.14" cy="515.64" r="7.37"/><circle class="cls-3" cx="1155.46" cy="515.64" r="7.37"/><circle class="cls-4" cx="1092.8" cy="570.93" r="12.7"/><polygon class="cls-3" points="1098.94 497.62 1087.47 497.62 1090.02 555.77 1095.12 555.77 1098.94 497.62"/><polygon class="cls-3" points="1093.21 481.24 1093.21 481.24 1087.47 497.62 1098.94 497.62 1093.21 481.24"/><polygon class="cls-3" points="1123.99 608.54 1131.73 600.08 1106.73 580.7 1103.3 584.46 1123.99 608.54"/><polygon class="cls-3" points="1134.41 610.3 1134.41 610.3 1131.73 600.08 1123.99 608.54 1134.41 610.3"/></g></svg>
