<svg xmlns="http://www.w3.org/2000/svg" viewBox="0 0 1920 1080"><defs><style>.cls-1{opacity:0.48;}.cls-2{fill:#ffb200;}.cls-3{fill:#ffc928;}.cls-4{fill:#fed44e;}.cls-5{font-size:100px;fill:#fff;font-family:Impact;}.cls-6{fill:#fef59b;}.cls-7{fill:#ffe0b2;}.cls-8{fill:#28b6f6;}.cls-9{fill:#50c1f6;}.cls-10{fill:#6e4e3a;}.cls-11{fill:#39b54a;}.cls-12{fill:#01887b;}.cls-13{fill:#24a798;}.cls-14{fill:#662d91;}.cls-15,.cls-21{fill:#fbb03b;}.cls-16{fill:#ccc;}.cls-17{fill:#e6e6e6;}.cls-18{fill:blue;}.cls-19{fill:#ed1c24;}.cls-20{fill:#1b1464;}.cls-21{stroke:#000;stroke-miterlimit:10;}.cls-22{fill:#006837;}.cls-23{fill:#009245;}</style></defs><title>victoryscreen</title><g id="Lag_2" data-name="Lag 2"><rect class="cls-2" y="447" width="1920" height="97"/><rect class="cls-3" y="347" width="1920" height="100"/><rect class="cls-4" width="1919" height="347"/><text class="cls-5" transform="translate(304.13 127.84)">Tillykke Britta! Hav en god ferie!</text><ellipse class="cls-6" cx="959.75" cy="503" rx="248.2" ry="254"/><rect class="cls-7" x="-0.5" y="842" width="1920" height="238.5"/><rect class="cls-8" y="540" width="1920" height="302"/><rect class="cls-9" x="678" y="540" width="282" height="31" rx="8.33"/><rect class="cls-9" x="1000" y="540" width="222" height="32" rx="8.33"/><rect class="cls-9" x="1248" y="541" width="49" height="31" rx="8.33"/><rect class="cls-9" x="598" y="602" width="95" height="31" rx="8.33"/><rect class="cls-9" x="720" y="602" width="480" height="31" rx="8.33"/><rect class="cls-9" x="1231" y="602" width="95" height="31" rx="8.33"/><rect class="cls-9" x="646" y="571" width="554" height="31" rx="8.33"/><rect class="cls-8" x="475" y="571" width="282" height="31" rx="8.33"/><rect class="cls-8" x="789" y="571" width="89" height="29" rx="8.33"/><rect class="cls-8" x="923" y="571" width="126" height="29" rx="8.33"/><rect class="cls-8" x="1178" y="572" width="126" height="29" rx="8.33"/><rect class="cls-9" x="655" y="633" width="617" height="31" rx="8.33"/><rect class="cls-8" x="633" y="633" width="135" height="31" rx="8.33"/><rect class="cls-8" x="811" y="635" width="284" height="29" rx="8.33"/><rect class="cls-8" x="1162" y="633" width="284" height="31" rx="8.33"/><rect class="cls-9" x="678" y="664" width="553" height="31" rx="8.33"/><rect class="cls-9" x="677" y="695" width="553" height="31" rx="8.33"/><rect class="cls-8" x="514" y="695" width="282" height="31" rx="8.33"/><rect class="cls-8" x="1059" y="695" width="282" height="31" rx="8.33"/><rect class="cls-9" x="677" y="726" width="418" height="31" rx="8.33"/><rect class="cls-9" x="1131" y="726" width="95" height="31" rx="8.33"/><rect class="cls-9" x="1002" y="788" width="95" height="31" rx="8.33"/><path class="cls-10" d="M239.42,708.08c0-191.29,87-410.5,107.76-410.5s-30.79,263.68-30.79,455c0,126.31,2.72,205.13-1.41,244.11-2.13,20.05-6.07,29.56-13.13,29.56C281.07,1026.22,239.42,899.37,239.42,708.08Z"/><path class="cls-11" d="M293,1012.82c5,2.35,13.2,12.11,12.52,13.57-.42.89-12.1,2.28-18.51-.71-5-2.35-13.16-12.18-12.48-13.64S287.9,1010.46,293,1012.82Z"/><path class="cls-10" d="M336.06,1013.39l-34.21,12.83Z"/><polyline class="cls-10" points="352.31 1006.55 336.06 1013.39 318.95 924.98 317.22 904.74 301.85 1026.22"/><path class="cls-12" d="M176.49,396.32C114.13,396-15.1,330.51-15,311.13c0-6.36,33-30.9,75.89-52,36.41-18,79.94-33.44,116.44-33.26a137.26,137.26,0,0,1,24.65,2.7c25,4.76,54.68,15.29,82.07,27.5,45.64,20.35,84.82,45.34,84.77,56C368.72,331.21,239.28,396.63,176.49,396.32Z"/><path class="cls-12" d="M528,396.32c-62.36-.31-191.59-65.81-191.49-85.19,0-6.36,33-30.9,75.89-52,36.41-18,79.93-33.44,116.44-33.26a137.26,137.26,0,0,1,24.65,2.7c25,4.76,54.68,15.29,82.07,27.5,45.64,20.35,84.82,45.34,84.77,56C720.21,331.21,590.77,396.63,528,396.32Z"/><path class="cls-10" d="M1680.19,709.51c0-185-84.13-397.1-104.24-397.1s29.78,255.07,29.78,440.12c0,122.18-2.63,198.43,1.37,236.13,2.06,19.4,5.87,28.6,12.7,28.6C1639.9,1017.26,1680.19,894.55,1680.19,709.51Z"/><path class="cls-11" d="M1628.4,1004.3c-4.87,2.27-12.77,11.71-12.11,13.12.4.86,11.7,2.21,17.9-.68,4.88-2.27,12.73-11.78,12.08-13.19S1633.29,1002,1628.4,1004.3Z"/><path class="cls-10" d="M1586.71,1004.85l33.09,12.41Z"/><polyline class="cls-10" points="1570.99 998.23 1586.71 1004.85 1603.25 919.32 1604.93 899.74 1619.8 1017.26"/><path class="cls-12" d="M1741.06,407.92c60.33-.3,185.34-63.66,185.25-82.4,0-6.16-32-29.9-73.42-50.34-35.22-17.36-77.32-32.35-112.64-32.18a133.29,133.29,0,0,0-23.84,2.62c-24.15,4.6-52.9,14.79-79.39,26.6-44.16,19.68-82,43.86-82,54.15C1555.11,344.94,1680.32,408.22,1741.06,407.92Z"/><path class="cls-12" d="M1401.05,407.92c60.32-.3,185.33-63.66,185.24-82.4,0-6.16-32-29.9-73.42-50.34-35.21-17.36-77.32-32.35-112.63-32.18a133.39,133.39,0,0,0-23.85,2.62c-24.15,4.6-52.89,14.79-79.39,26.6-44.15,19.68-82,43.86-82,54.15C1215.09,344.94,1340.31,408.22,1401.05,407.92Z"/><path class="cls-13" d="M1555.87,984.47c8.64,12,38.3,28.61,41.8,26.09,2.12-1.52,0-32.86-11-48.19-8.67-12.06-38.5-28.48-42-26S1547.17,972.35,1555.87,984.47Z"/><path class="cls-13" d="M1604.85,962.13c-8.83,11.9-15.59,45.2-12.13,47.76,2.1,1.56,31.3-10,42.55-25.19,8.84-11.92,15.39-45.34,12-47.89S1613.73,950.16,1604.85,962.13Z"/><path class="cls-13" d="M1628.4,1004.3c-4.87,2.27-12.77,11.71-12.11,13.12.4.86,11.7,2.21,17.9-.68,4.88-2.27,12.73-11.78,12.08-13.19S1633.29,1002,1628.4,1004.3Z"/><path class="cls-13" d="M1434.35,402.76c-31,41.81-54.78,158.85-42.63,167.86,4,3,35.83-7.59,70.49-26.33,29.43-15.92,60.89-37.74,79-62.22a123,123,0,0,0,10.64-17.73c9.53-18.92,17.82-43.71,23.9-67.73,10.14-40,14.13-77.91,7.46-82.87C1571.22,304.82,1465.58,360.66,1434.35,402.76Z"/><path class="cls-13" d="M1653.75,462.61c43,29.39,160.83,48.63,169.37,36.14,2.81-4.1-9-35.51-29-69.42-17-28.8-40.06-59.4-65.22-76.6a123.29,123.29,0,0,0-18.13-10c-19.26-8.79-44.35-16.12-68.59-21.27-40.39-8.59-78.4-11.13-83.09-4.26C1550.61,329.6,1610.47,433,1653.75,462.61Z"/><path class="cls-14" d="M739.19,772.75c0-122.15,119.72-260.7,241.87-260.7s241.88,140.44,241.88,262.58S1104.15,908.28,982,908.28,739.19,894.9,739.19,772.75Z"/><circle class="cls-15" cx="917.53" cy="467.35" r="95.53"/><circle class="cls-16" cx="903.89" cy="387.82" r="28.23"/><circle class="cls-16" cx="989.53" cy="395.35" r="28.23"/><circle class="cls-16" cx="918.01" cy="359.59" r="28.23"/><circle class="cls-16" cx="945.3" cy="371.82" r="28.23"/><circle class="cls-16" cx="1006.47" cy="411.35" r="28.23"/><circle class="cls-16" cx="1017.77" cy="442.41" r="28.23"/><circle class="cls-16" cx="961.3" cy="391.59" r="28.23"/><circle class="cls-16" cx="1006.47" cy="432.06" r="28.23"/><circle class="cls-16" cx="984.83" cy="367.12" r="28.23"/><circle class="cls-16" cx="1049.77" cy="512.05" r="28.23"/><circle class="cls-16" cx="1034.71" cy="489.47" r="28.23"/><circle class="cls-16" cx="1025.3" cy="475.35" r="28.23"/><circle class="cls-16" cx="1017.77" cy="526.17" r="28.23"/><circle class="cls-16" cx="888.83" cy="359.59" r="28.23"/><circle class="cls-16" cx="875.65" cy="377.47" r="28.23"/><ellipse class="cls-17" cx="870.95" cy="439.59" rx="17.88" ry="7.53"/><ellipse class="cls-17" cx="935.89" cy="439.59" rx="17.88" ry="7.53"/><ellipse class="cls-18" cx="933.14" cy="440.37" rx="2.87" ry="5.74" transform="matrix(1, -0.07, 0.07, 1, -27.48, 63.68)"/><polyline class="cls-19" points="845.42 498.05 967.99 493.15 904.06 517.98"/><ellipse class="cls-18" cx="867.26" cy="439.43" rx="2.87" ry="5.74" transform="translate(-27.56 59.26) rotate(-3.85)"/><circle class="cls-20" cx="932.03" cy="596.11" r="11.44"/><circle class="cls-20" cx="932.03" cy="640.23" r="11.44"/><circle class="cls-20" cx="932.03" cy="685.99" r="11.44"/><rect class="cls-14" x="1008.03" y="560.97" width="235.34" height="42.49" rx="10.59" transform="translate(-133.39 437.72) rotate(-20.8)"/><rect class="cls-14" x="682.8" y="547.9" width="235.34" height="42.49" rx="10.59" transform="translate(208.19 -214.36) rotate(17.5)"/><path class="cls-21" d="M890.36,455.56c-7.67,0-13.89,3.29-13.89,7.35s6.22,7.36,13.89,7.36"/><rect class="cls-15" x="836.97" y="900.29" width="60.47" height="123.73" rx="1.08" transform="matrix(0.99, 0.13, -0.13, 0.99, 136.9, -107.63)"/><rect class="cls-15" x="1020.01" y="905.19" width="60.47" height="123.73" rx="0.39" transform="translate(-62.6 72.74) rotate(-3.85)"/><rect class="cls-14" x="1023.55" y="1017.75" width="140.55" height="21.25"/><path class="cls-14" d="M1067.85,1019.32a48.21,48.21,0,0,1,96.42.95"/><rect class="cls-14" x="750.63" y="1012.85" width="140.55" height="21.25" transform="translate(1641.8 2046.95) rotate(-180)"/><path class="cls-14" d="M846.88,1014.42a48.21,48.21,0,1,0-96.42,1"/><ellipse class="cls-15" cx="671.33" cy="524.75" rx="31.29" ry="31.77"/><ellipse class="cls-15" cx="1249.52" cy="535.07" rx="31.29" ry="31.77"/><path class="cls-22" d="M1289.76,425.36a28,28,0,0,0,2.21-3.53"/><path class="cls-23" d="M692.76,504.89c.08-.18.15-.37.24-.55s.16-.32.25-.48l1.36-2.88c-.66-.76-1.25-1.58-1.89-2.36a16.17,16.17,0,0,1-1.54-1.86,63.32,63.32,0,0,0-25.56-17.3c-1-.36-1.41-.5-2.48-.88a135.46,135.46,0,0,1-31.68-16.68,9.6,9.6,0,0,1-1.29-.9l-.4-.28a24.55,24.55,0,0,1-2.11-1.52l-.76-.56a8.21,8.21,0,0,1-.78,1.57l-10.29,21.46a.4.4,0,0,1-.07.22l-.21.36-2.78,5.8c.84,1,1.74,2.1,2.7,3.16l.19.18c.44.44.85.9,1.26,1.37,6,6.24,14.29,12.28,25.33,14.66,2.31.5,3.39.55,5.73,1,7.72,1.57,17.61,5.47,28.46,15.24l.08.06c1.05,1,2.12,2,3.19,3,.64.55,1.31,1.07,2,1.59Z"/><path class="cls-22" d="M680.88,526.76l12.22-26.08a63.26,63.26,0,0,0-28.24-20.8c-.94-.35-1.36-.48-2.4-.86-8.73-3.16-20.69-8.75-35.22-19.42l-13.3,27.91c6,7.38,15.27,15.8,28.66,18.8,2.23.5,3.28.56,5.55,1,8.34,1.77,19.32,6.32,31.39,18.38"/><path class="cls-23" d="M680.27,525.23l11.26-24.3a63.47,63.47,0,0,0-27.38-20c-.91-.35-1.31-.48-2.32-.86-8.41-3.11-20-8.56-34.05-18.82l-12.27,26c5.9,7,14.89,15.09,27.76,18.13,2.15.51,3.15.58,5.33,1.07,8,1.8,18.61,6.27,30.36,17.8"/><rect class="cls-22" x="649.23" y="483.64" width="11.25" height="16.2" rx="5.63" transform="translate(229.43 -208.02) rotate(21.8)"/><rect class="cls-11" x="633.4" y="481.44" width="11.25" height="8.01" rx="4.01" transform="translate(225.96 -202.59) rotate(21.8)"/><rect class="cls-11" x="665.3" y="494.18" width="11.25" height="8.01" rx="4.01" transform="translate(232.97 -213.52) rotate(21.8)"/><path class="cls-22" d="M675.83,523.23v0a.41.41,0,0,1,.19.16,1.19,1.19,0,0,0,.38.25.43.43,0,0,1,.19.25l.19.18a1.26,1.26,0,0,1,.2.2.41.41,0,0,1,.21.18v0h0l.06.06,0,0,0,0,.06,0,.07.06c.72.62,1.33,1.36,2.07,1.95l0,0,.07,0c.67.57,1.36,1.11,2.05,1.65a.64.64,0,0,1,.06-.16,8,8,0,0,0,.6-1.25.57.57,0,0,1,.12-.18.32.32,0,0,1,0-.09.39.39,0,0,1,.07-.27,3.7,3.7,0,0,0,.31-.55.48.48,0,0,1,.05-.14c0-.09.09-.19.14-.28a.38.38,0,0,1,.1-.12h0a.34.34,0,0,1,0-.14h0v0l0,0a.52.52,0,0,1,.14-.31.26.26,0,0,1,0-.09.45.45,0,0,1,.07-.18,11.07,11.07,0,0,0,.8-1.75.56.56,0,0,1,0-.08.42.42,0,0,1,.08-.18l0,0,.12-.21v0a1.66,1.66,0,0,1,.12-.31.3.3,0,0,1,.05-.15l.11-.22.12-.26c0-.09.07-.18.12-.27a5.5,5.5,0,0,0-10,1.5,1.86,1.86,0,0,1,.29.27l.1.09A4,4,0,0,1,675.83,523.23Z"/><path class="cls-22" d="M612.62,488.05a5.92,5.92,0,0,1,1.33,1.53,15.39,15.39,0,0,0,1.71,1.81,40.59,40.59,0,0,0,3.47,3.59,9.33,9.33,0,0,0,.72-1,8.29,8.29,0,0,0-2.9-11.35,9.59,9.59,0,0,0-1.25-.61c-1.15,2-2.13,4-3.09,6.05Z"/><path class="cls-22" d="M633.29,463.1a15,15,0,0,1-2.6-1.72h0a23.76,23.76,0,0,1-3.74-2.84,10.1,10.1,0,0,1-1.15,2.24v0a1.17,1.17,0,0,0,0,.11,23.23,23.23,0,0,0-2.12,4.08.4.4,0,0,1,0,.15l-.14.41a7,7,0,0,0,1.53,1.21,7.2,7.2,0,0,0,9.87-2.51C634.3,463.9,633.79,463.5,633.29,463.1Z"/><path class="cls-22" d="M693.33,503.46c.41-.83.83-1.67,1.27-2.49-.87-1-1.65-2.07-2.48-3.08a21.79,21.79,0,0,1-2-2.34,6.4,6.4,0,0,0-1.53,1.77A6.63,6.63,0,0,0,691,506.4a6.43,6.43,0,0,0,.79.39c.3-.51.46-1.12.74-1.65S693.05,504,693.33,503.46Z"/><path class="cls-23" d="M675.71,506.52a5.85,5.85,0,0,1,0-.6c0-.18,0-.36.07-.53l.31-3.18c-.88-.49-1.72-1.07-2.57-1.58a15.37,15.37,0,0,1-2.08-1.23,63.26,63.26,0,0,0-29.91-7.66c-1,0-1.49,0-2.63,0a135.23,135.23,0,0,1-35.45-5,8.74,8.74,0,0,1-1.52-.41l-.47-.13a23.82,23.82,0,0,1-2.5-.72l-.9-.27a8.54,8.54,0,0,1-.21,1.75l-2.43,23.67a.54.54,0,0,1,0,.22c0,.14-.05.28-.08.41l-.66,6.4c1.14.7,2.35,1.39,3.61,2.07l.24.11c.56.26,1.11.56,1.65.86,7.78,3.84,17.59,6.73,28.79,5.25,2.34-.31,3.38-.63,5.75-1,7.79-1.12,18.41-.79,31.92,4.74l.1,0c1.32.54,2.66,1.13,4,1.77.79.3,1.6.56,2.4.83Z"/><path class="cls-22" d="M671.91,531.11l2.69-28.68a63.22,63.22,0,0,0-33.59-10c-1,0-1.45,0-2.56,0-9.29,0-22.43-1.25-39.71-6.39l-3.09,30.77c8.17,4.91,19.71,9.71,33.32,8,2.28-.28,3.28-.58,5.58-.9,8.44-1.15,20.32-.57,35.75,6.71"/><path class="cls-23" d="M670.82,529.88l2.4-26.68a63.58,63.58,0,0,0-32.53-9.58c-1,0-1.4,0-2.48,0-9-.09-21.67-1.32-38.4-6.22L597,516c7.94,4.62,19.12,9.18,32.26,7.69,2.19-.25,3.16-.52,5.38-.79,8.15-1,19.63-.39,34.59,6.49"/><rect class="cls-22" x="629.97" y="498.84" width="11.25" height="16.2" rx="5.63" transform="translate(18.65 -22.54) rotate(2.06)"/><rect class="cls-11" x="612.94" y="502.35" width="11.25" height="8.01" rx="4.01" transform="translate(18.62 -21.93) rotate(2.06)"/><rect class="cls-11" x="647.26" y="503.57" width="11.25" height="8.01" rx="4.01" transform="translate(18.68 -23.16) rotate(2.06)"/><path class="cls-22" d="M666,529.5h0a.46.46,0,0,1,.24.08,1.31,1.31,0,0,0,.44.12.42.42,0,0,1,.26.16l.24.11.26.11a.54.54,0,0,1,.26.11h0l.07,0,.05,0h.06l.07,0,.09,0c.88.34,1.7.83,2.6,1.13l0,0a.38.38,0,0,1,.1,0c.82.31,1.65.58,2.48.86a.48.48,0,0,1,0-.17,7.2,7.2,0,0,0,.15-1.38.46.46,0,0,1,0-.21v-.1a.48.48,0,0,1,0-.27,4.44,4.44,0,0,0,.1-.62v-.15c0-.11,0-.21,0-.32a.58.58,0,0,1,0-.14h0a.24.24,0,0,1,0-.15h0v-.05a.5.5,0,0,1,0-.34.3.3,0,0,1,0-.1.41.41,0,0,1,0-.19,12.33,12.33,0,0,0,.16-1.92.25.25,0,0,1,0-.09.44.44,0,0,1,0-.2s0,0,0-.05l.05-.24v0c0-.11,0-.22,0-.33a.43.43,0,0,1,0-.16,2,2,0,0,0,0-.24,2.64,2.64,0,0,1,0-.29,2.71,2.71,0,0,1,0-.29,5.42,5.42,0,0,0-2.43-1.14,5.48,5.48,0,0,0-6.43,4.35,5.69,5.69,0,0,0-.07,1.59,1.44,1.44,0,0,1,.36.15l.13.06A2.39,2.39,0,0,1,666,529.5Z"/><path class="cls-22" d="M594.59,517.73a5.63,5.63,0,0,1,1.77,1,16,16,0,0,0,2.22,1.13,44.24,44.24,0,0,0,4.48,2.2,7.86,7.86,0,0,0,.33-1.2,8.24,8.24,0,0,0-7.95-9.85c-.41,2.22-.65,4.47-.86,6.73Z"/><path class="cls-22" d="M605.62,487.26a15.75,15.75,0,0,1-3-.73h0a24,24,0,0,1-4.48-1.41,9.58,9.58,0,0,1-.32,2.5v0a.49.49,0,0,1,0,.12,23.49,23.49,0,0,0-.62,4.56.4.4,0,0,1,0,.15c0,.15,0,.29,0,.43a7.09,7.09,0,0,0,1.85.63,7.21,7.21,0,0,0,8.44-5.7A17.12,17.12,0,0,1,605.62,487.26Z"/><path class="cls-22" d="M675.76,505c.11-.93.22-1.85.35-2.78-1.15-.63-2.24-1.39-3.37-2.06a19.81,19.81,0,0,1-2.62-1.55,6.84,6.84,0,0,0-.85,2.19,6.62,6.62,0,0,0,5.25,7.76,6.47,6.47,0,0,0,.87.11c.11-.59.06-1.21.14-1.8S675.69,505.6,675.76,505Z"/><path class="cls-23" d="M675.78,512.53c0-.2-.08-.4-.1-.59l-.06-.54-.47-3.15c-1-.27-1.92-.63-2.88-.92a15.35,15.35,0,0,1-2.31-.69,63.35,63.35,0,0,0-30.87-.22c-1,.24-1.44.37-2.55.65a135.16,135.16,0,0,1-35.61,3.7,9.27,9.27,0,0,1-1.58,0l-.48,0a25,25,0,0,1-2.6-.09l-.95,0a8.56,8.56,0,0,1,.23,1.74l3.34,23.56a.48.48,0,0,1,.07.22c0,.14,0,.27,0,.41l.91,6.37c1.27.4,2.61.79,4,1.14l.26,0c.61.12,1.21.28,1.81.44,8.47,1.85,18.69,2.29,29.2-1.85,2.2-.87,3.13-1.43,5.34-2.33,7.3-3,17.68-5.22,32.13-3.11h.1c1.41.21,2.86.46,4.34.75.84.11,1.69.17,2.53.23Z"/><path class="cls-22" d="M678,537.31l-4.31-28.48a63.23,63.23,0,0,0-35-1.63c-1,.23-1.41.35-2.49.61-9,2.22-22.06,4.21-40.07,3.39l4.42,30.6c9.12,2.79,21.47,4.67,34.27-.26,2.14-.83,3-1.36,5.2-2.22,7.92-3.15,19.59-5.45,36.31-2.11"/><path class="cls-23" d="M676.67,536.38l-4.11-26.47a63.55,63.55,0,0,0-33.88-1.45l-2.4.58c-8.73,2.08-21.36,3.95-38.77,3.23l4.21,28.44c8.81,2.58,20.76,4.3,33.16-.31,2.07-.77,2.94-1.27,5-2.07,7.67-3,19-5.12,35.14-2"/><rect class="cls-22" x="631.33" y="514.52" width="11.25" height="16.2" rx="5.63" transform="translate(-94.07 142.56) rotate(-11.9)"/><rect class="cls-11" x="614.66" y="522.15" width="11.25" height="8.01" rx="4.01" transform="translate(-95.16 139.2) rotate(-11.9)"/><rect class="cls-11" x="648.27" y="515.06" width="11.25" height="8.01" rx="4.01" transform="translate(-92.97 145.98) rotate(-11.9)"/><path class="cls-22" d="M671.87,537.18h0a.54.54,0,0,1,.25,0,1.14,1.14,0,0,0,.45,0,.39.39,0,0,1,.3.1l.26,0,.28,0a.53.53,0,0,1,.27,0h0l.07,0h.29c.94.11,1.85.39,2.79.47H677c.87.11,1.74.17,2.62.24a.33.33,0,0,1,0-.17,8.2,8.2,0,0,0-.2-1.38.38.38,0,0,1,0-.21l0-.09a.45.45,0,0,1-.08-.26,4.34,4.34,0,0,0,0-.63.57.57,0,0,1,0-.14c0-.11,0-.22,0-.32a.39.39,0,0,1,0-.15h0a.22.22,0,0,1,0-.14h0v-.07a.45.45,0,0,1,0-.34.34.34,0,0,1,0-.1.53.53,0,0,1,0-.19,11.37,11.37,0,0,0-.3-1.9.28.28,0,0,1,0-.09.34.34,0,0,1,0-.2.11.11,0,0,0,0-.05v-.26c0-.11-.05-.21-.07-.32a.75.75,0,0,1,0-.16,1.94,1.94,0,0,0,0-.24c0-.1,0-.19,0-.29a2.74,2.74,0,0,1,0-.28,5.49,5.49,0,0,0-7.83,5.25,5.69,5.69,0,0,0,.31,1.56,1.59,1.59,0,0,1,.39.07l.14,0A2.91,2.91,0,0,1,671.87,537.18Z"/><path class="cls-22" d="M599.76,543a5.91,5.91,0,0,1,2,.54,15.28,15.28,0,0,0,2.43.55,42.89,42.89,0,0,0,4.88,1.07,7.54,7.54,0,0,0,0-1.26,8.28,8.28,0,0,0-8.7-7.83,8.66,8.66,0,0,0-1.38.19c.13,2.26.45,4.5.79,6.74Z"/><path class="cls-22" d="M603.12,510.75a14.79,14.79,0,0,1-3.12,0h0a23.7,23.7,0,0,1-4.69-.29,9.6,9.6,0,0,1,.29,2.5v0a.36.36,0,0,1,0,.11,23.44,23.44,0,0,0,.5,4.58.61.61,0,0,1,.07.14c0,.14.07.28.11.42a7.75,7.75,0,0,0,1.94.16,7.22,7.22,0,0,0,6.82-7.57A17.69,17.69,0,0,1,603.12,510.75Z"/><path class="cls-22" d="M675.46,511c-.12-.93-.23-1.86-.33-2.78-1.27-.34-2.51-.81-3.77-1.2a19.1,19.1,0,0,1-2.92-.86,6.63,6.63,0,0,0,6.67,8.59,6.4,6.4,0,0,0,.88-.1c0-.6-.24-1.19-.31-1.79S675.54,511.65,675.46,511Z"/><text/><path class="cls-23" d="M679.8,529.11a5.63,5.63,0,0,1-.14-.59l-.09-.52-.63-3.13c-1-.22-1.94-.52-2.92-.77a14.52,14.52,0,0,1-2.34-.57,63.34,63.34,0,0,0-30.84,1.37c-1,.29-1.42.44-2.52.78A135.1,135.1,0,0,1,605,531.2a8.33,8.33,0,0,1-1.58,0h-.48a22.59,22.59,0,0,1-2.6,0h-.95a8.38,8.38,0,0,1,.32,1.73l4.55,23.36a.4.4,0,0,1,.08.21c0,.14,0,.27,0,.41l1.23,6.31c1.3.34,2.65.65,4.06.93l.26,0c.61.08,1.22.21,1.83.34,8.56,1.41,18.79,1.32,29.07-3.35,2.15-1,3.05-1.59,5.21-2.6,7.14-3.35,17.39-6.12,31.93-4.76h.1c1.42.14,2.88.31,4.37.53.85,0,1.7.07,2.54.1Z"/><path class="cls-22" d="M683.31,553.75l-5.76-28.22a63.21,63.21,0,0,0-35.06.16c-1,.28-1.39.43-2.45.75-8.89,2.67-21.82,5.33-39.84,5.44l6,30.33c9.25,2.32,21.68,3.56,34.21-2,2.1-.94,3-1.51,5.08-2.48,7.75-3.56,19.28-6.46,36.16-4"/><path class="cls-23" d="M681.91,552.89l-5.46-26.22a63.45,63.45,0,0,0-33.91.29c-.93.26-1.34.4-2.37.7-8.61,2.52-21.13,5-38.56,5.21l5.67,28.19c8.94,2.12,21,3.23,33.1-2,2-.88,2.87-1.42,4.91-2.33,7.51-3.34,18.68-6.08,35-3.84"/><rect class="cls-22" x="635.91" y="533.08" width="11.25" height="16.2" rx="5.63" transform="translate(-117.24 182.43) rotate(-14.85)"/><rect class="cls-11" x="619.45" y="541.57" width="11.25" height="8.01" rx="4.01" transform="translate(-118.92 178.36) rotate(-14.85)"/><rect class="cls-11" x="652.65" y="532.76" width="11.25" height="8.01" rx="4.01" transform="translate(-115.55 186.57) rotate(-14.85)"/><path class="cls-22" d="M677.16,553.93h0a.43.43,0,0,1,.25,0,1.14,1.14,0,0,0,.45,0,.39.39,0,0,1,.3.09l.26,0a1.33,1.33,0,0,1,.28,0,.45.45,0,0,1,.28,0h.4c.94.07,1.87.31,2.82.33h.14c.87.07,1.75.08,2.63.11a.34.34,0,0,1,0-.17,7,7,0,0,0-.27-1.36.51.51,0,0,1,0-.21l0-.1a.4.4,0,0,1-.1-.25,4.52,4.52,0,0,0-.08-.63.58.58,0,0,1-.05-.14c0-.1,0-.21,0-.31a.26.26,0,0,1,0-.15h0a.32.32,0,0,1,0-.14h0V551a.5.5,0,0,1-.07-.34.3.3,0,0,1,0-.1.48.48,0,0,1,0-.18,10.86,10.86,0,0,0-.41-1.88s0-.07,0-.1a.41.41,0,0,1,0-.19.09.09,0,0,0,0,0l0-.24v0c0-.11-.06-.21-.09-.32a.38.38,0,0,1,0-.16c0-.08,0-.16,0-.24l-.06-.28a1.43,1.43,0,0,1-.07-.28,5.4,5.4,0,0,0-2.66-.38,5.48,5.48,0,0,0-4.89,6,5.62,5.62,0,0,0,.39,1.54,1.75,1.75,0,0,1,.4,0h.13A2.83,2.83,0,0,1,677.16,553.93Z"/><path class="cls-22" d="M605.44,563.43a5.64,5.64,0,0,1,2,.44,17.11,17.11,0,0,0,2.46.43,45.23,45.23,0,0,0,4.93.81,10.68,10.68,0,0,0,0-1.26,8.28,8.28,0,0,0-9.1-7.37,8.73,8.73,0,0,0-1.37.26c.25,2.25.68,4.48,1.14,6.69Z"/><path class="cls-22" d="M607.14,531.07a15.47,15.47,0,0,1-3.11.18h0a23.8,23.8,0,0,1-4.7,0,10,10,0,0,1,.42,2.48v0a.5.5,0,0,1,0,.12,23.25,23.25,0,0,0,.74,4.54.61.61,0,0,1,.07.14c0,.14.08.27.13.41a7.44,7.44,0,0,0,1.95.06,7.21,7.21,0,0,0,6.42-7.91A17.75,17.75,0,0,1,607.14,531.07Z"/><path class="cls-22" d="M679.4,527.63c-.17-.92-.33-1.84-.47-2.76-1.29-.27-2.55-.68-3.83-1a20.55,20.55,0,0,1-3-.71,6.74,6.74,0,0,0-.17,2.34,6.63,6.63,0,0,0,7.28,5.9,8.13,8.13,0,0,0,.86-.15c-.06-.6-.3-1.18-.39-1.77S679.51,528.24,679.4,527.63Z"/><path class="cls-23" d="M686.76,521.89c.08-.18.15-.37.24-.55s.16-.32.25-.48l1.36-2.88c-.66-.76-1.25-1.58-1.89-2.36a16.17,16.17,0,0,1-1.54-1.86,63.32,63.32,0,0,0-25.56-17.3c-1-.36-1.41-.5-2.48-.88a135.46,135.46,0,0,1-31.68-16.68,9.6,9.6,0,0,1-1.29-.9l-.4-.28a24.55,24.55,0,0,1-2.11-1.52l-.76-.56a8.21,8.21,0,0,1-.78,1.57l-10.29,21.46a.4.4,0,0,1-.07.22l-.21.36-2.78,5.8c.84,1,1.74,2.1,2.7,3.16l.19.18c.44.44.85.9,1.26,1.37,6,6.24,14.29,12.28,25.33,14.66,2.31.5,3.39.55,5.73,1,7.72,1.57,17.61,5.47,28.46,15.24l.08.06c1.05,1,2.12,2,3.19,3,.64.55,1.31,1.07,2,1.59Z"/><path class="cls-22" d="M674.88,543.76l12.22-26.08a63.26,63.26,0,0,0-28.24-20.8c-.94-.35-1.36-.48-2.4-.86-8.73-3.16-20.69-8.75-35.22-19.42l-13.3,27.91c6,7.38,15.27,15.8,28.66,18.8,2.23.5,3.28.56,5.55,1,8.34,1.77,19.32,6.32,31.39,18.38"/><path class="cls-23" d="M674.27,542.23l11.26-24.3a63.47,63.47,0,0,0-27.38-20c-.91-.35-1.31-.48-2.32-.86-8.41-3.11-20-8.56-34.05-18.82l-12.27,26c5.9,7,14.89,15.09,27.76,18.13,2.15.51,3.15.58,5.33,1.07,8,1.8,18.61,6.27,30.36,17.8"/><rect class="cls-22" x="643.23" y="500.64" width="11.25" height="16.2" rx="5.63" transform="translate(235.31 -204.57) rotate(21.8)"/><rect class="cls-11" x="627.4" y="498.44" width="11.25" height="8.01" rx="4.01" transform="translate(231.84 -199.14) rotate(21.8)"/><rect class="cls-11" x="659.3" y="511.18" width="11.25" height="8.01" rx="4.01" transform="translate(238.85 -210.08) rotate(21.8)"/><path class="cls-22" d="M669.83,540.23v0a.41.41,0,0,1,.19.16,1.19,1.19,0,0,0,.38.25.43.43,0,0,1,.19.25l.19.18a1.26,1.26,0,0,1,.2.2.41.41,0,0,1,.21.18v0h0l.06.06,0,0,0,0,.06,0,.07.06c.72.62,1.33,1.36,2.07,1.95l0,0,.07,0c.67.57,1.36,1.11,2.05,1.65a.64.64,0,0,1,.06-.16,8,8,0,0,0,.6-1.25.57.57,0,0,1,.12-.18.32.32,0,0,1,0-.09.39.39,0,0,1,.07-.27,3.7,3.7,0,0,0,.31-.55.48.48,0,0,1,.05-.14c0-.09.09-.19.14-.28a.38.38,0,0,1,.1-.12h0a.34.34,0,0,1,0-.14h0v0l0,0a.52.52,0,0,1,.14-.31.26.26,0,0,1,0-.09.45.45,0,0,1,.07-.18,11.07,11.07,0,0,0,.8-1.75.56.56,0,0,1,0-.08.42.42,0,0,1,.08-.18l0,0,.12-.21v0a1.66,1.66,0,0,1,.12-.31.3.3,0,0,1,.05-.15l.11-.22.12-.26c0-.09.07-.18.12-.27a5.5,5.5,0,0,0-10,1.5,1.86,1.86,0,0,1,.29.27l.1.09A4,4,0,0,1,669.83,540.23Z"/><path class="cls-22" d="M606.62,505.05a5.92,5.92,0,0,1,1.33,1.53,15.39,15.39,0,0,0,1.71,1.81,40.59,40.59,0,0,0,3.47,3.59,9.33,9.33,0,0,0,.72-1,8.29,8.29,0,0,0-2.9-11.35,9.59,9.59,0,0,0-1.25-.61c-1.15,2-2.13,4-3.09,6.05Z"/><path class="cls-22" d="M627.29,480.1a15,15,0,0,1-2.6-1.72h0a23.76,23.76,0,0,1-3.74-2.84,10.1,10.1,0,0,1-1.15,2.24v0a1.17,1.17,0,0,0,0,.11,23.23,23.23,0,0,0-2.12,4.08.4.4,0,0,1,0,.15l-.14.41a7,7,0,0,0,1.53,1.21,7.2,7.2,0,0,0,9.87-2.51C628.3,480.9,627.79,480.5,627.29,480.1Z"/><path class="cls-22" d="M687.33,520.46c.41-.83.83-1.67,1.27-2.49-.87-1-1.65-2.07-2.48-3.08a21.79,21.79,0,0,1-2-2.34,6.4,6.4,0,0,0-1.53,1.77A6.63,6.63,0,0,0,685,523.4a6.43,6.43,0,0,0,.79.39c.3-.51.46-1.12.74-1.65S687.05,521,687.33,520.46Z"/><path class="cls-23" d="M679.82,529.56c0-.2-.06-.4-.07-.6s0-.35,0-.53l-.27-3.18c-1-.33-1.88-.74-2.82-1.1a15.31,15.31,0,0,1-2.26-.83,63.29,63.29,0,0,0-30.79-2.17c-1,.18-1.47.28-2.59.49a135.62,135.62,0,0,1-35.78,1.44,9.32,9.32,0,0,1-1.57-.13l-.47-.05a25.13,25.13,0,0,1-2.6-.25l-.94-.1a7.93,7.93,0,0,1,.12,1.75L601.61,548a.46.46,0,0,1,0,.21v.42l.5,6.41c1.25.48,2.56.95,3.92,1.39l.25.06c.61.16,1.2.36,1.79.56,8.34,2.37,18.51,3.46,29.26,0,2.25-.73,3.21-1.23,5.48-2,7.46-2.51,18-4.09,32.26-1.08a.38.38,0,0,1,.1,0c1.39.29,2.82.63,4.28,1,.83.15,1.67.27,2.51.39Z"/><path class="cls-22" d="M680.5,554.44l-2.5-28.7a63.29,63.29,0,0,0-34.85-3.84c-1,.17-1.43.26-2.52.46-9.14,1.64-22.29,2.8-40.2.85L602.9,554c8.92,3.36,21.14,6,34.22,1.9,2.19-.69,3.12-1.16,5.32-1.88,8.11-2.65,19.9-4.21,36.38.18"/><path class="cls-23" d="M679.2,553.42l-2.43-26.67a63.53,63.53,0,0,0-33.72-3.59l-2.43.43c-8.84,1.52-21.57,2.59-38.9.77L604.13,553c8.63,3.13,20.45,5.6,33.11,1.78,2.11-.64,3-1.08,5.15-1.75,7.84-2.46,19.24-3.9,35.19.18"/><rect class="cls-22" x="634.81" y="529.08" width="11.25" height="16.2" rx="5.63" transform="translate(-70.68 97.83) rotate(-8.28)"/><rect class="cls-11" x="617.95" y="535.66" width="11.25" height="8.01" rx="4.01" transform="translate(-71.22 95.43) rotate(-8.28)"/><rect class="cls-11" x="651.94" y="530.69" width="11.25" height="8.01" rx="4.01" transform="matrix(0.99, -0.14, 0.14, 0.99, -70.15, 100.27)"/><path class="cls-22" d="M674.36,553.92h0a.41.41,0,0,1,.24,0,1.19,1.19,0,0,0,.46,0,.43.43,0,0,1,.29.12l.25.06a1.64,1.64,0,0,1,.28.07.52.52,0,0,1,.27,0h0l.08,0h.28c.93.18,1.83.52,2.76.65h.15c.86.16,1.73.28,2.6.4a.43.43,0,0,1,0-.17,8,8,0,0,0-.11-1.38.48.48,0,0,1,0-.21.44.44,0,0,1,0-.1.39.39,0,0,1-.07-.27,4.26,4.26,0,0,0,0-.62.4.4,0,0,1,0-.15c0-.11,0-.21,0-.32a.32.32,0,0,1,0-.14h0a.24.24,0,0,1,0-.14h0v-.07a.5.5,0,0,1,0-.34v-.1a.4.4,0,0,1,0-.19,12.24,12.24,0,0,0-.19-1.91v-.1a.44.44,0,0,1,0-.2v-.31a1.92,1.92,0,0,1,0-.32.47.47,0,0,1,0-.17c0-.08,0-.16,0-.24l0-.29a2.54,2.54,0,0,1,0-.29,5.49,5.49,0,0,0-8.14,4.76,5.46,5.46,0,0,0,.21,1.57,1.7,1.7,0,0,1,.39.09l.13,0A2.83,2.83,0,0,1,674.36,553.92Z"/><path class="cls-22" d="M602,555.16a5.74,5.74,0,0,1,1.92.65,15.47,15.47,0,0,0,2.38.71,43.08,43.08,0,0,0,4.81,1.37,8.54,8.54,0,0,0,.11-1.25,8.28,8.28,0,0,0-8.2-8.36,8,8,0,0,0-1.39.1c0,2.26.16,4.52.36,6.78Z"/><path class="cls-22" d="M607.41,523.2a14.73,14.73,0,0,1-3.11-.18h0a24.15,24.15,0,0,1-4.66-.58,9.6,9.6,0,0,1,.13,2.51v0a.41.41,0,0,1,0,.12,23.47,23.47,0,0,0,.21,4.59.39.39,0,0,1,.06.15c0,.14.05.28.08.42a6.82,6.82,0,0,0,1.93.28,7.22,7.22,0,0,0,7.29-7.12A17.81,17.81,0,0,1,607.41,523.2Z"/><path class="cls-22" d="M679.6,528c-.07-.93-.12-1.86-.16-2.79-1.24-.42-2.46-1-3.68-1.43a19.19,19.19,0,0,1-2.86-1.05,6.63,6.63,0,0,0,6.11,9,8.49,8.49,0,0,0,.88,0c0-.6-.16-1.2-.19-1.8S679.64,528.67,679.6,528Z"/><path class="cls-23" d="M646.76,680.89c.08-.18.15-.37.24-.55s.16-.32.25-.48l1.36-2.88c-.66-.76-1.25-1.58-1.89-2.36a16.17,16.17,0,0,1-1.54-1.86,63.32,63.32,0,0,0-25.56-17.3c-1-.36-1.41-.5-2.48-.88a135.46,135.46,0,0,1-31.68-16.68,9.6,9.6,0,0,1-1.29-.9l-.4-.28a24.55,24.55,0,0,1-2.11-1.52l-.76-.56a8.21,8.21,0,0,1-.78,1.57l-10.29,21.46a.4.4,0,0,1-.07.22l-.21.36-2.78,5.8c.84,1,1.74,2.1,2.7,3.16l.19.18c.44.44.85.9,1.26,1.37,6,6.24,14.29,12.28,25.33,14.66,2.31.5,3.39.55,5.73,1,7.72,1.57,17.61,5.47,28.46,15.24l.08.06c1.05,1,2.12,2,3.19,3,.64.55,1.31,1.07,2,1.59Z"/><path class="cls-22" d="M634.88,702.76l12.22-26.08a63.26,63.26,0,0,0-28.24-20.8c-.94-.35-1.36-.48-2.4-.86-8.73-3.16-20.69-8.75-35.22-19.42l-13.3,27.91c6,7.38,15.27,15.8,28.66,18.8,2.23.5,3.28.56,5.55,1,8.34,1.77,19.32,6.32,31.39,18.38"/><path class="cls-23" d="M634.27,701.23l11.26-24.3a63.47,63.47,0,0,0-27.38-20c-.91-.35-1.31-.48-2.32-.86-8.41-3.11-20-8.56-34.05-18.82l-12.27,26c5.9,7,14.89,15.09,27.76,18.13,2.15.51,3.15.58,5.33,1.07,8,1.8,18.61,6.27,30.36,17.8"/><rect class="cls-22" x="603.23" y="659.64" width="11.25" height="16.2" rx="5.63" transform="translate(291.5 -178.35) rotate(21.8)"/><rect class="cls-11" x="587.4" y="657.44" width="11.25" height="8.01" rx="4.01" transform="translate(288.03 -172.92) rotate(21.8)"/><rect class="cls-11" x="619.3" y="670.18" width="11.25" height="8.01" rx="4.01" transform="translate(295.04 -183.85) rotate(21.8)"/><path class="cls-22" d="M629.83,699.23v0a.41.41,0,0,1,.19.16,1.19,1.19,0,0,0,.38.25.43.43,0,0,1,.19.25l.19.18a1.26,1.26,0,0,1,.2.2.41.41,0,0,1,.21.18v0h0l.06.06,0,0,0,0,.06,0,.07.06c.72.62,1.33,1.36,2.07,1.95l0,0,.07,0c.67.57,1.36,1.11,2.05,1.65a.64.64,0,0,1,.06-.16,8,8,0,0,0,.6-1.25.57.57,0,0,1,.12-.18.32.32,0,0,1,0-.09.39.39,0,0,1,.07-.27,3.7,3.7,0,0,0,.31-.55.48.48,0,0,1,.05-.14c0-.09.09-.19.14-.28a.38.38,0,0,1,.1-.12h0a.34.34,0,0,1,0-.14h0v0l0,0a.52.52,0,0,1,.14-.31.26.26,0,0,1,0-.09.45.45,0,0,1,.07-.18,11.07,11.07,0,0,0,.8-1.75.56.56,0,0,1,0-.08.42.42,0,0,1,.08-.18l0,0,.12-.21v0a1.66,1.66,0,0,1,.12-.31.3.3,0,0,1,.05-.15l.11-.22.12-.26c0-.09.07-.18.12-.27a5.5,5.5,0,0,0-10,1.5,1.86,1.86,0,0,1,.29.27l.1.09A4,4,0,0,1,629.83,699.23Z"/><path class="cls-22" d="M566.62,664.05a5.92,5.92,0,0,1,1.33,1.53,15.39,15.39,0,0,0,1.71,1.81,40.59,40.59,0,0,0,3.47,3.59,9.33,9.33,0,0,0,.72-1,8.29,8.29,0,0,0-2.9-11.35,9.59,9.59,0,0,0-1.25-.61c-1.15,2-2.13,4-3.09,6Z"/><path class="cls-22" d="M587.29,639.1a15,15,0,0,1-2.6-1.72h0a23.76,23.76,0,0,1-3.74-2.84,10.1,10.1,0,0,1-1.15,2.24v0a1.17,1.17,0,0,0,0,.11,23.23,23.23,0,0,0-2.12,4.08.4.4,0,0,1,0,.15l-.14.41a7,7,0,0,0,1.53,1.21,7.2,7.2,0,0,0,9.87-2.51C588.3,639.9,587.79,639.5,587.29,639.1Z"/><path class="cls-22" d="M647.33,679.46c.41-.83.83-1.67,1.27-2.49-.87-1-1.65-2.07-2.48-3.08a21.79,21.79,0,0,1-2-2.34,6.4,6.4,0,0,0-1.53,1.77A6.63,6.63,0,0,0,645,682.4a6.43,6.43,0,0,0,.79.39c.3-.51.46-1.12.74-1.65S647.05,680,647.33,679.46Z"/><text/><path class="cls-23" d="M606.44,778.91q-.2-.24-.36-.48l-.3-.45-1.85-2.6c-1,.21-2,.32-3,.49a14.67,14.67,0,0,1-2.38.44A63.31,63.31,0,0,0,571,790.14c-.79.67-1.12,1-2,1.74a135.78,135.78,0,0,1-30,19.48,8.41,8.41,0,0,1-1.42.68l-.43.21a25.12,25.12,0,0,1-2.36,1.1l-.86.39a8.85,8.85,0,0,1,1,1.45l13.69,19.47a.46.46,0,0,1,.15.16l.21.36,3.7,5.26c1.32-.22,2.69-.48,4.08-.8l.25-.08c.6-.17,1.21-.3,1.82-.43,8.39-2.2,17.69-6.46,25.17-14.92,1.56-1.78,2.14-2.7,3.7-4.51,5.14-6,13.37-12.68,27.2-17.37l.1,0c1.35-.46,2.75-.89,4.21-1.31.79-.29,1.57-.62,2.36-.94Z"/><path class="cls-22" d="M619.7,800l-16.77-23.41A63.26,63.26,0,0,0,571,791c-.76.65-1.09,1-1.93,1.68-7,6.07-17.75,13.77-34.15,21.22l17.84,25.26c9.39-1.66,21.25-5.6,30.41-15.81,1.53-1.71,2.09-2.59,3.62-4.34,5.62-6.41,15-13.76,31.38-18.39"/><path class="cls-23" d="M618.07,799.75,602.38,778a63.55,63.55,0,0,0-30.84,14.11c-.74.62-1.06.91-1.87,1.6-6.83,5.82-17.23,13.23-33.07,20.5l16.67,23.42c9-1.71,20.45-5.61,29.4-15.35,1.49-1.63,2-2.47,3.53-4.13,5.5-6.11,14.57-13.17,30.38-17.79"/><rect class="cls-22" x="570.81" y="797.44" width="11.25" height="16.2" rx="5.63" transform="translate(-378.16 541.1) rotate(-38.93)"/><rect class="cls-11" x="557.57" y="812.27" width="11.25" height="8.01" rx="4.01" transform="translate(-387.84 535.17) rotate(-38.93)"/><rect class="cls-11" x="584.28" y="790.67" width="11.25" height="8.01" rx="4.01" transform="translate(-368.34 547.15) rotate(-38.93)"/><path class="cls-22" d="M614.16,802.65h0a.43.43,0,0,1,.23-.09,1.2,1.2,0,0,0,.41-.2.43.43,0,0,1,.31-.05l.25-.07a1.71,1.71,0,0,1,.27-.09.54.54,0,0,1,.26-.09h0l.07,0,.06,0,0,0,.07,0,.08,0c.89-.32,1.84-.48,2.71-.85h0l.08,0c.83-.3,1.63-.65,2.45-1a.37.37,0,0,1-.12-.13,6.88,6.88,0,0,0-.8-1.14.5.5,0,0,1-.1-.19l-.06-.07a.41.41,0,0,1-.2-.19,3.71,3.71,0,0,0-.33-.54l-.09-.11-.18-.27a.38.38,0,0,1-.06-.13h0a.31.31,0,0,1-.09-.11h0l0,0a.56.56,0,0,1-.2-.28.41.41,0,0,1,0-.09.36.36,0,0,1-.12-.15A11.44,11.44,0,0,0,618,795l0-.08a.36.36,0,0,1-.11-.16l0,0-.12-.21,0,0-.2-.25a.69.69,0,0,1-.11-.13l-.13-.2-.18-.23-.18-.23a5.42,5.42,0,0,0-2.58.73,5.48,5.48,0,0,0-1,8.75,2.65,2.65,0,0,1,.37-.12l.13,0A2.55,2.55,0,0,1,614.16,802.65Z"/><path class="cls-22" d="M552.56,840.58a5.89,5.89,0,0,1,2-.41,15.47,15.47,0,0,0,2.41-.61,41.81,41.81,0,0,0,4.83-1.27,9,9,0,0,0-.54-1.13,8.29,8.29,0,0,0-11.32-3,8.59,8.59,0,0,0-1.14.8c1.15,1.95,2.45,3.81,3.77,5.65Z"/><path class="cls-22" d="M540.9,810.35a15,15,0,0,1-2.76,1.43h0a23.17,23.17,0,0,1-4.31,1.88,9.39,9.39,0,0,1,1.39,2.09v0a.31.31,0,0,1,.07.09,23,23,0,0,0,2.53,3.85.23.23,0,0,1,.12.1c.09.11.19.21.29.32a7.35,7.35,0,0,0,1.8-.74,7.21,7.21,0,0,0,2.64-9.84A18.7,18.7,0,0,1,540.9,810.35Z"/><path class="cls-22" d="M605.47,777.71c-.53-.76-1.05-1.54-1.56-2.32-1.28.27-2.6.42-3.89.65a19.29,19.29,0,0,1-3,.55,6.54,6.54,0,0,0,.8,2.21,6.62,6.62,0,0,0,9,2.42,7.74,7.74,0,0,0,.73-.49c-.3-.52-.75-1-1.08-1.45S605.83,778.23,605.47,777.71Z"/><path class="cls-23" d="M645.47,580.47c0-.2-.07-.4-.08-.6s0-.35,0-.53l-.34-3.18c-1-.3-1.89-.69-2.84-1a15.33,15.33,0,0,1-2.28-.78,63.28,63.28,0,0,0-30.83-1.47c-1,.2-1.46.31-2.58.54a135.34,135.34,0,0,1-35.73,2.26,9.14,9.14,0,0,1-1.57-.1l-.48,0c-.87,0-1.74-.08-2.6-.2l-.94-.08a8.5,8.5,0,0,1,.15,1.75l2.39,23.68a.46.46,0,0,1,0,.21c0,.14,0,.28,0,.42l.65,6.4c1.26.45,2.58.89,4,1.29l.25.06c.61.14,1.2.33,1.8.52,8.39,2.19,18.58,3,29.25-.67,2.24-.78,3.19-1.3,5.43-2.11,7.41-2.68,17.88-4.5,32.23-1.81l.1,0c1.4.27,2.84.57,4.31.92.83.14,1.68.24,2.52.34Z"/><path class="cls-22" d="M646.71,605.32l-3.15-28.63a63.29,63.29,0,0,0-34.93-3.05l-2.5.51c-9.1,1.85-22.22,3.31-40.18,1.76l3.17,30.76c9,3.16,21.27,5.53,34.26,1.12,2.17-.73,3.09-1.23,5.28-2,8-2.83,19.79-4.66,36.37-.64"/><path class="cls-23" d="M645.39,604.34l-3-26.61a63.49,63.49,0,0,0-33.79-2.83l-2.43.48c-8.8,1.73-21.5,3.08-38.87,1.65l3.06,28.59c8.7,2.94,20.57,5.14,33.14,1,2.1-.69,3-1.15,5.11-1.87,7.78-2.64,19.15-4.34,35.19-.61"/><rect class="cls-22" x="600.64" y="580.87" width="11.25" height="16.2" rx="5.63" transform="translate(-89.52 109.04) rotate(-9.57)"/><rect class="cls-11" x="583.84" y="587.83" width="11.25" height="8.01" rx="4.01" transform="translate(-90.23 106.29) rotate(-9.57)"/><rect class="cls-11" x="617.71" y="582.1" width="11.25" height="8.01" rx="4.01" transform="translate(-88.8 111.84) rotate(-9.57)"/><path class="cls-22" d="M640.56,604.94h0a.44.44,0,0,1,.25,0,1.35,1.35,0,0,0,.45,0,.4.4,0,0,1,.29.11l.26.06.28.06a.51.51,0,0,1,.27,0h0l.07,0h.28c.94.15,1.84.47,2.78.59h.14c.87.14,1.74.24,2.61.34a.4.4,0,0,1,0-.17,8.07,8.07,0,0,0-.14-1.38.5.5,0,0,1,0-.21s0-.06,0-.1a.35.35,0,0,1-.07-.26q0-.31,0-.63l0-.14c0-.11,0-.21,0-.32a.26.26,0,0,1,0-.15h0a.4.4,0,0,1,0-.15h0v-.07a.5.5,0,0,1,0-.34.17.17,0,0,1,0-.1.31.31,0,0,1,0-.19,12.3,12.3,0,0,0-.23-1.91.34.34,0,0,1,0-.1.43.43,0,0,1,0-.2v-.31a3,3,0,0,1-.06-.32.41.41,0,0,1,0-.16,1.94,1.94,0,0,0,0-.24l0-.29a2.93,2.93,0,0,1-.05-.29,5.49,5.49,0,0,0-8,4.94,5.36,5.36,0,0,0,.25,1.56,2.74,2.74,0,0,1,.39.09l.13,0Z"/><path class="cls-22" d="M568.28,607.81a5.74,5.74,0,0,1,1.93.62,16.69,16.69,0,0,0,2.4.65,43,43,0,0,0,4.84,1.26,10.23,10.23,0,0,0,.08-1.25,8.29,8.29,0,0,0-8.39-8.18,7.87,7.87,0,0,0-1.38.14c0,2.26.26,4.51.51,6.76Z"/><path class="cls-22" d="M572.94,575.75a15.52,15.52,0,0,1-3.12-.11h0a24.26,24.26,0,0,1-4.67-.48,9.64,9.64,0,0,1,.19,2.51v0s0,.08,0,.12a24.27,24.27,0,0,0,.31,4.59.28.28,0,0,1,.06.15c0,.14.06.28.1.42a7.21,7.21,0,0,0,9.06-7C574.22,575.91,573.58,575.83,572.94,575.75Z"/><path class="cls-22" d="M645.21,579c-.08-.93-.16-1.86-.21-2.8-1.26-.38-2.48-.9-3.72-1.34a20.78,20.78,0,0,1-2.88-1,6.61,6.61,0,0,0,6.31,8.85,5.14,5.14,0,0,0,.88-.07c0-.59-.19-1.19-.23-1.79S645.27,579.58,645.21,579Z"/><path class="cls-23" d="M620.76,958.89c.08-.18.15-.37.24-.55s.16-.32.25-.48l1.36-2.88c-.66-.76-1.25-1.58-1.89-2.36a16.17,16.17,0,0,1-1.54-1.86,63.32,63.32,0,0,0-25.56-17.3c-1-.36-1.41-.5-2.48-.88a135.46,135.46,0,0,1-31.68-16.68,9.6,9.6,0,0,1-1.29-.9l-.4-.28a24.55,24.55,0,0,1-2.11-1.52l-.76-.56a8.21,8.21,0,0,1-.78,1.57l-10.29,21.46a.4.4,0,0,1-.07.22l-.21.36-2.78,5.8c.84,1,1.74,2.1,2.7,3.16l.19.18c.44.44.85.9,1.26,1.37,6,6.24,14.29,12.28,25.33,14.66,2.31.5,3.39.55,5.73,1,7.72,1.57,17.61,5.47,28.46,15.24l.08.06c1.05,1,2.12,2,3.19,3,.64.55,1.31,1.07,2,1.59Z"/><path class="cls-22" d="M608.88,980.76l12.22-26.08a63.26,63.26,0,0,0-28.24-20.8c-.94-.35-1.36-.48-2.4-.86-8.73-3.16-20.69-8.75-35.22-19.42l-13.3,27.91c6,7.38,15.27,15.8,28.66,18.8,2.23.5,3.28.56,5.55,1,8.34,1.77,19.32,6.32,31.39,18.38"/><path class="cls-23" d="M608.27,979.23l11.26-24.3a63.47,63.47,0,0,0-27.38-20c-.91-.35-1.31-.48-2.32-.86-8.41-3.11-20-8.56-34.05-18.82l-12.27,26c5.9,7,14.89,15.09,27.76,18.13,2.15.51,3.15.58,5.33,1.07,8,1.8,18.61,6.27,30.36,17.8"/><rect class="cls-22" x="577.23" y="937.64" width="11.25" height="16.2" rx="5.63" transform="translate(392.87 -148.82) rotate(21.8)"/><rect class="cls-11" x="561.4" y="935.44" width="11.25" height="8.01" rx="4.01" transform="translate(389.4 -143.39) rotate(21.8)"/><rect class="cls-11" x="593.3" y="948.18" width="11.25" height="8.01" rx="4.01" transform="translate(396.41 -154.32) rotate(21.8)"/><path class="cls-22" d="M603.83,977.23v0a.41.41,0,0,1,.19.16,1.19,1.19,0,0,0,.38.25.43.43,0,0,1,.19.25l.19.18a1.26,1.26,0,0,1,.2.2.41.41,0,0,1,.21.18v0h0l.06.06,0,0,0,0,.06,0,.07.06c.72.62,1.33,1.36,2.07,1.95l0,0,.07,0c.67.57,1.36,1.11,2.05,1.65a.64.64,0,0,1,.06-.16,8,8,0,0,0,.6-1.25.57.57,0,0,1,.12-.18.32.32,0,0,1,0-.09.39.39,0,0,1,.07-.27,3.7,3.7,0,0,0,.31-.55.48.48,0,0,1,.05-.14c0-.09.09-.19.14-.28a.38.38,0,0,1,.1-.12h0a.34.34,0,0,1,0-.14h0v0l0,0a.52.52,0,0,1,.14-.31.26.26,0,0,1,0-.09.45.45,0,0,1,.07-.18,11.07,11.07,0,0,0,.8-1.75.56.56,0,0,1,0-.08.42.42,0,0,1,.08-.18l0,0,.12-.21v0a1.66,1.66,0,0,1,.12-.31.3.3,0,0,1,.05-.15l.11-.22.12-.26c0-.09.07-.18.12-.27a5.5,5.5,0,0,0-10,1.5,1.86,1.86,0,0,1,.29.27l.1.09A4,4,0,0,1,603.83,977.23Z"/><path class="cls-22" d="M540.62,942.05a5.92,5.92,0,0,1,1.33,1.53,15.39,15.39,0,0,0,1.71,1.81,40.59,40.59,0,0,0,3.47,3.59,9.33,9.33,0,0,0,.72-1,8.29,8.29,0,0,0-2.9-11.35,9.59,9.59,0,0,0-1.25-.61c-1.15,2-2.13,4-3.09,6Z"/><path class="cls-22" d="M561.29,917.1a15,15,0,0,1-2.6-1.72h0a23.76,23.76,0,0,1-3.74-2.84,10.1,10.1,0,0,1-1.15,2.24v0a1.17,1.17,0,0,0,0,.11,23.23,23.23,0,0,0-2.12,4.08.4.4,0,0,1,0,.15l-.14.41a7,7,0,0,0,1.53,1.21,7.2,7.2,0,0,0,9.87-2.51C562.3,917.9,561.79,917.5,561.29,917.1Z"/><path class="cls-22" d="M621.33,957.46c.41-.83.83-1.67,1.27-2.49-.87-1-1.65-2.07-2.48-3.08a21.79,21.79,0,0,1-2-2.34,6.4,6.4,0,0,0-1.53,1.77A6.63,6.63,0,0,0,619,960.4a6.43,6.43,0,0,0,.79.39c.3-.51.46-1.12.74-1.65S621.05,958,621.33,957.46Z"/><path class="cls-23" d="M1303.76,551.89c.08-.18.15-.37.24-.55s.16-.32.25-.48l1.36-2.88c-.66-.76-1.25-1.58-1.89-2.36a16.17,16.17,0,0,1-1.54-1.86,63.32,63.32,0,0,0-25.56-17.3c-1-.36-1.41-.5-2.48-.88a135.46,135.46,0,0,1-31.68-16.68,9.6,9.6,0,0,1-1.29-.9l-.4-.28a24.55,24.55,0,0,1-2.11-1.52l-.76-.56a8.21,8.21,0,0,1-.78,1.57l-10.29,21.46a.4.4,0,0,1-.07.22l-.21.36-2.78,5.8c.84,1,1.74,2.1,2.7,3.16l.19.18c.44.44.85.9,1.26,1.37,6,6.24,14.29,12.28,25.33,14.66,2.31.5,3.39.55,5.73,1,7.72,1.57,17.61,5.47,28.46,15.24l.08.06c1,1,2.12,2,3.19,3,.64.55,1.31,1.07,2,1.59Z"/><path class="cls-22" d="M1291.88,573.76l12.22-26.08a63.26,63.26,0,0,0-28.24-20.8c-.94-.35-1.36-.48-2.4-.86-8.73-3.16-20.69-8.75-35.22-19.42l-13.3,27.91c6,7.38,15.27,15.8,28.66,18.8,2.23.5,3.28.56,5.55,1,8.34,1.77,19.32,6.32,31.39,18.38"/><path class="cls-23" d="M1291.27,572.23l11.26-24.3a63.47,63.47,0,0,0-27.38-20c-.91-.35-1.31-.48-2.32-.86-8.41-3.11-20-8.56-34-18.82l-12.27,26c5.9,7,14.89,15.09,27.76,18.13,2.15.51,3.15.58,5.33,1.07,8,1.8,18.61,6.27,30.36,17.8"/><rect class="cls-22" x="1260.23" y="530.64" width="11.25" height="16.2" rx="5.63" transform="translate(290.57 -431.55) rotate(21.8)"/><rect class="cls-11" x="1244.4" y="528.44" width="11.25" height="8.01" rx="4.01" transform="translate(287.1 -426.12) rotate(21.8)"/><rect class="cls-11" x="1276.3" y="541.18" width="11.25" height="8.01" rx="4.01" transform="translate(294.11 -437.05) rotate(21.8)"/><path class="cls-22" d="M1286.83,570.23v0a.41.41,0,0,1,.19.16,1.19,1.19,0,0,0,.38.25.43.43,0,0,1,.19.25l.19.18a1.26,1.26,0,0,1,.2.2.41.41,0,0,1,.21.18v0h0l.06.06,0,0,0,0,.06,0,.07.06c.72.62,1.33,1.36,2.07,1.95l0,0,.07,0c.67.57,1.36,1.11,2,1.65a.64.64,0,0,1,.06-.16,8,8,0,0,0,.6-1.25.57.57,0,0,1,.12-.18.32.32,0,0,1,0-.09.39.39,0,0,1,.07-.27,3.7,3.7,0,0,0,.31-.55.48.48,0,0,1,0-.14l.14-.28a.38.38,0,0,1,.1-.12h0a.34.34,0,0,1,0-.14h0v0l0,0a.52.52,0,0,1,.14-.31.26.26,0,0,1,0-.09.45.45,0,0,1,.07-.18,11.07,11.07,0,0,0,.8-1.75.56.56,0,0,1,.05-.08.42.42,0,0,1,.08-.18l0,0,.12-.21v0a1.66,1.66,0,0,1,.12-.31.3.3,0,0,1,0-.15,2.26,2.26,0,0,0,.11-.22l.12-.26c0-.09.07-.18.12-.27a5.5,5.5,0,0,0-10,1.5,1.86,1.86,0,0,1,.29.27l.1.09A4,4,0,0,1,1286.83,570.23Z"/><path class="cls-22" d="M1223.62,535.05a5.92,5.92,0,0,1,1.33,1.53,15.39,15.39,0,0,0,1.71,1.81,40.59,40.59,0,0,0,3.47,3.59,9.33,9.33,0,0,0,.72-1,8.29,8.29,0,0,0-2.9-11.35,9.59,9.59,0,0,0-1.25-.61c-1.15,2-2.13,4-3.09,6Z"/><path class="cls-22" d="M1244.29,510.1a15,15,0,0,1-2.6-1.72h0a23.76,23.76,0,0,1-3.74-2.84,10.1,10.1,0,0,1-1.15,2.24v0a1.17,1.17,0,0,0,0,.11,23.23,23.23,0,0,0-2.12,4.08.4.4,0,0,1,0,.15l-.14.41a7,7,0,0,0,1.53,1.21,7.2,7.2,0,0,0,9.87-2.51C1245.3,510.9,1244.79,510.5,1244.29,510.1Z"/><path class="cls-22" d="M1304.33,550.46c.41-.83.83-1.67,1.27-2.49-.87-1-1.65-2.07-2.48-3.08a21.79,21.79,0,0,1-1.95-2.34,6.4,6.4,0,0,0-1.53,1.77,6.63,6.63,0,0,0,2.31,9.08,6.43,6.43,0,0,0,.79.39c.3-.51.46-1.12.74-1.65S1304.05,551,1304.33,550.46Z"/><path class="cls-23" d="M1315.62,505.45c0-.2,0-.4,0-.6s0-.36,0-.54l-.08-3.19c-.93-.38-1.83-.85-2.75-1.26a15,15,0,0,1-2.21-1,63.38,63.38,0,0,0-30.61-4c-1,.11-1.48.19-2.61.33a135.09,135.09,0,0,1-35.8-.67,9.3,9.3,0,0,1-1.56-.22l-.47-.08a24.71,24.71,0,0,1-2.58-.4l-.93-.16a8,8,0,0,1,0,1.76l.45,23.79a.4.4,0,0,1,0,.22c0,.14,0,.28,0,.42l.12,6.43c1.21.55,2.49,1.09,3.83,1.61l.25.08c.59.19,1.17.42,1.75.66,8.18,2.86,18.27,4.54,29.21,1.72,2.29-.6,3.27-1,5.58-1.67,7.6-2.06,18.18-3,32.27.83l.1,0c1.37.38,2.78.8,4.22,1.27.82.2,1.65.37,2.48.54Z"/><path class="cls-22" d="M1314.82,530.32l-.8-28.79a63.29,63.29,0,0,0-34.56-5.89c-1,.11-1.44.18-2.54.31-9.22,1.1-22.42,1.48-40.19-1.52l.66,30.91c8.71,3.88,20.74,7.25,34,3.91,2.22-.55,3.18-1,5.42-1.56,8.25-2.17,20.11-3,36.31,2.32"/><path class="cls-23" d="M1313.59,529.23l-.85-26.77a63.6,63.6,0,0,0-33.45-5.57c-1,.1-1.39.17-2.46.29-8.91,1-21.68,1.31-38.87-1.53l.71,28.75c8.44,3.63,20.09,6.79,32.95,3.73,2.15-.52,3.08-.9,5.24-1.45,8-2,19.44-2.76,35.13,2.26"/><rect class="cls-22" x="1270.22" y="502.63" width="11.25" height="16.2" rx="5.63" transform="translate(-38.97 110.86) rotate(-4.9)"/><rect class="cls-11" x="1253.24" y="508.21" width="11.25" height="8.01" rx="4.01" transform="translate(-39.15 109.41) rotate(-4.9)"/><rect class="cls-11" x="1287.47" y="505.26" width="11.25" height="8.01" rx="4.01" transform="translate(-38.78 112.32) rotate(-4.9)"/><path class="cls-22" d="M1308.73,529.44h0a.52.52,0,0,1,.24,0,1.15,1.15,0,0,0,.45.07.39.39,0,0,1,.28.13l.25.08a1.38,1.38,0,0,1,.27.08.52.52,0,0,1,.27.07h0l.07,0,.06,0h.22c.92.23,1.79.63,2.72.82h.14c.85.21,1.71.38,2.57.56a.47.47,0,0,1,0-.17,8.05,8.05,0,0,0,0-1.39.47.47,0,0,1,0-.21s0-.07,0-.1a.45.45,0,0,1,0-.27,4.43,4.43,0,0,0,0-.63.34.34,0,0,1,0-.15v-.32a.35.35,0,0,1,0-.14h0a.34.34,0,0,1,0-.14h0v0a.52.52,0,0,1,0-.35.34.34,0,0,1,0-.1.39.39,0,0,1,0-.19,11.21,11.21,0,0,0-.07-1.92v-.1a.34.34,0,0,1,0-.2v0l0-.25v0c0-.11,0-.21,0-.32a.88.88,0,0,1,0-.17,1.93,1.93,0,0,1,0-.24,367012487442.18,367012487442.18,0,0,0,0-.58,5.39,5.39,0,0,0-2.55-.83,5.49,5.49,0,0,0-5.86,5.09,6,6,0,0,0,.12,1.59,1.52,1.52,0,0,1,.38.11l.14,0A2.79,2.79,0,0,1,1308.73,529.44Z"/><path class="cls-22" d="M1236.45,526.41a5.62,5.62,0,0,1,1.88.77,14.86,14.86,0,0,0,2.34.85,43.8,43.8,0,0,0,4.71,1.65,8.42,8.42,0,0,0,.18-1.24,8.28,8.28,0,0,0-7.69-8.84,9.2,9.2,0,0,0-1.39,0c-.14,2.26-.1,4.53,0,6.79Z"/><path class="cls-22" d="M1243.71,494.83a15.43,15.43,0,0,1-3.1-.36h0a24.77,24.77,0,0,1-4.62-.86,9.66,9.66,0,0,1,0,2.52v0a.49.49,0,0,1,0,.12,22.83,22.83,0,0,0-.06,4.6.42.42,0,0,1,0,.15l.06.43a7,7,0,0,0,1.91.39,7.2,7.2,0,0,0,7.69-6.67A17.59,17.59,0,0,1,1243.71,494.83Z"/><path class="cls-22" d="M1315.48,503.92c0-.93,0-1.87,0-2.8-1.22-.49-2.4-1.11-3.59-1.64a19.29,19.29,0,0,1-2.8-1.22,6.89,6.89,0,0,0-.57,2.28,6.62,6.62,0,0,0,6.15,7.06,8.64,8.64,0,0,0,.88,0c0-.6-.09-1.21-.09-1.81S1315.49,504.55,1315.48,503.92Z"/><path class="cls-23" d="M1314.55,525.7c0-.2-.07-.4-.08-.6s0-.35,0-.53l-.32-3.18c-1-.3-1.89-.7-2.83-1a15.49,15.49,0,0,1-2.29-.79,63.25,63.25,0,0,0-30.82-1.62c-1,.19-1.46.3-2.58.53a135.6,135.6,0,0,1-35.74,2.08,9.14,9.14,0,0,1-1.57-.11l-.48,0a25.07,25.07,0,0,1-2.6-.21l-.94-.09a9.4,9.4,0,0,1,.15,1.75l2.27,23.69a.51.51,0,0,1,0,.22c0,.14,0,.28,0,.42l.61,6.4c1.26.46,2.58.9,4,1.31l.25.06c.61.15,1.2.34,1.8.53,8.38,2.23,18.57,3.13,29.25-.53,2.24-.77,3.19-1.29,5.44-2.09,7.42-2.64,17.9-4.41,32.24-1.65l.1,0c1.4.27,2.83.59,4.3,1,.84.14,1.68.24,2.52.34Z"/><path class="cls-22" d="M1315.67,550.56l-3-28.64a63.29,63.29,0,0,0-34.92-3.23l-2.51.51c-9.1,1.8-22.23,3.19-40.18,1.56l3,30.77c9,3.2,21.23,5.64,34.24,1.29,2.18-.72,3.1-1.21,5.29-2,8.06-2.8,19.82-4.57,36.38-.47"/><path class="cls-23" d="M1314.35,549.57l-2.9-26.63a63.5,63.5,0,0,0-33.78-3c-1,.17-1.37.27-2.43.47-8.81,1.68-21.51,3-38.87,1.46l2.91,28.6c8.69,3,20.55,5.24,33.14,1.2,2.1-.68,3-1.14,5.12-1.84,7.79-2.6,19.17-4.25,35.19-.45"/><rect class="cls-22" x="1269.68" y="525.92" width="11.25" height="16.2" rx="5.63" transform="translate(-69.53 213.08) rotate(-9.3)"/><rect class="cls-11" x="1252.86" y="532.8" width="11.25" height="8.01" rx="4.01" transform="translate(-70.2 210.4) rotate(-9.3)"/><rect class="cls-11" x="1286.76" y="527.23" width="11.25" height="8.01" rx="4.01" transform="translate(-68.85 215.8) rotate(-9.3)"/><path class="cls-22" d="M1309.52,550.15h0a.55.55,0,0,1,.25,0,1.13,1.13,0,0,0,.45,0,.4.4,0,0,1,.29.11l.26.06a1.31,1.31,0,0,1,.27.06.56.56,0,0,1,.28,0h0l.08,0h.28c.93.16,1.83.48,2.77.6h.15c.86.15,1.73.25,2.6.36a.47.47,0,0,1,0-.17,8,8,0,0,0-.13-1.38.49.49,0,0,1,0-.21s0-.07,0-.1a.45.45,0,0,1-.07-.27,4.24,4.24,0,0,0,0-.62.4.4,0,0,1,0-.15l0-.32a.59.59,0,0,1,0-.14h0a.78.78,0,0,1,0-.14h0V548a.53.53,0,0,1,0-.35.17.17,0,0,1,0-.1.38.38,0,0,1,0-.19,12.42,12.42,0,0,0-.22-1.91.14.14,0,0,1,0-.09.28.28,0,0,1,0-.2.09.09,0,0,1,0,0v-.27a3.06,3.06,0,0,1,0-.32.41.41,0,0,1,0-.16c0-.08,0-.16,0-.24l0-.29a1.35,1.35,0,0,1,0-.29,5.5,5.5,0,0,0-7.82,6.47,1.8,1.8,0,0,1,.39.08l.13,0A2.79,2.79,0,0,1,1309.52,550.15Z"/><path class="cls-22" d="M1237.22,552.67a5.76,5.76,0,0,1,1.93.63,15.52,15.52,0,0,0,2.4.66,43,43,0,0,0,4.83,1.29,8.66,8.66,0,0,0,.09-1.25,8.28,8.28,0,0,0-8.35-8.22,7.87,7.87,0,0,0-1.38.12c0,2.27.24,4.52.48,6.77Z"/><path class="cls-22" d="M1242,520.63a15.4,15.4,0,0,1-3.11-.12h0a24.27,24.27,0,0,1-4.67-.49,9.6,9.6,0,0,1,.18,2.51v0a.49.49,0,0,1,0,.12,23.46,23.46,0,0,0,.29,4.59.35.35,0,0,1,.06.14l.09.43a7.76,7.76,0,0,0,1.94.25,7.21,7.21,0,0,0,7.15-7.25A17.83,17.83,0,0,1,1242,520.63Z"/><path class="cls-22" d="M1314.3,524.19c-.08-.93-.15-1.86-.21-2.8-1.25-.39-2.47-.92-3.71-1.36a18.41,18.41,0,0,1-2.87-1,6.43,6.43,0,0,0-.4,2.32,6.61,6.61,0,0,0,6.67,6.57,6.4,6.4,0,0,0,.88-.06c0-.6-.19-1.2-.23-1.8S1314.35,524.81,1314.3,524.19Z"/><path class="cls-23" d="M1311.76,586.89c.08-.18.15-.37.24-.55s.16-.32.25-.48l1.36-2.88c-.66-.76-1.25-1.58-1.89-2.36a16.17,16.17,0,0,1-1.54-1.86,63.32,63.32,0,0,0-25.56-17.3c-1-.36-1.41-.5-2.48-.88a135.46,135.46,0,0,1-31.68-16.68,9.6,9.6,0,0,1-1.29-.9l-.4-.28a24.55,24.55,0,0,1-2.11-1.52l-.76-.56a8.21,8.21,0,0,1-.78,1.57l-10.29,21.46a.4.4,0,0,1-.07.22l-.21.36-2.78,5.8c.84,1,1.74,2.1,2.7,3.16l.19.18c.44.44.85.9,1.26,1.37,6,6.24,14.29,12.28,25.33,14.66,2.31.5,3.39.55,5.73,1,7.72,1.57,17.61,5.47,28.46,15.24l.08.06c1,1,2.12,2,3.19,3,.64.55,1.31,1.07,2,1.59Z"/><path class="cls-22" d="M1299.88,608.76l12.22-26.08a63.26,63.26,0,0,0-28.24-20.8c-.94-.35-1.36-.48-2.4-.86-8.73-3.16-20.69-8.75-35.22-19.42l-13.3,27.91c6,7.38,15.27,15.8,28.66,18.8,2.23.5,3.28.56,5.55,1,8.34,1.77,19.32,6.32,31.39,18.38"/><path class="cls-23" d="M1299.27,607.23l11.26-24.3a63.47,63.47,0,0,0-27.38-20c-.91-.35-1.31-.48-2.32-.86-8.41-3.11-20-8.56-34-18.82l-12.27,26c5.9,7,14.89,15.09,27.76,18.13,2.15.51,3.15.58,5.33,1.07,8,1.8,18.61,6.27,30.36,17.8"/><rect class="cls-22" x="1268.23" y="565.64" width="11.25" height="16.2" rx="5.63" transform="translate(304.14 -432.01) rotate(21.8)"/><rect class="cls-11" x="1252.4" y="563.44" width="11.25" height="8.01" rx="4.01" transform="translate(300.67 -426.58) rotate(21.8)"/><rect class="cls-11" x="1284.3" y="576.18" width="11.25" height="8.01" rx="4.01" transform="translate(307.68 -437.52) rotate(21.8)"/><path class="cls-22" d="M1294.83,605.23v0a.41.41,0,0,1,.19.16,1.19,1.19,0,0,0,.38.25.43.43,0,0,1,.19.25l.19.18a1.26,1.26,0,0,1,.2.2.41.41,0,0,1,.21.18v0h0l.06.06,0,0,0,0,.06,0,.07.06c.72.62,1.33,1.36,2.07,1.95l0,0,.07,0c.67.57,1.36,1.11,2,1.65a.64.64,0,0,1,.06-.16,8,8,0,0,0,.6-1.25.57.57,0,0,1,.12-.18.32.32,0,0,1,0-.09.39.39,0,0,1,.07-.27,3.7,3.7,0,0,0,.31-.55.48.48,0,0,1,0-.14l.14-.28a.38.38,0,0,1,.1-.12h0a.34.34,0,0,1,0-.14h0v0l0,0a.52.52,0,0,1,.14-.31.26.26,0,0,1,0-.09.45.45,0,0,1,.07-.18,11.07,11.07,0,0,0,.8-1.75.56.56,0,0,1,.05-.08.42.42,0,0,1,.08-.18l0,0,.12-.21v0a1.66,1.66,0,0,1,.12-.31.3.3,0,0,1,0-.15,2.26,2.26,0,0,0,.11-.22l.12-.26c0-.09.07-.18.12-.27a5.5,5.5,0,0,0-10,1.5,1.86,1.86,0,0,1,.29.27l.1.09A4,4,0,0,1,1294.83,605.23Z"/><path class="cls-22" d="M1231.62,570.05a5.92,5.92,0,0,1,1.33,1.53,15.39,15.39,0,0,0,1.71,1.81,40.59,40.59,0,0,0,3.47,3.59,9.33,9.33,0,0,0,.72-1,8.29,8.29,0,0,0-2.9-11.35,9.59,9.59,0,0,0-1.25-.61c-1.15,2-2.13,4-3.09,6Z"/><path class="cls-22" d="M1252.29,545.1a15,15,0,0,1-2.6-1.72h0a23.76,23.76,0,0,1-3.74-2.84,10.1,10.1,0,0,1-1.15,2.24v0a1.17,1.17,0,0,0,0,.11,23.23,23.23,0,0,0-2.12,4.08.4.4,0,0,1,0,.15l-.14.41a7,7,0,0,0,1.53,1.21,7.2,7.2,0,0,0,9.87-2.51C1253.3,545.9,1252.79,545.5,1252.29,545.1Z"/><path class="cls-22" d="M1312.33,585.46c.41-.83.83-1.67,1.27-2.49-.87-1-1.65-2.07-2.48-3.08a21.79,21.79,0,0,1-1.95-2.34,6.4,6.4,0,0,0-1.53,1.77,6.63,6.63,0,0,0,2.31,9.08,6.43,6.43,0,0,0,.79.39c.3-.51.46-1.12.74-1.65S1312.05,586,1312.33,585.46Z"/><path class="cls-23" d="M1291.89,470.7a4.63,4.63,0,0,1-.29-.53c-.07-.17-.15-.33-.22-.49l-1.43-2.86c-1,.05-2,0-3,0a14,14,0,0,1-2.42.06,63.32,63.32,0,0,0-29.41,9.36c-.88.54-1.26.8-2.23,1.41a135.93,135.93,0,0,1-32.71,14.55,8,8,0,0,1-1.51.45l-.46.14a24.71,24.71,0,0,1-2.51.72l-.91.25a8.59,8.59,0,0,1,.76,1.59L1226,516.74a.42.42,0,0,1,.13.18l.15.39,2.83,5.77c1.34,0,2.73-.06,4.16-.16l.26,0c.61-.08,1.24-.12,1.86-.15,8.63-.87,18.48-3.62,27.19-10.81,1.82-1.5,2.53-2.33,4.36-3.87,6-5.09,15.19-10.44,29.58-12.91l.1,0c1.4-.24,2.86-.45,4.36-.63.83-.16,1.65-.37,2.48-.57Z"/><path class="cls-22" d="M1301.7,493.56l-12.92-25.74a63.34,63.34,0,0,0-33.81,9.3c-.85.52-1.22.77-2.17,1.36-7.88,4.9-19.68,10.83-37,15.63l13.69,27.73c9.53-.17,21.86-2.22,32.5-10.87,1.78-1.45,2.47-2.24,4.25-3.72,6.55-5.45,16.93-11.26,33.88-13.26"/><path class="cls-23" d="M1300.12,493.1,1288,469.21a63.47,63.47,0,0,0-32.66,9.12c-.83.49-1.19.73-2.1,1.29-7.66,4.68-19.09,10.38-35.87,15.08l12.82,25.74c9.18-.28,21.07-2.35,31.43-10.57,1.73-1.38,2.4-2.12,4.14-3.53,6.37-5.18,16.44-10.73,32.77-12.83"/><rect class="cls-22" x="1252.47" y="484.22" width="11.25" height="16.2" rx="5.63" transform="translate(-77.79 693.82) rotate(-29.95)"/><rect class="cls-11" x="1237.72" y="496.85" width="11.25" height="8.01" rx="4.01" transform="translate(-84.02 687.59) rotate(-29.95)"/><rect class="cls-11" x="1267.47" y="479.69" width="11.25" height="8.01" rx="4.01" transform="translate(-71.48 700.16) rotate(-29.95)"/><path class="cls-22" d="M1295.8,495.35h0a.43.43,0,0,1,.25-.05,1.36,1.36,0,0,0,.43-.14.41.41,0,0,1,.31,0l.26,0,.28-.05a.64.64,0,0,1,.28,0h.17l.06,0h.07s0,0,.09,0c.93-.18,1.88-.2,2.81-.42h0l.09,0c.86-.17,1.72-.38,2.57-.59a.38.38,0,0,1-.09-.15,7.93,7.93,0,0,0-.61-1.24.44.44,0,0,1-.07-.2l-.06-.09a.42.42,0,0,1-.16-.22,4.17,4.17,0,0,0-.24-.58.5.5,0,0,1-.08-.12c0-.1-.09-.2-.13-.29a.28.28,0,0,1,0-.15h0a.42.42,0,0,1-.07-.13h0l0-.05a.55.55,0,0,1-.16-.3.38.38,0,0,1,0-.1.44.44,0,0,1-.1-.16,10.62,10.62,0,0,0-.88-1.71.32.32,0,0,1,0-.09.31.31,0,0,1-.09-.18l0,0-.09-.23v0a1.61,1.61,0,0,1-.17-.28.85.85,0,0,1-.09-.14l-.09-.22c0-.09-.1-.17-.14-.26l-.14-.25a5.38,5.38,0,0,0-2.67.32,5.5,5.5,0,0,0-3.14,7.1,5.19,5.19,0,0,0,.78,1.38l.39-.06.13,0A2.79,2.79,0,0,1,1295.8,495.35Z"/><path class="cls-22" d="M1229,523.21a5.77,5.77,0,0,1,2-.1,15.87,15.87,0,0,0,2.48-.22,43.59,43.59,0,0,0,5-.51,9.11,9.11,0,0,0-.36-1.2,8.28,8.28,0,0,0-10.71-4.74,8.48,8.48,0,0,0-1.25.6c.82,2.11,1.82,4.15,2.84,6.17Z"/><path class="cls-22" d="M1222.25,491.52a15.11,15.11,0,0,1-3,1h0a25,25,0,0,1-4.55,1.18,9.8,9.8,0,0,1,1,2.28v0a.37.37,0,0,1,0,.11,23.89,23.89,0,0,0,1.89,4.19.38.38,0,0,1,.11.11,3.17,3.17,0,0,0,.23.36,7.08,7.08,0,0,0,1.9-.44,7.22,7.22,0,0,0,4.14-9.31A17,17,0,0,1,1222.25,491.52Z"/><path class="cls-22" d="M1291.12,469.37c-.41-.84-.8-1.69-1.18-2.54-1.31.07-2.64,0-4,0a19.4,19.4,0,0,1-3,.08,6.49,6.49,0,0,0,.45,2.31,6.63,6.63,0,0,0,8.56,3.8,7.33,7.33,0,0,0,.8-.38c-.22-.55-.6-1.05-.85-1.59S1291.39,469.93,1291.12,469.37Z"/><path class="cls-23" d="M1335.76,572.89c.08-.18.15-.37.24-.55s.16-.32.25-.48l1.36-2.88c-.66-.76-1.25-1.58-1.89-2.36a16.17,16.17,0,0,1-1.54-1.86,63.32,63.32,0,0,0-25.56-17.3c-1-.36-1.41-.5-2.48-.88a135.46,135.46,0,0,1-31.68-16.68,9.6,9.6,0,0,1-1.29-.9l-.4-.28a24.55,24.55,0,0,1-2.11-1.52l-.76-.56a8.21,8.21,0,0,1-.78,1.57l-10.29,21.46a.4.4,0,0,1-.07.22l-.21.36-2.78,5.8c.84,1,1.74,2.1,2.7,3.16l.19.18c.44.44.85.9,1.26,1.37,6,6.24,14.29,12.28,25.33,14.66,2.31.5,3.39.55,5.73,1,7.72,1.57,17.61,5.47,28.46,15.24l.08.06c1,1,2.12,2,3.19,3,.64.55,1.31,1.07,2,1.59Z"/><path class="cls-22" d="M1323.88,594.76l12.22-26.08a63.26,63.26,0,0,0-28.24-20.8c-.94-.35-1.36-.48-2.4-.86-8.73-3.16-20.69-8.75-35.22-19.42l-13.3,27.91c6,7.38,15.27,15.8,28.66,18.8,2.23.5,3.28.56,5.55,1,8.34,1.77,19.32,6.32,31.39,18.38"/><path class="cls-23" d="M1323.27,593.23l11.26-24.3a63.47,63.47,0,0,0-27.38-20c-.91-.35-1.31-.48-2.32-.86-8.41-3.11-20-8.56-34-18.82l-12.27,26c5.9,7,14.89,15.09,27.76,18.13,2.15.51,3.15.58,5.33,1.07,8,1.8,18.61,6.27,30.36,17.8"/><rect class="cls-22" x="1292.23" y="551.64" width="11.25" height="16.2" rx="5.63" transform="translate(300.66 -441.93) rotate(21.8)"/><rect class="cls-11" x="1276.4" y="549.44" width="11.25" height="8.01" rx="4.01" transform="translate(297.19 -436.5) rotate(21.8)"/><rect class="cls-11" x="1308.3" y="562.18" width="11.25" height="8.01" rx="4.01" transform="translate(304.2 -447.43) rotate(21.8)"/><path class="cls-22" d="M1318.83,591.23v0a.41.41,0,0,1,.19.16,1.19,1.19,0,0,0,.38.25.43.43,0,0,1,.19.25l.19.18a1.26,1.26,0,0,1,.2.2.41.41,0,0,1,.21.18v0h0l.06.06,0,0,0,0,.06,0,.07.06c.72.62,1.33,1.36,2.07,1.95l0,0,.07,0c.67.57,1.36,1.11,2,1.65a.64.64,0,0,1,.06-.16,8,8,0,0,0,.6-1.25.57.57,0,0,1,.12-.18.32.32,0,0,1,0-.09.39.39,0,0,1,.07-.27,3.7,3.7,0,0,0,.31-.55.48.48,0,0,1,0-.14l.14-.28a.38.38,0,0,1,.1-.12h0a.34.34,0,0,1,0-.14h0v0l0,0a.52.52,0,0,1,.14-.31.26.26,0,0,1,0-.09.45.45,0,0,1,.07-.18,11.07,11.07,0,0,0,.8-1.75.56.56,0,0,1,.05-.08.42.42,0,0,1,.08-.18l0,0,.12-.21v0a1.66,1.66,0,0,1,.12-.31.3.3,0,0,1,0-.15,2.26,2.26,0,0,0,.11-.22l.12-.26c0-.09.07-.18.12-.27a5.5,5.5,0,0,0-10,1.5,1.86,1.86,0,0,1,.29.27l.1.09A4,4,0,0,1,1318.83,591.23Z"/><path class="cls-22" d="M1255.62,556.05a5.92,5.92,0,0,1,1.33,1.53,15.39,15.39,0,0,0,1.71,1.81,40.59,40.59,0,0,0,3.47,3.59,9.33,9.33,0,0,0,.72-1,8.29,8.29,0,0,0-2.9-11.35,9.59,9.59,0,0,0-1.25-.61c-1.15,2-2.13,4-3.09,6Z"/><path class="cls-22" d="M1276.29,531.1a15,15,0,0,1-2.6-1.72h0a23.76,23.76,0,0,1-3.74-2.84,10.1,10.1,0,0,1-1.15,2.24v0a1.17,1.17,0,0,0,0,.11,23.23,23.23,0,0,0-2.12,4.08.4.4,0,0,1,0,.15l-.14.41a7,7,0,0,0,1.53,1.21,7.2,7.2,0,0,0,9.87-2.51C1277.3,531.9,1276.79,531.5,1276.29,531.1Z"/><path class="cls-22" d="M1336.33,571.46c.41-.83.83-1.67,1.27-2.49-.87-1-1.65-2.07-2.48-3.08a21.79,21.79,0,0,1-1.95-2.34,6.4,6.4,0,0,0-1.53,1.77,6.63,6.63,0,0,0,2.31,9.08,6.43,6.43,0,0,0,.79.39c.3-.51.46-1.12.74-1.65S1336.05,572,1336.33,571.46Z"/><path class="cls-23" d="M1336.39,468.8a3.86,3.86,0,0,1-.17-.58c0-.17-.08-.35-.11-.52l-.79-3.09c-1-.17-2-.43-3-.62a16.22,16.22,0,0,1-2.37-.45,63.21,63.21,0,0,0-30.73,2.91c-1,.34-1.4.51-2.47.9a135.32,135.32,0,0,1-35.06,7.29,9.16,9.16,0,0,1-1.57.13l-.48,0a22.52,22.52,0,0,1-2.59.17l-.95.06a7.73,7.73,0,0,1,.4,1.71l5.72,23.1a.58.58,0,0,1,.09.21l.06.41,1.55,6.24c1.31.27,2.68.52,4.1.73l.25,0c.62.05,1.24.15,1.85.25,8.62,1,18.83.38,28.87-4.8,2.1-1.09,3-1.74,5.07-2.86,7-3.7,17.06-7,31.65-6.35h.1c1.43.06,2.89.16,4.4.3.85,0,1.69,0,2.54,0Z"/><path class="cls-22" d="M1341.13,493.23,1334,465.34a63.17,63.17,0,0,0-35,1.92l-2.41.86c-8.74,3.12-21.53,6.42-39.52,7.43l7.5,30c9.35,1.85,21.83,2.47,34.07-3.74,2-1,2.89-1.65,4.94-2.73,7.56-3.94,18.93-7.41,35.91-5.78"/><path class="cls-23" d="M1339.69,492.44l-6.77-25.91a63.44,63.44,0,0,0-33.86,2c-.91.31-1.31.46-2.33.82-8.47,3-20.84,6.09-38.24,7.14l7.07,27.87c9,1.67,21.09,2.17,33-3.68,2-1,2.8-1.56,4.8-2.56,7.33-3.72,18.34-7,34.75-5.6"/><rect class="cls-22" x="1293.15" y="474.67" width="11.25" height="16.2" rx="5.63" transform="translate(-85.32 418.14) rotate(-17.72)"/><rect class="cls-11" x="1276.93" y="483.98" width="11.25" height="8.01" rx="4.01" transform="translate(-87.67 413.45) rotate(-17.72)"/><rect class="cls-11" x="1309.64" y="473.52" width="11.25" height="8.01" rx="4.01" transform="translate(-82.94 422.91) rotate(-17.72)"/><path class="cls-22" d="M1335,493.72h0a.53.53,0,0,1,.25,0,1.15,1.15,0,0,0,.45,0,.41.41,0,0,1,.31.07h.26l.28,0a.45.45,0,0,1,.28,0h.4c.94,0,1.88.21,2.83.19h.14c.88,0,1.76,0,2.63,0a.67.67,0,0,1-.06-.17,6.9,6.9,0,0,0-.33-1.34.57.57,0,0,1,0-.22.36.36,0,0,1,0-.09.39.39,0,0,1-.11-.25,4.48,4.48,0,0,0-.11-.62.29.29,0,0,1-.05-.14c0-.1,0-.2-.07-.31a.38.38,0,0,1,0-.15h0a.43.43,0,0,1,0-.14h0v0a.5.5,0,0,1-.09-.33.43.43,0,0,1,0-.11.48.48,0,0,1-.06-.18,10.73,10.73,0,0,0-.49-1.85.44.44,0,0,1,0-.1.41.41,0,0,1,0-.19s0,0,0,0l0-.24v0c0-.1-.07-.21-.1-.31a.75.75,0,0,1,0-.16c0-.08,0-.16,0-.23s0-.19-.08-.28-.06-.19-.08-.28a5.49,5.49,0,0,0-7.26,6,5.85,5.85,0,0,0,.47,1.52,1.76,1.76,0,0,1,.4,0h.54Z"/><path class="cls-22" d="M1263.84,506.81a5.46,5.46,0,0,1,2,.33,17.19,17.19,0,0,0,2.47.31,43.94,43.94,0,0,0,5,.56,8.89,8.89,0,0,0-.1-1.25,8.29,8.29,0,0,0-9.46-6.91,7.4,7.4,0,0,0-1.35.33c.36,2.24.9,4.43,1.47,6.63Z"/><path class="cls-22" d="M1263.91,474.4a14.61,14.61,0,0,1-3.09.33h0a23,23,0,0,1-4.69.19,9.93,9.93,0,0,1,.54,2.46v0a.2.2,0,0,1,0,.11,23.74,23.74,0,0,0,1,4.5.64.64,0,0,1,.08.14,3.25,3.25,0,0,0,.15.4,7.1,7.1,0,0,0,1.95,0,7.21,7.21,0,0,0,6-8.22A18,18,0,0,1,1263.91,474.4Z"/><path class="cls-22" d="M1335.91,467.34c-.21-.91-.42-1.82-.61-2.73-1.29-.21-2.58-.55-3.87-.81a20.19,20.19,0,0,1-3-.56,6.63,6.63,0,0,0,7.51,7.87,6.28,6.28,0,0,0,.86-.19c-.1-.59-.36-1.16-.49-1.74S1336.06,468,1335.91,467.34Z"/><path class="cls-23" d="M1348.76,695.89c.08-.18.15-.37.24-.55s.16-.32.25-.48l1.36-2.88c-.66-.76-1.25-1.58-1.89-2.36a16.17,16.17,0,0,1-1.54-1.86,63.32,63.32,0,0,0-25.56-17.3c-1-.36-1.41-.5-2.48-.88a135.46,135.46,0,0,1-31.68-16.68,9.6,9.6,0,0,1-1.29-.9l-.4-.28a24.55,24.55,0,0,1-2.11-1.52l-.76-.56a8.21,8.21,0,0,1-.78,1.57l-10.29,21.46a.4.4,0,0,1-.07.22l-.21.36-2.78,5.8c.84,1,1.74,2.1,2.7,3.16l.19.18c.44.44.85.9,1.26,1.37,6,6.24,14.29,12.28,25.33,14.66,2.31.5,3.39.55,5.73,1,7.72,1.57,17.61,5.47,28.46,15.24l.08.06c1,1,2.12,2,3.19,3,.64.55,1.31,1.07,2,1.59Z"/><path class="cls-22" d="M1336.88,717.76l12.22-26.08a63.26,63.26,0,0,0-28.24-20.8c-.94-.35-1.36-.48-2.4-.86-8.73-3.16-20.69-8.75-35.22-19.42l-13.3,27.91c6,7.38,15.27,15.8,28.66,18.8,2.23.5,3.28.56,5.55,1,8.34,1.77,19.32,6.32,31.39,18.38"/><path class="cls-23" d="M1336.27,716.23l11.26-24.3a63.47,63.47,0,0,0-27.38-20c-.91-.35-1.31-.48-2.32-.86-8.41-3.11-20-8.56-34-18.82l-12.27,26c5.9,7,14.89,15.09,27.76,18.13,2.15.51,3.15.58,5.33,1.07,8,1.8,18.61,6.27,30.36,17.8"/><rect class="cls-22" x="1305.23" y="674.64" width="11.25" height="16.2" rx="5.63" transform="translate(347.26 -437.96) rotate(21.8)"/><rect class="cls-11" x="1289.4" y="672.44" width="11.25" height="8.01" rx="4.01" transform="translate(343.79 -432.53) rotate(21.8)"/><rect class="cls-11" x="1321.3" y="685.18" width="11.25" height="8.01" rx="4.01" transform="translate(350.8 -443.46) rotate(21.8)"/><path class="cls-22" d="M1331.83,714.23v0a.41.41,0,0,1,.19.16,1.19,1.19,0,0,0,.38.25.43.43,0,0,1,.19.25l.19.18a1.26,1.26,0,0,1,.2.2.41.41,0,0,1,.21.18v0h0l.06.06,0,0,0,0,.06,0,.07.06c.72.62,1.33,1.36,2.07,1.95l0,0,.07,0c.67.57,1.36,1.11,2,1.65a.64.64,0,0,1,.06-.16,8,8,0,0,0,.6-1.25.57.57,0,0,1,.12-.18.32.32,0,0,1,0-.09.39.39,0,0,1,.07-.27,3.7,3.7,0,0,0,.31-.55.48.48,0,0,1,0-.14l.14-.28a.38.38,0,0,1,.1-.12h0a.34.34,0,0,1,0-.14h0v0l0,0a.52.52,0,0,1,.14-.31.26.26,0,0,1,0-.09.45.45,0,0,1,.07-.18,11.07,11.07,0,0,0,.8-1.75.56.56,0,0,1,.05-.08.42.42,0,0,1,.08-.18l0,0,.12-.21v0a1.66,1.66,0,0,1,.12-.31.3.3,0,0,1,0-.15,2.26,2.26,0,0,0,.11-.22l.12-.26c0-.09.07-.18.12-.27a5.5,5.5,0,0,0-10,1.5,1.86,1.86,0,0,1,.29.27l.1.09A4,4,0,0,1,1331.83,714.23Z"/><path class="cls-22" d="M1268.62,679.05a5.92,5.92,0,0,1,1.33,1.53,15.39,15.39,0,0,0,1.71,1.81,40.59,40.59,0,0,0,3.47,3.59,9.33,9.33,0,0,0,.72-1,8.29,8.29,0,0,0-2.9-11.35,9.59,9.59,0,0,0-1.25-.61c-1.15,2-2.13,4-3.09,6Z"/><path class="cls-22" d="M1289.29,654.1a15,15,0,0,1-2.6-1.72h0a23.76,23.76,0,0,1-3.74-2.84,10.1,10.1,0,0,1-1.15,2.24v0a1.17,1.17,0,0,0,0,.11,23.23,23.23,0,0,0-2.12,4.08.4.4,0,0,1,0,.15l-.14.41a7,7,0,0,0,1.53,1.21,7.2,7.2,0,0,0,9.87-2.51C1290.3,654.9,1289.79,654.5,1289.29,654.1Z"/><path class="cls-22" d="M1349.33,694.46c.41-.83.83-1.67,1.27-2.49-.87-1-1.65-2.07-2.48-3.08a21.79,21.79,0,0,1-1.95-2.34,6.4,6.4,0,0,0-1.53,1.77,6.63,6.63,0,0,0,2.31,9.08,6.43,6.43,0,0,0,.79.39c.3-.51.46-1.12.74-1.65S1349.05,695,1349.33,694.46Z"/><path class="cls-23" d="M1344.49,765.46a5.36,5.36,0,0,1-.28-.53l-.21-.49-1.37-2.89c-1,0-2,0-3,0a16.16,16.16,0,0,1-2.41,0,63.37,63.37,0,0,0-29.59,8.79c-.89.52-1.27.77-2.26,1.36a135,135,0,0,1-33,13.92,8.55,8.55,0,0,1-1.52.43l-.46.13c-.83.25-1.67.5-2.52.67l-.91.23a8.6,8.6,0,0,1,.72,1.61l10.07,21.56a.34.34,0,0,1,.12.18l.15.4,2.72,5.82c1.34,0,2.73,0,4.16-.08l.26,0c.62-.06,1.24-.09,1.86-.11,8.65-.7,18.55-3.26,27.39-10.28,1.86-1.47,2.58-2.28,4.44-3.79,6.11-5,15.39-10.14,29.82-12.34l.1,0c1.41-.21,2.87-.39,4.37-.55.84-.14,1.66-.33,2.49-.51Z"/><path class="cls-22" d="M1353.86,788.51l-12.42-26a63.24,63.24,0,0,0-34,8.65c-.87.5-1.24.74-2.2,1.31-8,4.75-19.88,10.45-37.34,14.92l13.15,28c9.53,0,21.9-1.8,32.7-10.25,1.81-1.41,2.52-2.18,4.33-3.63,6.65-5.33,17.14-10.93,34.12-12.62"/><path class="cls-23" d="M1352.29,788l-11.64-24.12a63.57,63.57,0,0,0-32.84,8.49c-.84.48-1.2.71-2.13,1.25-7.74,4.54-19.27,10-36.14,14.39l12.32,26c9.18-.1,21.11-1.94,31.62-10,1.76-1.34,2.45-2.07,4.21-3.45,6.48-5.06,16.65-10.42,33-12.2"/><rect class="cls-22" x="1304.66" y="778.33" width="11.25" height="16.2" rx="5.63" transform="translate(-216.84 729.82) rotate(-28.85)"/><rect class="cls-11" x="1289.75" y="790.68" width="11.25" height="8.01" rx="4.01" transform="translate(-222.67 723.65) rotate(-28.85)"/><rect class="cls-11" x="1319.83" y="774.09" width="11.25" height="8.01" rx="4.01" transform="translate(-210.94 736.1) rotate(-28.85)"/><path class="cls-22" d="M1347.93,790.19h0a.43.43,0,0,1,.25-.05,1.23,1.23,0,0,0,.44-.13.39.39,0,0,1,.3,0l.26,0,.29,0a.48.48,0,0,1,.27,0h.18l0,0,.07,0,.09,0c.94-.16,1.89-.16,2.82-.37h0l.1,0c.86-.15,1.72-.35,2.57-.53a1,1,0,0,1-.09-.15,7.19,7.19,0,0,0-.58-1.26.6.6,0,0,1-.07-.2.41.41,0,0,1,0-.09.42.42,0,0,1-.16-.22,4.24,4.24,0,0,0-.23-.59.35.35,0,0,1-.07-.12l-.13-.3a.32.32,0,0,1,0-.14h0a.37.37,0,0,1-.07-.12h0l0-.05a.46.46,0,0,1-.15-.31.3.3,0,0,1,0-.1.35.35,0,0,1-.09-.16,11.1,11.1,0,0,0-.85-1.73l0-.09a.51.51,0,0,1-.09-.18s0,0,0,0l-.09-.23v0a2.69,2.69,0,0,1-.16-.29.56.56,0,0,1-.09-.14l-.09-.22c0-.09-.09-.17-.13-.26a2.15,2.15,0,0,1-.14-.26,5.36,5.36,0,0,0-2.67.28,5.5,5.5,0,0,0-2.53,8.43,2.57,2.57,0,0,1,.4-.05l.13,0A2.57,2.57,0,0,1,1347.93,790.19Z"/><path class="cls-22" d="M1280.65,816.76a5.54,5.54,0,0,1,2-.06,15.92,15.92,0,0,0,2.48-.18,41.44,41.44,0,0,0,5-.4,8.72,8.72,0,0,0-.34-1.21,8.27,8.27,0,0,0-10.61-4.95,7.71,7.71,0,0,0-1.27.58c.79,2.12,1.74,4.18,2.72,6.22Z"/><path class="cls-22" d="M1274.46,785a15.69,15.69,0,0,1-3,.92h0a23.68,23.68,0,0,1-4.58,1.1,9.41,9.41,0,0,1,1,2.3v0a.37.37,0,0,1,0,.11,24.26,24.26,0,0,0,1.81,4.23l.11.11c.07.13.15.25.22.37a7.59,7.59,0,0,0,1.91-.41,7.21,7.21,0,0,0,4.32-9.23A17.81,17.81,0,0,1,1274.46,785Z"/><path class="cls-22" d="M1343.74,764.12c-.38-.85-.76-1.7-1.12-2.56-1.32,0-2.64,0-4,0a20.56,20.56,0,0,1-3,0,6.43,6.43,0,0,0,.4,2.31,6.62,6.62,0,0,0,8.49,4,7.17,7.17,0,0,0,.8-.35c-.21-.56-.57-1.07-.81-1.62S1344,764.69,1343.74,764.12Z"/><path class="cls-23" d="M1346.19,983.08c0-.2,0-.4,0-.6s0-.36,0-.53l.09-3.2c-.91-.42-1.79-.94-2.68-1.4a14.51,14.51,0,0,1-2.16-1.08,63.35,63.35,0,0,0-30.35-5.6l-2.63.2a135.8,135.8,0,0,1-35.71-2.57,8.09,8.09,0,0,1-1.54-.31l-.48-.09a24.44,24.44,0,0,1-2.54-.55l-.93-.21a8,8,0,0,1-.08,1.76l-.81,23.79a.38.38,0,0,1,0,.22c0,.13,0,.27,0,.41l-.22,6.43c1.18.62,2.43,1.23,3.74,1.81l.24.1c.58.22,1.15.48,1.71.75,8,3.29,18,5.5,29.08,3.26,2.32-.47,3.33-.86,5.67-1.36,7.7-1.66,18.32-2.06,32.18,2.54l.09,0c1.35.45,2.74.94,4.15,1.49.81.25,1.63.46,2.45.67Z"/><path class="cls-22" d="M1344.07,1007.88l.73-28.8a63.35,63.35,0,0,0-34.2-7.71c-1,0-1.45.1-2.56.17-9.26.61-22.46.29-40-3.65l-1,30.9c8.49,4.34,20.33,8.34,33.79,5.72,2.26-.44,3.24-.81,5.5-1.28,8.36-1.72,20.25-2,36.14,4.25"/><path class="cls-23" d="M1342.9,1006.72l.57-26.77a63.51,63.51,0,0,0-33.11-7.34l-2.47.15c-9,.53-21.71.17-38.74-3.58l-.81,28.74c8.23,4.08,19.7,7.85,32.71,5.47,2.17-.4,3.12-.73,5.31-1.16,8.06-1.57,19.56-1.73,35,4.12"/><rect class="cls-22" x="1300.56" y="978.15" width="11.25" height="16.2" rx="5.63" transform="translate(-31.32 42.91) rotate(-1.86)"/><rect class="cls-11" x="1283.53" y="982.82" width="11.25" height="8.01" rx="4.01" transform="matrix(1, -0.03, 0.03, 1, -31.35, 42.36)"/><rect class="cls-11" x="1317.86" y="981.69" width="11.25" height="8.01" rx="4.01" transform="translate(-31.29 43.47) rotate(-1.86)"/><path class="cls-22" d="M1338,1006.67h0a.73.73,0,0,1,.24.07,1.17,1.17,0,0,0,.45.09.37.37,0,0,1,.27.15l.25.08.27.1a.51.51,0,0,1,.26.09h0l.07,0,.06,0h.13l.09,0c.91.28,1.76.72,2.67,1h.05l.09,0c.84.26,1.69.47,2.54.69a.47.47,0,0,1,0-.17,8,8,0,0,0,0-1.39.47.47,0,0,1,0-.21s0-.06,0-.1a.39.39,0,0,1,0-.27,4.32,4.32,0,0,0,0-.62.76.76,0,0,1,0-.15c0-.11,0-.21,0-.32a.33.33,0,0,1,0-.14h0a.33.33,0,0,1,0-.14h0v-.06a.53.53,0,0,1,0-.35.31.31,0,0,1,0-.1.41.41,0,0,1,0-.19,12.31,12.31,0,0,0,0-1.92s0-.07,0-.1a.46.46,0,0,1,0-.2v-.05l0-.24v0c0-.11,0-.22,0-.33a.42.42,0,0,1,0-.16c0-.08,0-.16,0-.25s0-.19,0-.28,0-.2,0-.3a5.41,5.41,0,0,0-2.5-1,5.49,5.49,0,0,0-6.12,4.78,5.56,5.56,0,0,0,0,1.58,1.57,1.57,0,0,1,.38.14l.13,0A2.4,2.4,0,0,1,1338,1006.67Z"/><path class="cls-22" d="M1266,999.82a5.69,5.69,0,0,1,1.83.86,15.93,15.93,0,0,0,2.29,1,44.07,44.07,0,0,0,4.63,1.89,7.88,7.88,0,0,0,.24-1.23,8.28,8.28,0,0,0-7.21-9.23,9.28,9.28,0,0,0-1.39-.05c-.26,2.25-.34,4.51-.4,6.78Z"/><path class="cls-22" d="M1274.94,968.67a15.18,15.18,0,0,1-3.07-.53h0a24.36,24.36,0,0,1-4.57-1.1,9.18,9.18,0,0,1-.15,2.51v0a.49.49,0,0,1,0,.12,23.56,23.56,0,0,0-.3,4.59.42.42,0,0,1,0,.15c0,.15,0,.29,0,.43a7,7,0,0,0,1.88.5,7.22,7.22,0,0,0,8-6.26A17.24,17.24,0,0,1,1274.94,968.67Z"/><path class="cls-22" d="M1346.13,981.55c0-.94.09-1.87.16-2.8-1.19-.55-2.33-1.23-3.5-1.83a19.84,19.84,0,0,1-2.73-1.36,6.73,6.73,0,0,0-.69,2.24,6.61,6.61,0,0,0,5.76,7.38,5.26,5.26,0,0,0,.88.05c.07-.59,0-1.21,0-1.81S1346.1,982.17,1346.13,981.55Z"/><path class="cls-13" d="M367.94,992.32c-8.94,12.43-39.6,29.57-43.21,27-2.2-1.58,0-34,11.41-49.83,9-12.46,39.79-29.43,43.4-26.84S376.93,979.8,367.94,992.32Z"/><path class="cls-13" d="M317.3,969.23c9.13,12.3,16.12,46.72,12.54,49.37-2.17,1.61-32.35-10.37-44-26-9.14-12.33-15.92-46.87-12.35-49.51S308.12,956.85,317.3,969.23Z"/><path class="cls-13" d="M293,1012.82c5,2.35,13.2,12.11,12.52,13.57-.42.89-12.1,2.28-18.51-.71-5-2.35-13.16-12.18-12.48-13.64S287.9,1010.46,293,1012.82Z"/><path class="cls-13" d="M493.56,391c32.06,43.22,56.63,164.2,44.07,173.52-4.13,3.06-37.05-7.84-72.87-27.22-30.42-16.45-62.95-39-81.72-64.32a126.59,126.59,0,0,1-11-18.33c-9.85-19.55-18.42-45.18-24.71-70-10.47-41.38-14.61-80.55-7.7-85.67C352.06,289.74,461.27,347.47,493.56,391Z"/><path class="cls-13" d="M266.76,452.85c-44.43,30.38-166.26,50.28-175.09,37.37-2.9-4.24,9.26-36.72,30-71.77,17.61-29.77,41.41-61.4,67.41-79.18A126.78,126.78,0,0,1,207.83,329c19.91-9.08,45.85-16.66,70.9-22,41.76-8.88,81-11.5,85.9-4.41C373.37,315.36,311.49,422.27,266.76,452.85Z"/></g></svg>
